<?xml version="1.0" encoding="UTF-8"?>
<!DOCTYPE svg PUBLIC "-//W3C//DTD SVG 1.1//EN" "http://www.w3.org/Graphics/SVG/1.1/DTD/svg11.dtd">
<svg version="1.1" xmlns="http://www.w3.org/2000/svg" xmlns:xlink="http://www.w3.org/1999/xlink" x="0" y="0" width="286" height="234" viewBox="0, 0, 286, 234">
  <g id="Layer_1">
    <g>
      <path d="M106.114,152.771 C108.149,149.348 110.178,145.921 112.216,142.5" fill-opacity="0" stroke="#000000" stroke-width="1"/>
      <path d="M103.538,151.233 L102.013,159.64 L108.69,154.309 z" fill="#000000" fill-opacity="1" stroke="#000000" stroke-width="1" stroke-opacity="1"/>
    </g>
    <path d="M136.643,103.5 C151.543,82.512 170.255,59.095 197.5,76.5" fill-opacity="0" stroke="#000000" stroke-width="1"/>
    <path d="M151.664,50.5 C171.306,60.923 191.853,70.825 208.926,85.346 C214.457,90.05 223.176,97.604 222.222,105.897 C220.476,121.068 183.992,123.567 173.5,124.5" fill-opacity="0" stroke="#000000" stroke-width="1"/>
    <g>
      <path d="M61.631,8.382 C77.715,15.948 94.032,23.018 110.156,30.5" fill-opacity="0" stroke="#000000" stroke-width="1"/>
      <path d="M62.923,5.675 L54.411,4.935 L60.338,11.089 z" fill="#000000" fill-opacity="1" stroke="#000000" stroke-width="1" stroke-opacity="1"/>
    </g>
    <path d="M89.5,100.5 L161.5,100.5 C168.127,100.5 173.5,105.873 173.5,112.5 L173.5,136.5 C173.5,143.127 168.127,148.5 161.5,148.5 L89.5,148.5 C82.873,148.5 77.5,143.127 77.5,136.5 L77.5,112.5 C77.5,105.873 82.873,100.5 89.5,100.5 z" fill-opacity="0" stroke="#000000" stroke-width="2"/>
    <path d="M89.5,16.5 L161.5,16.5 C168.127,16.5 173.5,21.873 173.5,28.5 L173.5,52.5 C173.5,59.127 168.127,64.5 161.5,64.5 L89.5,64.5 C82.873,64.5 77.5,59.127 77.5,52.5 L77.5,28.5 C77.5,21.873 82.873,16.5 89.5,16.5 z" fill-opacity="0" stroke="#000000" stroke-width="2"/>
    <g>
      <path d="M65.5,208.5 L41.5,208.5 L41.5,124.5 L41.5,40.5 L65.7,40.5" fill-opacity="0" stroke="#000000" stroke-width="2" stroke-linejoin="round"/>
      <path d="M65.7,44.1 L75.3,40.5 L65.7,36.9 z" fill="#000000" fill-opacity="1" stroke="#000000" stroke-width="2" stroke-opacity="1"/>
    </g>
    <g>
      <path d="M41.5,124.5 L65.7,124.5" fill-opacity="0" stroke="#000000" stroke-width="2"/>
      <path d="M65.7,128.1 L75.3,124.5 L65.7,120.9 z" fill="#000000" fill-opacity="1" stroke="#000000" stroke-width="2" stroke-opacity="1"/>
    </g>
    <g>
      <path d="M173.5,40.5 L233.5,40.5 L233.5,124.5 L233.5,208.5 L197.3,208.5" fill-opacity="0" stroke="#000000" stroke-width="2" stroke-linejoin="round"/>
      <path d="M197.3,204.9 L187.7,208.5 L197.3,212.1 z" fill="#000000" fill-opacity="1" stroke="#000000" stroke-width="2" stroke-opacity="1"/>
    </g>
    <text transform="matrix(1, 0, 0, 1, 123.769, 8.389)">
      <tspan x="-13.661" y="3.611" font-family="TimesNewRomanPSMT" font-size="12" fill="#000000">Actor</tspan>
    </text>
    <text transform="matrix(1, 0, 0, 1, 123.773, 93)">
      <tspan x="-13.664" y="4" font-family="TimesNewRomanPSMT" font-size="12" fill="#000000">Critic</tspan>
    </text>
    <text transform="matrix(1, 0, 0, 1, 19.325, 124)">
      <tspan x="-18.325" y="6" font-family="TimesNewRomanPSMT" font-size="20" fill="#000000">state</tspan>
    </text>
    <text transform="matrix(1, 0, 0, 1, 260.434, 124)">
      <tspan x="-24.434" y="6" font-family="TimesNewRomanPSMT" font-size="20" fill="#000000">action</tspan>
    </text>
    <text transform="matrix(1, 0, 0, 1, 158.759, 159)">
      <tspan x="-27.759" y="6" font-family="TimesNewRomanPSMT" font-size="20" fill="#000000">reward</tspan>
    </text>
    <g>
      <path d="M125.5,184.5 L125.5,160.3" fill-opacity="0" stroke="#000000" stroke-width="2"/>
      <path d="M129.1,160.3 L125.5,150.7 L121.9,160.3 z" fill="#000000" fill-opacity="1" stroke="#000000" stroke-width="2" stroke-opacity="1"/>
    </g>
    <g id="Layer_1">
      <path d="M259.299,133.403 C258.904,132.592 258.268,132 257.282,132 C254.718,132 252,135.222 252,138.422 C252,140.482 253.205,141.929 254.915,141.929 C255.353,141.929 256.449,141.841 257.764,140.285 C257.94,141.205 258.707,141.929 259.759,141.929 C260.526,141.929 261.03,141.425 261.381,140.723 C261.753,139.934 262.038,138.597 262.038,138.553 C262.038,138.334 261.841,138.334 261.775,138.334 C261.556,138.334 261.534,138.422 261.468,138.729 C261.096,140.153 260.701,141.447 259.803,141.447 C259.211,141.447 259.145,140.877 259.145,140.438 C259.145,139.956 259.189,139.781 259.43,138.816 C259.671,137.896 259.715,137.677 259.912,136.844 L260.701,133.775 C260.855,133.162 260.855,133.118 260.855,133.03 C260.855,132.658 260.592,132.438 260.219,132.438 C259.693,132.438 259.364,132.921 259.299,133.403 z M257.874,139.079 C257.764,139.474 257.764,139.518 257.436,139.89 C256.471,141.096 255.573,141.447 254.959,141.447 C253.863,141.447 253.556,140.241 253.556,139.386 C253.556,138.29 254.258,135.595 254.762,134.586 C255.441,133.293 256.427,132.482 257.304,132.482 C258.729,132.482 259.036,134.279 259.036,134.411 C259.036,134.542 258.992,134.674 258.97,134.784 z" fill="#000000"/>
      <path d="M266.483,138.916 L268.048,138.916 C268.339,138.916 268.539,138.916 268.539,138.579 C268.539,138.364 268.339,138.364 268.078,138.364 L266.621,138.364 L267.188,136.093 C267.204,136.017 267.234,135.94 267.234,135.879 C267.234,135.602 267.02,135.388 266.713,135.388 C266.329,135.388 266.099,135.648 265.992,136.047 C265.884,136.431 266.084,135.695 265.409,138.364 L263.844,138.364 C263.552,138.364 263.353,138.364 263.353,138.702 C263.353,138.916 263.537,138.916 263.813,138.916 L265.271,138.916 L264.365,142.537 C264.273,142.921 264.135,143.473 264.135,143.673 C264.135,144.578 264.902,145.13 265.777,145.13 C267.48,145.13 268.447,142.982 268.447,142.783 C268.447,142.583 268.247,142.583 268.201,142.583 C268.017,142.583 268.002,142.614 267.879,142.875 C267.449,143.841 266.667,144.7 265.823,144.7 C265.501,144.7 265.286,144.501 265.286,143.949 C265.286,143.795 265.347,143.473 265.378,143.32 z" fill="#000000"/>
    </g>
    <g id="Layer_1">
      <path d="M151.293,176.467 C151.227,176.796 151.096,177.3 151.096,177.409 C151.096,177.804 151.403,178.001 151.731,178.001 C151.995,178.001 152.389,177.826 152.542,177.387 C152.586,177.3 153.331,174.319 153.419,173.924 C153.594,173.201 153.989,171.667 154.121,171.075 C154.208,170.79 154.822,169.76 155.348,169.278 C155.523,169.124 156.159,168.555 157.101,168.555 C157.671,168.555 158,168.818 158.022,168.818 C157.364,168.927 156.882,169.453 156.882,170.023 C156.882,170.374 157.123,170.79 157.715,170.79 C158.307,170.79 158.921,170.286 158.921,169.497 C158.921,168.73 158.219,168.072 157.101,168.072 C155.677,168.072 154.712,169.146 154.296,169.76 C154.121,168.774 153.331,168.072 152.301,168.072 C151.293,168.072 150.877,168.927 150.679,169.322 C150.285,170.067 150,171.382 150,171.448 C150,171.667 150.219,171.667 150.263,171.667 C150.482,171.667 150.504,171.645 150.636,171.163 C151.008,169.607 151.447,168.555 152.236,168.555 C152.608,168.555 152.915,168.73 152.915,169.563 C152.915,170.023 152.849,170.264 152.564,171.404 z" fill="#000000"/>
      <path d="M163.025,174.989 L164.59,174.989 C164.882,174.989 165.081,174.989 165.081,174.651 C165.081,174.436 164.882,174.436 164.621,174.436 L163.163,174.436 L163.731,172.166 C163.746,172.089 163.777,172.012 163.777,171.951 C163.777,171.675 163.562,171.46 163.256,171.46 C162.872,171.46 162.642,171.721 162.534,172.12 C162.427,172.503 162.626,171.767 161.951,174.436 L160.387,174.436 C160.095,174.436 159.896,174.436 159.896,174.774 C159.896,174.989 160.08,174.989 160.356,174.989 L161.813,174.989 L160.908,178.61 C160.816,178.993 160.678,179.545 160.678,179.745 C160.678,180.65 161.445,181.202 162.32,181.202 C164.023,181.202 164.989,179.055 164.989,178.855 C164.989,178.656 164.79,178.656 164.744,178.656 C164.56,178.656 164.544,178.686 164.422,178.947 C163.992,179.914 163.21,180.773 162.366,180.773 C162.043,180.773 161.829,180.573 161.829,180.021 C161.829,179.868 161.89,179.545 161.921,179.392 z" fill="#000000"/>
    </g>
    <g id="Layer_1">
      <path d="M18.77,134.49 C18.156,134.512 17.718,134.995 17.718,135.477 C17.718,135.784 17.915,136.112 18.397,136.112 C18.879,136.112 19.405,135.74 19.405,134.885 C19.405,133.899 18.463,133 16.797,133 C13.904,133 13.093,135.236 13.093,136.2 C13.093,137.91 14.715,138.238 15.35,138.37 C16.49,138.589 17.63,138.83 17.63,140.036 C17.63,140.605 17.126,142.447 14.496,142.447 C14.189,142.447 12.501,142.447 11.997,141.285 C12.83,141.394 13.378,140.737 13.378,140.123 C13.378,139.619 13.027,139.356 12.567,139.356 C11.997,139.356 11.34,139.816 11.34,140.803 C11.34,142.052 12.589,142.929 14.474,142.929 C18.024,142.929 18.879,140.277 18.879,139.29 C18.879,138.501 18.463,137.953 18.2,137.69 C17.608,137.077 16.972,136.967 16.008,136.77 C15.219,136.595 14.342,136.441 14.342,135.455 C14.342,134.819 14.868,133.482 16.797,133.482 C17.345,133.482 18.441,133.636 18.77,134.49 z" fill="#000000"/>
      <path d="M24.248,139.916 L25.813,139.916 C26.104,139.916 26.304,139.916 26.304,139.579 C26.304,139.364 26.104,139.364 25.844,139.364 L24.386,139.364 L24.954,137.093 C24.969,137.017 25,136.94 25,136.879 C25,136.602 24.785,136.388 24.478,136.388 C24.095,136.388 23.864,136.648 23.757,137.047 C23.65,137.431 23.849,136.695 23.174,139.364 L21.609,139.364 C21.318,139.364 21.118,139.364 21.118,139.702 C21.118,139.916 21.302,139.916 21.578,139.916 L23.036,139.916 L22.131,143.537 C22.039,143.921 21.901,144.473 21.901,144.673 C21.901,145.578 22.668,146.13 23.542,146.13 C25.245,146.13 26.212,143.982 26.212,143.783 C26.212,143.583 26.012,143.583 25.966,143.583 C25.782,143.583 25.767,143.614 25.644,143.875 C25.215,144.841 24.432,145.7 23.588,145.7 C23.266,145.7 23.051,145.501 23.051,144.949 C23.051,144.795 23.113,144.473 23.143,144.32 z" fill="#000000"/>
    </g>
    <text transform="matrix(1, 0, 0, 1, 125.557, 40)">
      <tspan x="-25.557" y="6" font-family="TimesNewRomanPSMT" font-size="20" fill="#000000">Policy</tspan>
    </text>
    <text transform="matrix(1, 0, 0, 1, 125.125, 128.478)">
      <tspan x="-22.769" y="-10.478" font-family="TimesNewRomanPSMT" font-size="20" fill="#000000">Value </tspan>
      <tspan x="-35.557" y="12.522" font-family="TimesNewRomanPSMT" font-size="20" fill="#000000">Function</tspan>
    </text>
    <g>
      <path d="M77.5,184.5 L173.5,184.5 C180.127,184.5 185.5,189.873 185.5,196.5 L185.5,220.5 C185.5,227.127 180.127,232.5 173.5,232.5 L77.5,232.5 C70.873,232.5 65.5,227.127 65.5,220.5 L65.5,196.5 C65.5,189.873 70.873,184.5 77.5,184.5 z" fill-opacity="0" stroke="#000000" stroke-width="2"/>
      <text transform="matrix(1, 0, 0, 1, 125.395, 207.148)">
        <tspan x="-52.212" y="6" font-family="TimesNewRomanPSMT" font-size="20" fill="#000000">Environment</tspan>
      </text>
    </g>
  </g>
</svg>
