<?xml version="1.0" encoding="UTF-8"?>
<!DOCTYPE svg PUBLIC "-//W3C//DTD SVG 1.1//EN" "http://www.w3.org/Graphics/SVG/1.1/DTD/svg11.dtd">
<svg version="1.1" xmlns="http://www.w3.org/2000/svg" xmlns:xlink="http://www.w3.org/1999/xlink" x="0" y="0" width="432" height="288" viewBox="0, 0, 432, 288">
  <g id="Layer_1">
    <g>
      <path d="M86.5,5.5 L216.5,5.5 L216.5,35.5 L86.5,35.5 L86.5,5.5 z" fill="#FFFFFF"/>
      <path d="M86.5,5.5 L216.5,5.5 L216.5,35.5 L86.5,35.5 L86.5,5.5 z" fill-opacity="0" stroke="#000000" stroke-width="2"/>
    </g>
    <text transform="matrix(1, 0, 0, 1, 152, 25.194)">
      <tspan x="-52.295" y="2.306" font-family="TimesNewRomanPSMT" font-size="20" fill="#000000">Velocity &gt; -1</tspan>
    </text>
    <path d="M137.5,35.5 L105.5,78.5" fill-opacity="0" stroke="#000000" stroke-width="2"/>
    <path d="M166.5,35.5 L194.5,80.5" fill-opacity="0" stroke="#000000" stroke-width="2"/>
    <g>
      <path d="M163.5,80.5 L293.5,80.5 L293.5,110.5 L163.5,110.5 L163.5,80.5 z" fill="#FFFFFF"/>
      <path d="M163.5,80.5 L293.5,80.5 L293.5,110.5 L163.5,110.5 L163.5,80.5 z" fill-opacity="0" stroke="#000000" stroke-width="2"/>
    </g>
    <text transform="matrix(1, 0, 0, 1, 228, 96.174)">
      <tspan x="-61.455" y="6.326" font-family="TimesNewRomanPSMT" font-size="20" fill="#000000">Distance &gt; -0.5</tspan>
    </text>
    <path d="M214.5,110.5 L182.5,153.5" fill-opacity="0" stroke="#000000" stroke-width="2"/>
    <path d="M239.5,110.5 L267.5,155.5" fill-opacity="0" stroke="#000000" stroke-width="2"/>
    <g>
      <path d="M76.5,78.5 L121.5,78.5 L121.5,107.5 L76.5,107.5 L76.5,78.5 z" fill="#93FA67"/>
      <path d="M76.5,78.5 L121.5,78.5 L121.5,107.5 L76.5,107.5 L76.5,78.5 z" fill-opacity="0" stroke="#000000" stroke-width="2"/>
    </g>
    <text transform="matrix(1, 0, 0, 1, 98.5, 92.5)">
      <tspan x="-16.655" y="6" font-family="TimesNewRomanPSMT" font-size="20" fill="#000000">Left</tspan>
    </text>
    <g>
      <path d="M223.5,154.5 L353.5,154.5 L353.5,184.5 L223.5,184.5 L223.5,154.5 z" fill="#FFFFFF"/>
      <path d="M223.5,154.5 L353.5,154.5 L353.5,184.5 L223.5,184.5 L223.5,154.5 z" fill-opacity="0" stroke="#000000" stroke-width="2"/>
    </g>
    <g>
      <path d="M153.5,153.5 L198.5,153.5 L198.5,182.5 L153.5,182.5 L153.5,153.5 z" fill="#93FA67"/>
      <path d="M153.5,153.5 L198.5,153.5 L198.5,182.5 L153.5,182.5 L153.5,153.5 z" fill-opacity="0" stroke="#000000" stroke-width="2"/>
    </g>
    <text transform="matrix(1, 0, 0, 1, 175.5, 167.5)">
      <tspan x="-16.655" y="6" font-family="TimesNewRomanPSMT" font-size="20" fill="#000000">Left</tspan>
    </text>
    <text transform="matrix(1, 0, 0, 1, 288, 171.306)">
      <tspan x="-48.965" y="2.306" font-family="TimesNewRomanPSMT" font-size="20" fill="#000000">Velocity &lt; 1</tspan>
    </text>
    <g>
      <path d="M207.5,227.5 L258.5,227.5 L258.5,256.5 L207.5,256.5 L207.5,227.5 z" fill="#FF6E67"/>
      <path d="M207.5,227.5 L258.5,227.5 L258.5,256.5 L207.5,256.5 L207.5,227.5 z" fill-opacity="0" stroke="#000000" stroke-width="2"/>
    </g>
    <text transform="matrix(1, 0, 0, 1, 232.5, 241.5)">
      <tspan x="-22.227" y="6" font-family="TimesNewRomanPSMT" font-size="20" fill="#000000">Right</tspan>
    </text>
    <path d="M274.5,184.5 L242.5,227.5" fill-opacity="0" stroke="#000000" stroke-width="2"/>
    <path d="M299.5,184.5 L327.5,229.5" fill-opacity="0" stroke="#000000" stroke-width="2"/>
    <text transform="matrix(1, 0, 0, 1, 332, 228.5)">
      <tspan x="-15" y="13" font-family="TimesNewRomanPSMT" font-size="40" fill="#000000">...</tspan>
    </text>
  </g>
</svg>
