<?xml version="1.0" encoding="UTF-8"?>
<!DOCTYPE svg PUBLIC "-//W3C//DTD SVG 1.1//EN" "http://www.w3.org/Graphics/SVG/1.1/DTD/svg11.dtd">
<svg version="1.1" xmlns="http://www.w3.org/2000/svg" xmlns:xlink="http://www.w3.org/1999/xlink" x="0" y="0" width="432" height="288" viewBox="0, 0, 432, 288">
  <defs>
    <clipPath id="Clip_1">
      <path d="M67.286,27.434 L97.286,27.434 L97.286,5.434 L67.286,5.434 z"/>
    </clipPath>
    <clipPath id="Clip_2">
      <path d="M162.286,27.979 L193.286,27.979 L193.286,5.979 L162.286,5.979 z"/>
    </clipPath>
    <clipPath id="Clip_3">
      <path d="M4.988,82.56 L31.988,82.56 L31.988,60.56 L4.988,60.56 z"/>
    </clipPath>
    <clipPath id="Clip_4">
      <path d="M4.988,159.56 L32.988,159.56 L32.988,137.56 L4.988,137.56 z"/>
    </clipPath>
  </defs>
  <g id="Layer_1">
    <g>
      <path d="M222.5,34.5 L312.5,34.5 L312.5,259.5 L222.5,259.5 L222.5,34.5 z" fill="#FFFFFF"/>
      <path d="M222.5,34.5 L312.5,34.5 L312.5,259.5 L222.5,259.5 L222.5,34.5 z" fill-opacity="0" stroke="#000000" stroke-width="1"/>
    </g>
    <g>
      <path d="M132.5,34.5 L222.5,34.5 L222.5,259.5 L132.5,259.5 L132.5,34.5 z" fill="#FFFFFF"/>
      <path d="M132.5,34.5 L222.5,34.5 L222.5,259.5 L132.5,259.5 L132.5,34.5 z" fill-opacity="0" stroke="#000000" stroke-width="1"/>
    </g>
    <g>
      <path d="M42.5,34.5 L132.5,34.5 L132.5,259.5 L42.5,259.5 L42.5,34.5 z" fill="#FFFFFF"/>
      <path d="M42.5,34.5 L132.5,34.5 L132.5,259.5 L42.5,259.5 L42.5,34.5 z" fill-opacity="0" stroke="#000000" stroke-width="1"/>
    </g>
    <path d="M42.5,184.5 L402.5,184.5" fill-opacity="0" stroke="#000000" stroke-width="1"/>
    <path d="M42.5,109.5 L402.5,109.5" fill-opacity="0" stroke="#000000" stroke-width="1"/>
    <g clip-path="url(#Clip_1)" id="Layer_1">
      <path d="M79.733,7.725 C79.088,6.398 78.048,5.43 76.434,5.43 C72.238,5.43 67.79,10.702 67.79,15.938 C67.79,19.31 69.763,21.677 72.56,21.677 C73.278,21.677 75.071,21.533 77.223,18.987 C77.51,20.493 78.765,21.677 80.487,21.677 C81.742,21.677 82.567,20.852 83.141,19.704 C83.75,18.413 84.217,16.225 84.217,16.154 C84.217,15.795 83.894,15.795 83.786,15.795 C83.428,15.795 83.392,15.938 83.284,16.441 C82.674,18.772 82.029,20.888 80.558,20.888 C79.59,20.888 79.482,19.955 79.482,19.238 C79.482,18.449 79.554,18.162 79.949,16.584 C80.343,15.078 80.415,14.719 80.738,13.356 L82.029,8.335 C82.28,7.331 82.28,7.259 82.28,7.116 C82.28,6.506 81.849,6.147 81.24,6.147 C80.379,6.147 79.841,6.936 79.733,7.725 z M77.402,17.014 C77.223,17.66 77.223,17.732 76.685,18.341 C75.107,20.314 73.636,20.888 72.632,20.888 C70.839,20.888 70.337,18.915 70.337,17.517 C70.337,15.723 71.484,11.312 72.309,9.662 C73.421,7.546 75.035,6.219 76.47,6.219 C78.801,6.219 79.303,9.16 79.303,9.375 C79.303,9.59 79.231,9.805 79.195,9.985 z" fill="#000000"/>
      <path d="M93.724,10.697 C93.724,10.019 93.673,9.994 92.97,9.994 C91.364,11.576 89.079,11.601 88.05,11.601 L88.05,12.505 C88.652,12.505 90.309,12.505 91.69,11.802 L91.69,24.606 C91.69,25.434 91.69,25.761 89.179,25.761 L88.225,25.761 L88.225,26.664 C88.677,26.639 91.765,26.564 92.694,26.564 C93.473,26.564 96.636,26.639 97.188,26.664 L97.188,25.761 L96.234,25.761 C93.724,25.761 93.724,25.434 93.724,24.606 z" fill="#000000"/>
    </g>
    <g clip-path="url(#Clip_2)" id="Layer_1">
      <path d="M174.733,8.27 C174.088,6.943 173.048,5.975 171.434,5.975 C167.238,5.975 162.79,11.247 162.79,16.483 C162.79,19.855 164.763,22.222 167.56,22.222 C168.278,22.222 170.071,22.078 172.223,19.532 C172.51,21.038 173.765,22.222 175.487,22.222 C176.742,22.222 177.567,21.397 178.141,20.249 C178.75,18.958 179.217,16.77 179.217,16.698 C179.217,16.34 178.894,16.34 178.786,16.34 C178.428,16.34 178.392,16.483 178.284,16.985 C177.674,19.317 177.029,21.433 175.558,21.433 C174.59,21.433 174.482,20.5 174.482,19.783 C174.482,18.994 174.554,18.707 174.949,17.129 C175.343,15.622 175.415,15.264 175.738,13.901 L177.029,8.88 C177.28,7.876 177.28,7.804 177.28,7.66 C177.28,7.051 176.849,6.692 176.24,6.692 C175.379,6.692 174.841,7.481 174.733,8.27 z M172.402,17.559 C172.223,18.205 172.223,18.276 171.685,18.886 C170.107,20.859 168.636,21.433 167.632,21.433 C165.839,21.433 165.337,19.46 165.337,18.061 C165.337,16.268 166.484,11.857 167.309,10.207 C168.421,8.091 170.035,6.764 171.47,6.764 C173.801,6.764 174.303,9.705 174.303,9.92 C174.303,10.135 174.231,10.35 174.195,10.53 z" fill="#000000"/>
      <path d="M192.992,22.64 L192.138,22.64 C192.063,23.192 191.812,24.673 191.485,24.925 C191.284,25.075 189.351,25.075 189,25.075 L184.38,25.075 C187.016,22.74 187.895,22.037 189.401,20.857 C191.259,19.376 192.992,17.82 192.992,15.435 C192.992,12.397 190.33,10.539 187.117,10.539 C184.004,10.539 181.895,12.723 181.895,15.033 C181.895,16.313 182.974,16.439 183.225,16.439 C183.828,16.439 184.556,16.012 184.556,15.108 C184.556,14.656 184.38,13.778 183.075,13.778 C183.853,11.995 185.56,11.443 186.74,11.443 C189.251,11.443 190.556,13.401 190.556,15.435 C190.556,17.619 189,19.351 188.196,20.255 L182.146,26.23 C181.895,26.456 181.895,26.506 181.895,27.209 L192.238,27.209 z" fill="#000000"/>
    </g>
    <g id="Layer_1">
      <path d="M262.229,8.627 C261.584,7.3 260.543,6.332 258.93,6.332 C254.733,6.332 250.286,11.604 250.286,16.84 C250.286,20.212 252.259,22.579 255.056,22.579 C255.773,22.579 257.567,22.435 259.719,19.889 C260.005,21.395 261.261,22.579 262.982,22.579 C264.238,22.579 265.062,21.754 265.636,20.606 C266.246,19.315 266.712,17.127 266.712,17.056 C266.712,16.697 266.39,16.697 266.282,16.697 C265.923,16.697 265.887,16.84 265.78,17.343 C265.17,19.674 264.525,21.79 263.054,21.79 C262.086,21.79 261.978,20.857 261.978,20.14 C261.978,19.351 262.05,19.064 262.444,17.486 C262.839,15.98 262.911,15.621 263.233,14.258 L264.525,9.237 C264.776,8.233 264.776,8.161 264.776,8.018 C264.776,7.408 264.345,7.049 263.736,7.049 C262.875,7.049 262.337,7.838 262.229,8.627 z M259.898,17.916 C259.719,18.562 259.719,18.634 259.181,19.243 C257.603,21.216 256.132,21.79 255.128,21.79 C253.335,21.79 252.832,19.817 252.832,18.419 C252.832,16.625 253.98,12.214 254.805,10.564 C255.917,8.448 257.531,7.121 258.965,7.121 C261.297,7.121 261.799,10.062 261.799,10.277 C261.799,10.492 261.727,10.707 261.691,10.887 z" fill="#000000"/>
      <path d="M274.663,19.181 C276.621,19.181 278.027,20.537 278.027,23.223 C278.027,26.336 276.219,27.265 274.763,27.265 C273.759,27.265 271.55,26.989 270.495,25.508 C271.675,25.457 271.951,24.629 271.951,24.102 C271.951,23.298 271.349,22.721 270.571,22.721 C269.868,22.721 269.165,23.148 269.165,24.177 C269.165,26.537 271.776,28.068 274.813,28.068 C278.303,28.068 280.713,25.734 280.713,23.223 C280.713,21.265 279.107,19.307 276.345,18.729 C278.981,17.775 279.935,15.892 279.935,14.361 C279.935,12.377 277.65,10.896 274.864,10.896 C272.077,10.896 269.943,12.252 269.943,14.26 C269.943,15.114 270.495,15.591 271.248,15.591 C272.027,15.591 272.529,15.014 272.529,14.311 C272.529,13.583 272.027,13.055 271.248,13.005 C272.127,11.9 273.859,11.624 274.788,11.624 C275.918,11.624 277.5,12.177 277.5,14.361 C277.5,15.415 277.148,16.57 276.496,17.348 C275.667,18.302 274.964,18.353 273.709,18.428 C273.081,18.478 273.031,18.478 272.905,18.503 C272.855,18.503 272.654,18.553 272.654,18.83 C272.654,19.181 272.88,19.181 273.307,19.181 z" fill="#000000"/>
    </g>
    <g clip-path="url(#Clip_3)" id="Layer_1">
      <path d="M17.154,62.995 C16.15,63.03 15.432,63.819 15.432,64.608 C15.432,65.111 15.755,65.649 16.544,65.649 C17.333,65.649 18.194,65.039 18.194,63.64 C18.194,62.026 16.652,60.556 13.926,60.556 C9.192,60.556 7.865,64.214 7.865,65.792 C7.865,68.59 10.519,69.128 11.559,69.343 C13.424,69.701 15.289,70.096 15.289,72.068 C15.289,73.001 14.464,76.014 10.16,76.014 C9.658,76.014 6.896,76.014 6.071,74.113 C7.434,74.292 8.331,73.216 8.331,72.212 C8.331,71.387 7.757,70.957 7.004,70.957 C6.071,70.957 4.995,71.71 4.995,73.324 C4.995,75.368 7.04,76.803 10.124,76.803 C15.934,76.803 17.333,72.463 17.333,70.849 C17.333,69.558 16.652,68.661 16.221,68.231 C15.253,67.227 14.213,67.047 12.635,66.725 C11.344,66.438 9.909,66.187 9.909,64.573 C9.909,63.533 10.77,61.345 13.926,61.345 C14.823,61.345 16.616,61.596 17.154,62.995 z" fill="#000000"/>
      <path d="M28.353,65.823 C28.353,65.145 28.303,65.12 27.6,65.12 C25.993,66.702 23.708,66.727 22.679,66.727 L22.679,67.631 C23.281,67.631 24.938,67.631 26.319,66.928 L26.319,79.732 C26.319,80.56 26.319,80.886 23.809,80.886 L22.855,80.886 L22.855,81.79 C23.307,81.765 26.395,81.69 27.323,81.69 C28.102,81.69 31.265,81.765 31.817,81.79 L31.817,80.886 L30.863,80.886 C28.353,80.886 28.353,80.56 28.353,79.732 z" fill="#000000"/>
    </g>
    <text transform="matrix(1, 0, 0, 1, 356.786, 9.329)">
      <tspan x="-10.5" y="8.5" font-family="TimesNewRomanPSMT" font-size="28" fill="#000000">...</tspan>
    </text>
    <text transform="matrix(-0, -1, 1, -0, 13.123, 223.5)">
      <tspan x="-10.5" y="8.5" font-family="TimesNewRomanPSMT" font-size="28" fill="#000000">...</tspan>
    </text>
    <g clip-path="url(#Clip_4)" id="Layer_1">
      <path d="M17.154,139.995 C16.15,140.03 15.432,140.819 15.432,141.608 C15.432,142.111 15.755,142.649 16.544,142.649 C17.333,142.649 18.194,142.039 18.194,140.64 C18.194,139.026 16.652,137.556 13.926,137.556 C9.192,137.556 7.865,141.214 7.865,142.792 C7.865,145.59 10.519,146.128 11.559,146.343 C13.424,146.701 15.289,147.096 15.289,149.068 C15.289,150.001 14.464,153.014 10.16,153.014 C9.658,153.014 6.896,153.014 6.071,151.113 C7.434,151.292 8.331,150.216 8.331,149.212 C8.331,148.387 7.757,147.957 7.004,147.957 C6.071,147.957 4.995,148.71 4.995,150.324 C4.995,152.368 7.04,153.803 10.124,153.803 C15.934,153.803 17.333,149.463 17.333,147.849 C17.333,146.558 16.652,145.661 16.221,145.231 C15.253,144.227 14.213,144.047 12.635,143.725 C11.344,143.438 9.909,143.187 9.909,141.573 C9.909,140.533 10.77,138.345 13.926,138.345 C14.823,138.345 16.616,138.596 17.154,139.995 z" fill="#000000"/>
      <path d="M32.621,154.221 L31.767,154.221 C31.692,154.773 31.441,156.255 31.114,156.506 C30.914,156.656 28.98,156.656 28.629,156.656 L24.01,156.656 C26.646,154.321 27.524,153.618 29.031,152.438 C30.888,150.957 32.621,149.401 32.621,147.016 C32.621,143.978 29.96,142.12 26.746,142.12 C23.633,142.12 21.524,144.304 21.524,146.614 C21.524,147.894 22.604,148.02 22.855,148.02 C23.457,148.02 24.185,147.593 24.185,146.689 C24.185,146.237 24.01,145.359 22.704,145.359 C23.482,143.576 25.189,143.024 26.369,143.024 C28.88,143.024 30.186,144.982 30.186,147.016 C30.186,149.2 28.629,150.932 27.826,151.836 L21.775,157.811 C21.524,158.037 21.524,158.087 21.524,158.79 L31.868,158.79 z" fill="#000000"/>
    </g>
    <g id="Layer_1">
      <path d="M54.896,78.921 C58.293,77.628 61.515,73.726 61.515,69.496 C61.515,65.967 59.192,63.6 55.926,63.6 C51.192,63.6 46.37,68.576 46.37,73.682 C46.37,77.321 48.825,79.534 51.981,79.534 C52.529,79.534 53.274,79.447 54.129,79.206 C54.041,80.565 54.041,80.608 54.041,80.893 C54.041,81.595 54.041,83.304 55.86,83.304 C58.469,83.304 59.521,79.293 59.521,79.052 C59.521,78.899 59.367,78.833 59.28,78.833 C59.104,78.833 59.06,78.943 59.017,79.074 C58.49,80.63 57.219,81.178 56.452,81.178 C55.444,81.178 55.115,80.587 54.896,78.921 z M50.754,78.745 C49.044,78.066 48.299,76.356 48.299,74.384 C48.299,72.871 48.869,69.759 50.534,67.392 C52.134,65.156 54.195,64.148 55.795,64.148 C57.986,64.148 59.586,65.858 59.586,68.795 C59.586,70.987 58.469,76.115 54.786,78.176 C54.677,77.408 54.458,75.808 52.858,75.808 C51.696,75.808 50.622,76.904 50.622,78.044 C50.622,78.482 50.754,78.724 50.754,78.745 z M52.112,78.987 C51.806,78.987 51.104,78.987 51.104,78.044 C51.104,77.167 51.937,76.291 52.858,76.291 C53.778,76.291 54.195,76.817 54.195,78.154 C54.195,78.482 54.173,78.504 53.954,78.592 C53.384,78.833 52.726,78.987 52.112,78.987 z" fill="#000000"/>
      <path d="M69.878,84.313 C69.878,84.247 69.878,84.203 69.505,83.83 C66.766,81.069 66.064,76.926 66.064,73.573 C66.064,69.759 66.897,65.945 69.593,63.206 C69.878,62.943 69.878,62.899 69.878,62.833 C69.878,62.68 69.79,62.614 69.659,62.614 C69.44,62.614 67.467,64.104 66.174,66.888 C65.056,69.299 64.793,71.732 64.793,73.573 C64.793,75.282 65.034,77.934 66.24,80.411 C67.555,83.107 69.44,84.532 69.659,84.532 C69.79,84.532 69.878,84.466 69.878,84.313 z" fill="#000000"/>
      <path d="M79.718,70.855 C79.104,70.877 78.666,71.359 78.666,71.841 C78.666,72.148 78.863,72.477 79.345,72.477 C79.828,72.477 80.354,72.104 80.354,71.25 C80.354,70.263 79.411,69.365 77.745,69.365 C74.852,69.365 74.041,71.6 74.041,72.565 C74.041,74.274 75.663,74.603 76.299,74.734 C77.439,74.954 78.578,75.195 78.578,76.4 C78.578,76.97 78.074,78.811 75.444,78.811 C75.137,78.811 73.45,78.811 72.945,77.65 C73.778,77.759 74.326,77.102 74.326,76.488 C74.326,75.984 73.976,75.721 73.515,75.721 C72.945,75.721 72.288,76.181 72.288,77.167 C72.288,78.417 73.537,79.293 75.422,79.293 C78.973,79.293 79.828,76.641 79.828,75.655 C79.828,74.866 79.411,74.318 79.148,74.055 C78.556,73.441 77.921,73.332 76.956,73.135 C76.167,72.959 75.291,72.806 75.291,71.819 C75.291,71.184 75.817,69.847 77.745,69.847 C78.293,69.847 79.389,70 79.718,70.855 z" fill="#000000"/>
      <path d="M86.562,72.584 C86.562,72.169 86.531,72.154 86.102,72.154 C85.12,73.121 83.724,73.136 83.095,73.136 L83.095,73.688 C83.463,73.688 84.475,73.688 85.319,73.259 L85.319,81.083 C85.319,81.59 85.319,81.789 83.785,81.789 L83.202,81.789 L83.202,82.341 C83.478,82.326 85.365,82.28 85.933,82.28 C86.409,82.28 88.342,82.326 88.679,82.341 L88.679,81.789 L88.096,81.789 C86.562,81.789 86.562,81.59 86.562,81.083 z" fill="#000000"/>
      <path d="M95.703,79.03 C95.703,77.584 95.155,76.729 94.301,76.729 C93.577,76.729 93.139,77.277 93.139,77.891 C93.139,78.482 93.577,79.052 94.301,79.052 C94.564,79.052 94.849,78.965 95.068,78.767 C95.133,78.724 95.155,78.702 95.177,78.702 C95.199,78.702 95.221,78.724 95.221,79.03 C95.221,80.652 94.454,81.967 93.731,82.691 C93.49,82.932 93.49,82.976 93.49,83.041 C93.49,83.195 93.599,83.282 93.709,83.282 C93.95,83.282 95.703,81.595 95.703,79.03 z" fill="#000000"/>
      <path d="M109.178,70.767 C108.784,69.956 108.148,69.365 107.162,69.365 C104.598,69.365 101.88,72.587 101.88,75.787 C101.88,77.847 103.085,79.293 104.795,79.293 C105.233,79.293 106.329,79.206 107.644,77.65 C107.819,78.57 108.587,79.293 109.639,79.293 C110.406,79.293 110.91,78.789 111.261,78.088 C111.633,77.299 111.918,75.962 111.918,75.918 C111.918,75.699 111.721,75.699 111.655,75.699 C111.436,75.699 111.414,75.787 111.348,76.093 C110.976,77.518 110.581,78.811 109.682,78.811 C109.091,78.811 109.025,78.241 109.025,77.803 C109.025,77.321 109.069,77.145 109.31,76.181 C109.551,75.261 109.595,75.041 109.792,74.208 L110.581,71.14 C110.734,70.526 110.734,70.482 110.734,70.395 C110.734,70.022 110.471,69.803 110.099,69.803 C109.573,69.803 109.244,70.285 109.178,70.767 z M107.754,76.444 C107.644,76.839 107.644,76.882 107.315,77.255 C106.351,78.461 105.452,78.811 104.839,78.811 C103.743,78.811 103.436,77.606 103.436,76.751 C103.436,75.655 104.137,72.959 104.641,71.951 C105.321,70.658 106.307,69.847 107.184,69.847 C108.608,69.847 108.915,71.644 108.915,71.776 C108.915,71.907 108.871,72.039 108.85,72.148 z" fill="#000000"/>
      <path d="M117.721,72.584 C117.721,72.169 117.69,72.154 117.26,72.154 C116.278,73.121 114.882,73.136 114.253,73.136 L114.253,73.688 C114.621,73.688 115.634,73.688 116.478,73.259 L116.478,81.083 C116.478,81.59 116.478,81.789 114.944,81.789 L114.361,81.789 L114.361,82.341 C114.637,82.326 116.524,82.28 117.091,82.28 C117.567,82.28 119.5,82.326 119.838,82.341 L119.838,81.789 L119.255,81.789 C117.721,81.789 117.721,81.59 117.721,81.083 z" fill="#000000"/>
      <path d="M128.747,73.573 C128.747,71.863 128.506,69.211 127.3,66.735 C125.985,64.039 124.1,62.614 123.881,62.614 C123.75,62.614 123.662,62.702 123.662,62.833 C123.662,62.899 123.662,62.943 124.078,63.337 C126.226,65.507 127.476,68.992 127.476,73.573 C127.476,77.321 126.665,81.178 123.947,83.94 C123.662,84.203 123.662,84.247 123.662,84.313 C123.662,84.444 123.75,84.532 123.881,84.532 C124.1,84.532 126.073,83.041 127.366,80.258 C128.484,77.847 128.747,75.414 128.747,73.573 z" fill="#000000"/>
    </g>
    <g id="Layer_1">
      <path d="M145.004,78.921 C148.401,77.628 151.623,73.726 151.623,69.496 C151.623,65.967 149.3,63.6 146.034,63.6 C141.3,63.6 136.478,68.576 136.478,73.682 C136.478,77.321 138.933,79.534 142.089,79.534 C142.637,79.534 143.382,79.447 144.237,79.206 C144.149,80.565 144.149,80.608 144.149,80.893 C144.149,81.595 144.149,83.304 145.968,83.304 C148.577,83.304 149.629,79.293 149.629,79.052 C149.629,78.899 149.475,78.833 149.388,78.833 C149.212,78.833 149.168,78.943 149.125,79.074 C148.598,80.63 147.327,81.178 146.56,81.178 C145.552,81.178 145.223,80.587 145.004,78.921 z M140.862,78.745 C139.152,78.066 138.407,76.356 138.407,74.384 C138.407,72.871 138.977,69.759 140.642,67.392 C142.242,65.156 144.303,64.148 145.903,64.148 C148.094,64.148 149.694,65.858 149.694,68.795 C149.694,70.987 148.577,76.115 144.894,78.176 C144.785,77.408 144.566,75.808 142.966,75.808 C141.804,75.808 140.73,76.904 140.73,78.044 C140.73,78.482 140.862,78.724 140.862,78.745 z M142.22,78.987 C141.914,78.987 141.212,78.987 141.212,78.044 C141.212,77.167 142.045,76.291 142.966,76.291 C143.886,76.291 144.303,76.817 144.303,78.154 C144.303,78.482 144.281,78.504 144.062,78.592 C143.492,78.833 142.834,78.987 142.22,78.987 z" fill="#000000"/>
      <path d="M159.986,84.313 C159.986,84.247 159.986,84.203 159.613,83.83 C156.874,81.069 156.172,76.926 156.172,73.573 C156.172,69.759 157.005,65.945 159.701,63.206 C159.986,62.943 159.986,62.899 159.986,62.833 C159.986,62.68 159.898,62.614 159.767,62.614 C159.548,62.614 157.575,64.104 156.282,66.888 C155.164,69.299 154.901,71.732 154.901,73.573 C154.901,75.282 155.142,77.934 156.348,80.411 C157.663,83.107 159.548,84.532 159.767,84.532 C159.898,84.532 159.986,84.466 159.986,84.313 z" fill="#000000"/>
      <path d="M169.826,70.855 C169.212,70.877 168.774,71.359 168.774,71.841 C168.774,72.148 168.971,72.477 169.453,72.477 C169.936,72.477 170.462,72.104 170.462,71.25 C170.462,70.263 169.519,69.365 167.853,69.365 C164.96,69.365 164.149,71.6 164.149,72.565 C164.149,74.274 165.771,74.603 166.407,74.734 C167.547,74.954 168.686,75.195 168.686,76.4 C168.686,76.97 168.182,78.811 165.552,78.811 C165.245,78.811 163.558,78.811 163.053,77.65 C163.886,77.759 164.434,77.102 164.434,76.488 C164.434,75.984 164.084,75.721 163.623,75.721 C163.053,75.721 162.396,76.181 162.396,77.167 C162.396,78.417 163.645,79.293 165.53,79.293 C169.081,79.293 169.936,76.641 169.936,75.655 C169.936,74.866 169.519,74.318 169.256,74.055 C168.664,73.441 168.029,73.332 167.064,73.135 C166.275,72.959 165.399,72.806 165.399,71.819 C165.399,71.184 165.925,69.847 167.853,69.847 C168.401,69.847 169.497,70 169.826,70.855 z" fill="#000000"/>
      <path d="M176.67,72.584 C176.67,72.169 176.639,72.154 176.21,72.154 C175.228,73.121 173.832,73.136 173.203,73.136 L173.203,73.688 C173.571,73.688 174.583,73.688 175.427,73.259 L175.427,81.083 C175.427,81.59 175.427,81.789 173.893,81.789 L173.31,81.789 L173.31,82.341 C173.586,82.326 175.473,82.28 176.041,82.28 C176.516,82.28 178.45,82.326 178.787,82.341 L178.787,81.789 L178.204,81.789 C176.67,81.789 176.67,81.59 176.67,81.083 z" fill="#000000"/>
      <path d="M185.811,79.03 C185.811,77.584 185.263,76.729 184.409,76.729 C183.685,76.729 183.247,77.277 183.247,77.891 C183.247,78.482 183.685,79.052 184.409,79.052 C184.672,79.052 184.957,78.965 185.176,78.767 C185.241,78.724 185.263,78.702 185.285,78.702 C185.307,78.702 185.329,78.724 185.329,79.03 C185.329,80.652 184.562,81.967 183.839,82.691 C183.598,82.932 183.598,82.976 183.598,83.041 C183.598,83.195 183.707,83.282 183.817,83.282 C184.058,83.282 185.811,81.595 185.811,79.03 z" fill="#000000"/>
      <path d="M199.286,70.767 C198.892,69.956 198.256,69.365 197.27,69.365 C194.706,69.365 191.988,72.587 191.988,75.787 C191.988,77.847 193.193,79.293 194.903,79.293 C195.341,79.293 196.437,79.206 197.752,77.65 C197.927,78.57 198.695,79.293 199.747,79.293 C200.514,79.293 201.018,78.789 201.369,78.088 C201.741,77.299 202.026,75.962 202.026,75.918 C202.026,75.699 201.829,75.699 201.763,75.699 C201.544,75.699 201.522,75.787 201.456,76.093 C201.084,77.518 200.689,78.811 199.79,78.811 C199.199,78.811 199.133,78.241 199.133,77.803 C199.133,77.321 199.177,77.145 199.418,76.181 C199.659,75.261 199.703,75.041 199.9,74.208 L200.689,71.14 C200.842,70.526 200.842,70.482 200.842,70.395 C200.842,70.022 200.579,69.803 200.207,69.803 C199.681,69.803 199.352,70.285 199.286,70.767 z M197.862,76.444 C197.752,76.839 197.752,76.882 197.423,77.255 C196.459,78.461 195.56,78.811 194.947,78.811 C193.851,78.811 193.544,77.606 193.544,76.751 C193.544,75.655 194.245,72.959 194.749,71.951 C195.429,70.658 196.415,69.847 197.292,69.847 C198.716,69.847 199.023,71.644 199.023,71.776 C199.023,71.907 198.979,72.039 198.958,72.148 z" fill="#000000"/>
      <path d="M210.437,79.549 L209.915,79.549 C209.869,79.887 209.716,80.792 209.516,80.945 C209.393,81.037 208.212,81.037 207.997,81.037 L205.174,81.037 C206.785,79.61 207.322,79.181 208.243,78.46 C209.378,77.554 210.437,76.603 210.437,75.146 C210.437,73.289 208.81,72.154 206.847,72.154 C204.944,72.154 203.655,73.489 203.655,74.9 C203.655,75.683 204.315,75.759 204.469,75.759 C204.837,75.759 205.282,75.499 205.282,74.946 C205.282,74.67 205.174,74.133 204.376,74.133 C204.852,73.044 205.895,72.706 206.616,72.706 C208.151,72.706 208.949,73.903 208.949,75.146 C208.949,76.481 207.997,77.539 207.506,78.091 L203.809,81.743 C203.655,81.881 203.655,81.912 203.655,82.341 L209.976,82.341 z" fill="#000000"/>
      <path d="M218.855,73.573 C218.855,71.863 218.614,69.211 217.408,66.735 C216.093,64.039 214.208,62.614 213.989,62.614 C213.858,62.614 213.77,62.702 213.77,62.833 C213.77,62.899 213.77,62.943 214.186,63.337 C216.334,65.507 217.584,68.992 217.584,73.573 C217.584,77.321 216.773,81.178 214.055,83.94 C213.77,84.203 213.77,84.247 213.77,84.313 C213.77,84.444 213.858,84.532 213.989,84.532 C214.208,84.532 216.181,83.041 217.474,80.258 C218.592,77.847 218.855,75.414 218.855,73.573 z" fill="#000000"/>
    </g>
    <g id="Layer_1">
      <path d="M235.158,78.921 C238.555,77.628 241.777,73.726 241.777,69.496 C241.777,65.967 239.454,63.6 236.188,63.6 C231.454,63.6 226.632,68.576 226.632,73.682 C226.632,77.321 229.087,79.534 232.243,79.534 C232.791,79.534 233.536,79.447 234.391,79.206 C234.303,80.565 234.303,80.608 234.303,80.893 C234.303,81.595 234.303,83.304 236.122,83.304 C238.731,83.304 239.783,79.293 239.783,79.052 C239.783,78.899 239.629,78.833 239.542,78.833 C239.366,78.833 239.322,78.943 239.279,79.074 C238.753,80.63 237.481,81.178 236.714,81.178 C235.706,81.178 235.377,80.587 235.158,78.921 z M231.016,78.745 C229.306,78.066 228.561,76.356 228.561,74.384 C228.561,72.871 229.131,69.759 230.796,67.392 C232.396,65.156 234.457,64.148 236.057,64.148 C238.248,64.148 239.848,65.858 239.848,68.795 C239.848,70.987 238.731,76.115 235.048,78.176 C234.939,77.408 234.72,75.808 233.12,75.808 C231.958,75.808 230.884,76.904 230.884,78.044 C230.884,78.482 231.016,78.724 231.016,78.745 z M232.374,78.987 C232.068,78.987 231.366,78.987 231.366,78.044 C231.366,77.167 232.199,76.291 233.12,76.291 C234.04,76.291 234.457,76.817 234.457,78.154 C234.457,78.482 234.435,78.504 234.216,78.592 C233.646,78.833 232.988,78.987 232.374,78.987 z" fill="#000000"/>
      <path d="M250.14,84.313 C250.14,84.247 250.14,84.203 249.767,83.83 C247.028,81.069 246.326,76.926 246.326,73.573 C246.326,69.759 247.159,65.945 249.855,63.206 C250.14,62.943 250.14,62.899 250.14,62.833 C250.14,62.68 250.052,62.614 249.921,62.614 C249.702,62.614 247.729,64.104 246.436,66.888 C245.318,69.299 245.055,71.732 245.055,73.573 C245.055,75.282 245.296,77.934 246.502,80.411 C247.817,83.107 249.702,84.532 249.921,84.532 C250.052,84.532 250.14,84.466 250.14,84.313 z" fill="#000000"/>
      <path d="M259.98,70.855 C259.366,70.877 258.928,71.359 258.928,71.841 C258.928,72.148 259.125,72.477 259.607,72.477 C260.09,72.477 260.616,72.104 260.616,71.25 C260.616,70.263 259.673,69.365 258.007,69.365 C255.114,69.365 254.303,71.6 254.303,72.565 C254.303,74.274 255.925,74.603 256.561,74.734 C257.701,74.954 258.84,75.195 258.84,76.4 C258.84,76.97 258.336,78.811 255.706,78.811 C255.399,78.811 253.712,78.811 253.207,77.65 C254.04,77.759 254.588,77.102 254.588,76.488 C254.588,75.984 254.238,75.721 253.777,75.721 C253.207,75.721 252.55,76.181 252.55,77.167 C252.55,78.417 253.799,79.293 255.684,79.293 C259.235,79.293 260.09,76.641 260.09,75.655 C260.09,74.866 259.673,74.318 259.41,74.055 C258.818,73.441 258.183,73.332 257.218,73.134 C256.429,72.959 255.553,72.806 255.553,71.819 C255.553,71.184 256.079,69.847 258.007,69.847 C258.555,69.847 259.651,70 259.98,70.855 z" fill="#000000"/>
      <path d="M266.824,72.584 C266.824,72.169 266.793,72.154 266.364,72.154 C265.382,73.121 263.986,73.136 263.357,73.136 L263.357,73.688 C263.725,73.688 264.737,73.688 265.581,73.259 L265.581,81.083 C265.581,81.59 265.581,81.789 264.047,81.789 L263.464,81.789 L263.464,82.341 C263.74,82.326 265.627,82.28 266.195,82.28 C266.671,82.28 268.604,82.326 268.941,82.341 L268.941,81.789 L268.358,81.789 C266.824,81.789 266.824,81.59 266.824,81.083 z" fill="#000000"/>
      <path d="M275.965,79.03 C275.965,77.584 275.417,76.729 274.563,76.729 C273.839,76.729 273.401,77.277 273.401,77.891 C273.401,78.482 273.839,79.052 274.563,79.052 C274.826,79.052 275.111,78.965 275.33,78.767 C275.395,78.724 275.417,78.702 275.439,78.702 C275.461,78.702 275.483,78.724 275.483,79.03 C275.483,80.652 274.716,81.967 273.993,82.691 C273.752,82.932 273.752,82.976 273.752,83.041 C273.752,83.195 273.861,83.282 273.971,83.282 C274.212,83.282 275.965,81.595 275.965,79.03 z" fill="#000000"/>
      <path d="M289.44,70.767 C289.046,69.956 288.41,69.365 287.424,69.365 C284.86,69.365 282.142,72.587 282.142,75.787 C282.142,77.847 283.347,79.293 285.057,79.293 C285.495,79.293 286.591,79.206 287.906,77.65 C288.081,78.57 288.849,79.293 289.901,79.293 C290.668,79.293 291.172,78.789 291.523,78.088 C291.895,77.299 292.18,75.962 292.18,75.918 C292.18,75.699 291.983,75.699 291.917,75.699 C291.698,75.699 291.676,75.787 291.61,76.093 C291.238,77.518 290.843,78.811 289.944,78.811 C289.353,78.811 289.287,78.241 289.287,77.803 C289.287,77.321 289.331,77.145 289.572,76.181 C289.813,75.261 289.857,75.041 290.054,74.208 L290.843,71.14 C290.997,70.526 290.997,70.482 290.997,70.395 C290.997,70.022 290.733,69.803 290.361,69.803 C289.835,69.803 289.506,70.285 289.44,70.767 z M288.016,76.444 C287.906,76.839 287.906,76.882 287.577,77.255 C286.613,78.461 285.714,78.811 285.101,78.811 C284.005,78.811 283.698,77.606 283.698,76.751 C283.698,75.655 284.399,72.959 284.903,71.951 C285.583,70.658 286.569,69.847 287.446,69.847 C288.87,69.847 289.177,71.644 289.177,71.776 C289.177,71.907 289.134,72.039 289.112,72.148 z" fill="#000000"/>
      <path d="M297.031,77.217 C298.228,77.217 299.087,78.045 299.087,79.687 C299.087,81.59 297.983,82.157 297.093,82.157 C296.479,82.157 295.129,81.988 294.484,81.083 C295.206,81.053 295.374,80.546 295.374,80.224 C295.374,79.733 295.006,79.38 294.53,79.38 C294.101,79.38 293.671,79.641 293.671,80.27 C293.671,81.712 295.267,82.648 297.123,82.648 C299.256,82.648 300.729,81.221 300.729,79.687 C300.729,78.49 299.747,77.294 298.059,76.941 C299.67,76.358 300.253,75.207 300.253,74.271 C300.253,73.059 298.857,72.154 297.154,72.154 C295.451,72.154 294.147,72.982 294.147,74.21 C294.147,74.731 294.484,75.023 294.945,75.023 C295.42,75.023 295.727,74.67 295.727,74.241 C295.727,73.796 295.42,73.473 294.945,73.443 C295.482,72.768 296.54,72.599 297.108,72.599 C297.798,72.599 298.765,72.936 298.765,74.271 C298.765,74.916 298.55,75.621 298.151,76.097 C297.645,76.68 297.215,76.711 296.448,76.757 C296.065,76.787 296.034,76.787 295.957,76.803 C295.927,76.803 295.804,76.833 295.804,77.002 C295.804,77.217 295.942,77.217 296.203,77.217 z" fill="#000000"/>
      <path d="M309.009,73.573 C309.009,71.863 308.768,69.211 307.562,66.735 C306.247,64.039 304.362,62.614 304.143,62.614 C304.012,62.614 303.924,62.702 303.924,62.833 C303.924,62.899 303.924,62.943 304.34,63.337 C306.488,65.507 307.738,68.992 307.738,73.573 C307.738,77.321 306.927,81.178 304.209,83.94 C303.924,84.203 303.924,84.247 303.924,84.313 C303.924,84.444 304.012,84.532 304.143,84.532 C304.362,84.532 306.335,83.041 307.628,80.258 C308.746,77.847 309.009,75.414 309.009,73.573 z" fill="#000000"/>
    </g>
    <g id="Layer_1">
      <path d="M235.158,152.461 C238.555,151.168 241.777,147.266 241.777,143.036 C241.777,139.507 239.454,137.14 236.188,137.14 C231.454,137.14 226.632,142.116 226.632,147.222 C226.632,150.861 229.087,153.074 232.243,153.074 C232.791,153.074 233.536,152.987 234.391,152.746 C234.303,154.105 234.303,154.148 234.303,154.433 C234.303,155.135 234.303,156.844 236.122,156.844 C238.731,156.844 239.783,152.833 239.783,152.592 C239.783,152.439 239.629,152.373 239.542,152.373 C239.366,152.373 239.322,152.483 239.279,152.614 C238.753,154.17 237.481,154.718 236.714,154.718 C235.706,154.718 235.377,154.127 235.158,152.461 z M231.016,152.285 C229.306,151.606 228.561,149.896 228.561,147.924 C228.561,146.411 229.131,143.299 230.796,140.932 C232.396,138.696 234.457,137.688 236.057,137.688 C238.248,137.688 239.848,139.398 239.848,142.335 C239.848,144.527 238.731,149.655 235.048,151.716 C234.939,150.948 234.72,149.348 233.12,149.348 C231.958,149.348 230.884,150.444 230.884,151.584 C230.884,152.022 231.016,152.264 231.016,152.285 z M232.374,152.527 C232.068,152.527 231.366,152.527 231.366,151.584 C231.366,150.707 232.199,149.831 233.12,149.831 C234.04,149.831 234.457,150.357 234.457,151.694 C234.457,152.022 234.435,152.044 234.216,152.132 C233.646,152.373 232.988,152.527 232.374,152.527 z" fill="#000000"/>
      <path d="M250.14,157.853 C250.14,157.787 250.14,157.743 249.767,157.37 C247.028,154.609 246.326,150.466 246.326,147.113 C246.326,143.299 247.159,139.486 249.855,136.746 C250.14,136.483 250.14,136.439 250.14,136.373 C250.14,136.22 250.052,136.154 249.921,136.154 C249.702,136.154 247.729,137.644 246.436,140.428 C245.318,142.839 245.055,145.272 245.055,147.113 C245.055,148.822 245.296,151.475 246.502,153.951 C247.817,156.647 249.702,158.072 249.921,158.072 C250.052,158.072 250.14,158.006 250.14,157.853 z" fill="#000000"/>
      <path d="M259.98,144.395 C259.366,144.417 258.928,144.899 258.928,145.381 C258.928,145.688 259.125,146.017 259.607,146.017 C260.09,146.017 260.616,145.644 260.616,144.79 C260.616,143.803 259.673,142.905 258.007,142.905 C255.114,142.905 254.303,145.14 254.303,146.105 C254.303,147.814 255.925,148.143 256.561,148.275 C257.701,148.494 258.84,148.735 258.84,149.94 C258.84,150.51 258.336,152.351 255.706,152.351 C255.399,152.351 253.712,152.351 253.207,151.19 C254.04,151.299 254.588,150.642 254.588,150.028 C254.588,149.524 254.238,149.261 253.777,149.261 C253.207,149.261 252.55,149.721 252.55,150.707 C252.55,151.957 253.799,152.833 255.684,152.833 C259.235,152.833 260.09,150.181 260.09,149.195 C260.09,148.406 259.673,147.858 259.41,147.595 C258.818,146.981 258.183,146.872 257.218,146.675 C256.429,146.499 255.553,146.346 255.553,145.359 C255.553,144.724 256.079,143.387 258.007,143.387 C258.555,143.387 259.651,143.54 259.98,144.395 z" fill="#000000"/>
      <path d="M269.432,153.089 L268.91,153.089 C268.864,153.427 268.711,154.332 268.512,154.485 C268.389,154.577 267.207,154.577 266.993,154.577 L264.17,154.577 C265.781,153.15 266.318,152.721 267.238,152 C268.374,151.094 269.432,150.143 269.432,148.686 C269.432,146.829 267.806,145.694 265.842,145.694 C263.94,145.694 262.651,147.029 262.651,148.44 C262.651,149.223 263.311,149.299 263.464,149.299 C263.832,149.299 264.277,149.039 264.277,148.486 C264.277,148.21 264.17,147.673 263.372,147.673 C263.848,146.584 264.891,146.246 265.612,146.246 C267.146,146.246 267.944,147.443 267.944,148.686 C267.944,150.021 266.993,151.079 266.502,151.631 L262.804,155.283 C262.651,155.421 262.651,155.452 262.651,155.881 L268.972,155.881 z" fill="#000000"/>
      <path d="M275.965,152.57 C275.965,151.124 275.417,150.269 274.563,150.269 C273.839,150.269 273.401,150.817 273.401,151.431 C273.401,152.022 273.839,152.592 274.563,152.592 C274.826,152.592 275.111,152.505 275.33,152.307 C275.395,152.264 275.417,152.242 275.439,152.242 C275.461,152.242 275.483,152.264 275.483,152.57 C275.483,154.192 274.716,155.507 273.993,156.231 C273.752,156.472 273.752,156.516 273.752,156.581 C273.752,156.735 273.861,156.822 273.971,156.822 C274.212,156.822 275.965,155.135 275.965,152.57 z" fill="#000000"/>
      <path d="M289.44,144.307 C289.046,143.496 288.41,142.905 287.424,142.905 C284.86,142.905 282.142,146.127 282.142,149.327 C282.142,151.387 283.347,152.833 285.057,152.833 C285.495,152.833 286.591,152.746 287.906,151.19 C288.081,152.11 288.849,152.833 289.901,152.833 C290.668,152.833 291.172,152.329 291.523,151.628 C291.895,150.839 292.18,149.502 292.18,149.458 C292.18,149.239 291.983,149.239 291.917,149.239 C291.698,149.239 291.676,149.327 291.61,149.633 C291.238,151.058 290.843,152.351 289.944,152.351 C289.353,152.351 289.287,151.781 289.287,151.343 C289.287,150.861 289.331,150.685 289.572,149.721 C289.813,148.801 289.857,148.581 290.054,147.748 L290.843,144.68 C290.997,144.066 290.997,144.022 290.997,143.935 C290.997,143.562 290.733,143.343 290.361,143.343 C289.835,143.343 289.506,143.825 289.44,144.307 z M288.016,149.984 C287.906,150.379 287.906,150.422 287.577,150.795 C286.613,152.001 285.714,152.351 285.101,152.351 C284.005,152.351 283.698,151.146 283.698,150.291 C283.698,149.195 284.399,146.499 284.903,145.491 C285.583,144.198 286.569,143.387 287.446,143.387 C288.87,143.387 289.177,145.184 289.177,145.316 C289.177,145.447 289.134,145.579 289.112,145.688 z" fill="#000000"/>
      <path d="M297.031,150.757 C298.228,150.757 299.087,151.585 299.087,153.227 C299.087,155.13 297.983,155.697 297.093,155.697 C296.479,155.697 295.129,155.528 294.484,154.623 C295.206,154.593 295.374,154.086 295.374,153.764 C295.374,153.273 295.006,152.92 294.53,152.92 C294.101,152.92 293.671,153.181 293.671,153.81 C293.671,155.252 295.267,156.188 297.123,156.188 C299.256,156.188 300.729,154.761 300.729,153.227 C300.729,152.03 299.747,150.834 298.059,150.481 C299.67,149.898 300.253,148.747 300.253,147.811 C300.253,146.599 298.857,145.694 297.154,145.694 C295.451,145.694 294.147,146.522 294.147,147.75 C294.147,148.271 294.484,148.563 294.945,148.563 C295.42,148.563 295.727,148.21 295.727,147.781 C295.727,147.336 295.42,147.013 294.945,146.983 C295.482,146.308 296.54,146.139 297.108,146.139 C297.798,146.139 298.765,146.476 298.765,147.811 C298.765,148.456 298.55,149.161 298.151,149.637 C297.645,150.22 297.215,150.251 296.448,150.297 C296.065,150.327 296.034,150.327 295.957,150.343 C295.927,150.343 295.804,150.373 295.804,150.542 C295.804,150.757 295.942,150.757 296.203,150.757 z" fill="#000000"/>
      <path d="M309.009,147.113 C309.009,145.403 308.768,142.751 307.562,140.275 C306.247,137.579 304.362,136.154 304.143,136.154 C304.012,136.154 303.924,136.242 303.924,136.373 C303.924,136.439 303.924,136.483 304.34,136.877 C306.488,139.047 307.738,142.532 307.738,147.113 C307.738,150.861 306.927,154.718 304.209,157.48 C303.924,157.743 303.924,157.787 303.924,157.853 C303.924,157.984 304.012,158.072 304.143,158.072 C304.362,158.072 306.335,156.581 307.628,153.798 C308.746,151.387 309.009,148.954 309.009,147.113 z" fill="#000000"/>
    </g>
    <g id="Layer_1">
      <path d="M145.004,152.461 C148.401,151.168 151.623,147.266 151.623,143.036 C151.623,139.507 149.3,137.14 146.034,137.14 C141.3,137.14 136.478,142.116 136.478,147.222 C136.478,150.861 138.933,153.074 142.089,153.074 C142.637,153.074 143.382,152.987 144.237,152.746 C144.149,154.105 144.149,154.148 144.149,154.433 C144.149,155.135 144.149,156.844 145.968,156.844 C148.577,156.844 149.629,152.833 149.629,152.592 C149.629,152.439 149.475,152.373 149.388,152.373 C149.212,152.373 149.168,152.483 149.125,152.614 C148.598,154.17 147.327,154.718 146.56,154.718 C145.552,154.718 145.223,154.127 145.004,152.461 z M140.862,152.285 C139.152,151.606 138.407,149.896 138.407,147.924 C138.407,146.411 138.977,143.299 140.642,140.932 C142.242,138.696 144.303,137.688 145.903,137.688 C148.094,137.688 149.694,139.398 149.694,142.335 C149.694,144.527 148.577,149.655 144.894,151.716 C144.785,150.948 144.566,149.348 142.966,149.348 C141.804,149.348 140.73,150.444 140.73,151.584 C140.73,152.022 140.862,152.264 140.862,152.285 z M142.22,152.527 C141.914,152.527 141.212,152.527 141.212,151.584 C141.212,150.707 142.045,149.831 142.966,149.831 C143.886,149.831 144.303,150.357 144.303,151.694 C144.303,152.022 144.281,152.044 144.062,152.132 C143.492,152.373 142.834,152.527 142.22,152.527 z" fill="#000000"/>
      <path d="M159.986,157.853 C159.986,157.787 159.986,157.743 159.613,157.37 C156.874,154.609 156.172,150.466 156.172,147.113 C156.172,143.299 157.005,139.486 159.701,136.746 C159.986,136.483 159.986,136.439 159.986,136.373 C159.986,136.22 159.898,136.154 159.767,136.154 C159.548,136.154 157.575,137.644 156.282,140.428 C155.164,142.839 154.901,145.272 154.901,147.113 C154.901,148.822 155.142,151.475 156.348,153.951 C157.663,156.647 159.548,158.072 159.767,158.072 C159.898,158.072 159.986,158.006 159.986,157.853 z" fill="#000000"/>
      <path d="M169.826,144.395 C169.212,144.417 168.774,144.899 168.774,145.381 C168.774,145.688 168.971,146.017 169.453,146.017 C169.936,146.017 170.462,145.644 170.462,144.79 C170.462,143.803 169.519,142.905 167.853,142.905 C164.96,142.905 164.149,145.14 164.149,146.105 C164.149,147.814 165.771,148.143 166.407,148.275 C167.547,148.494 168.686,148.735 168.686,149.94 C168.686,150.51 168.182,152.351 165.552,152.351 C165.245,152.351 163.558,152.351 163.053,151.19 C163.886,151.299 164.434,150.642 164.434,150.028 C164.434,149.524 164.084,149.261 163.623,149.261 C163.053,149.261 162.396,149.721 162.396,150.707 C162.396,151.957 163.645,152.833 165.53,152.833 C169.081,152.833 169.936,150.181 169.936,149.195 C169.936,148.406 169.519,147.858 169.256,147.595 C168.664,146.981 168.029,146.872 167.064,146.675 C166.275,146.499 165.399,146.346 165.399,145.359 C165.399,144.724 165.925,143.387 167.853,143.387 C168.401,143.387 169.497,143.54 169.826,144.395 z" fill="#000000"/>
      <path d="M179.278,153.089 L178.756,153.089 C178.71,153.427 178.557,154.332 178.358,154.485 C178.235,154.577 177.053,154.577 176.839,154.577 L174.016,154.577 C175.627,153.15 176.164,152.721 177.084,152 C178.219,151.094 179.278,150.143 179.278,148.686 C179.278,146.829 177.652,145.694 175.688,145.694 C173.786,145.694 172.497,147.029 172.497,148.44 C172.497,149.223 173.157,149.299 173.31,149.299 C173.678,149.299 174.123,149.039 174.123,148.486 C174.123,148.21 174.016,147.673 173.218,147.673 C173.694,146.584 174.737,146.246 175.458,146.246 C176.992,146.246 177.79,147.443 177.79,148.686 C177.79,150.021 176.839,151.079 176.348,151.631 L172.65,155.283 C172.497,155.421 172.497,155.452 172.497,155.881 L178.818,155.881 z" fill="#000000"/>
      <path d="M185.811,152.57 C185.811,151.124 185.263,150.269 184.409,150.269 C183.685,150.269 183.247,150.817 183.247,151.431 C183.247,152.022 183.685,152.592 184.409,152.592 C184.672,152.592 184.957,152.505 185.176,152.307 C185.241,152.264 185.263,152.242 185.285,152.242 C185.307,152.242 185.329,152.264 185.329,152.57 C185.329,154.192 184.562,155.507 183.839,156.231 C183.598,156.472 183.598,156.516 183.598,156.581 C183.598,156.735 183.707,156.822 183.817,156.822 C184.058,156.822 185.811,155.135 185.811,152.57 z" fill="#000000"/>
      <path d="M199.286,144.307 C198.892,143.496 198.256,142.905 197.27,142.905 C194.706,142.905 191.988,146.127 191.988,149.327 C191.988,151.387 193.193,152.833 194.903,152.833 C195.341,152.833 196.437,152.746 197.752,151.19 C197.927,152.11 198.695,152.833 199.747,152.833 C200.514,152.833 201.018,152.329 201.369,151.628 C201.741,150.839 202.026,149.502 202.026,149.458 C202.026,149.239 201.829,149.239 201.763,149.239 C201.544,149.239 201.522,149.327 201.456,149.633 C201.084,151.058 200.689,152.351 199.79,152.351 C199.199,152.351 199.133,151.781 199.133,151.343 C199.133,150.861 199.177,150.685 199.418,149.721 C199.659,148.801 199.703,148.581 199.9,147.748 L200.689,144.68 C200.842,144.066 200.842,144.022 200.842,143.935 C200.842,143.562 200.579,143.343 200.207,143.343 C199.681,143.343 199.352,143.825 199.286,144.307 z M197.862,149.984 C197.752,150.379 197.752,150.422 197.423,150.795 C196.459,152.001 195.56,152.351 194.947,152.351 C193.851,152.351 193.544,151.146 193.544,150.291 C193.544,149.195 194.245,146.499 194.749,145.491 C195.429,144.198 196.415,143.387 197.292,143.387 C198.716,143.387 199.023,145.184 199.023,145.316 C199.023,145.447 198.979,145.579 198.958,145.688 z" fill="#000000"/>
      <path d="M210.437,153.089 L209.915,153.089 C209.869,153.427 209.716,154.332 209.516,154.485 C209.393,154.577 208.212,154.577 207.997,154.577 L205.174,154.577 C206.785,153.15 207.322,152.721 208.243,152 C209.378,151.094 210.437,150.143 210.437,148.686 C210.437,146.829 208.81,145.694 206.847,145.694 C204.944,145.694 203.655,147.029 203.655,148.44 C203.655,149.223 204.315,149.299 204.469,149.299 C204.837,149.299 205.282,149.039 205.282,148.486 C205.282,148.21 205.174,147.673 204.376,147.673 C204.852,146.584 205.895,146.246 206.616,146.246 C208.151,146.246 208.949,147.443 208.949,148.686 C208.949,150.021 207.997,151.079 207.506,151.631 L203.809,155.283 C203.655,155.421 203.655,155.452 203.655,155.881 L209.976,155.881 z" fill="#000000"/>
      <path d="M218.855,147.113 C218.855,145.403 218.614,142.751 217.408,140.275 C216.093,137.579 214.208,136.154 213.989,136.154 C213.858,136.154 213.77,136.242 213.77,136.373 C213.77,136.439 213.77,136.483 214.186,136.877 C216.334,139.047 217.584,142.532 217.584,147.113 C217.584,150.861 216.773,154.718 214.055,157.48 C213.77,157.743 213.77,157.787 213.77,157.853 C213.77,157.984 213.858,158.072 213.989,158.072 C214.208,158.072 216.181,156.581 217.474,153.798 C218.592,151.387 218.855,148.954 218.855,147.113 z" fill="#000000"/>
    </g>
    <g id="Layer_1">
      <path d="M54.896,152.461 C58.293,151.168 61.515,147.266 61.515,143.036 C61.515,139.507 59.192,137.14 55.926,137.14 C51.192,137.14 46.37,142.116 46.37,147.222 C46.37,150.861 48.825,153.074 51.981,153.074 C52.529,153.074 53.274,152.987 54.129,152.746 C54.041,154.105 54.041,154.148 54.041,154.433 C54.041,155.135 54.041,156.844 55.86,156.844 C58.469,156.844 59.521,152.833 59.521,152.592 C59.521,152.439 59.367,152.373 59.28,152.373 C59.104,152.373 59.06,152.483 59.017,152.614 C58.49,154.17 57.219,154.718 56.452,154.718 C55.444,154.718 55.115,154.127 54.896,152.461 z M50.754,152.285 C49.044,151.606 48.299,149.896 48.299,147.924 C48.299,146.411 48.869,143.299 50.534,140.932 C52.134,138.696 54.195,137.688 55.795,137.688 C57.986,137.688 59.586,139.398 59.586,142.335 C59.586,144.527 58.469,149.655 54.786,151.716 C54.677,150.948 54.458,149.348 52.858,149.348 C51.696,149.348 50.622,150.444 50.622,151.584 C50.622,152.022 50.754,152.264 50.754,152.285 z M52.112,152.527 C51.806,152.527 51.104,152.527 51.104,151.584 C51.104,150.707 51.937,149.831 52.858,149.831 C53.778,149.831 54.195,150.357 54.195,151.694 C54.195,152.022 54.173,152.044 53.954,152.132 C53.384,152.373 52.726,152.527 52.112,152.527 z" fill="#000000"/>
      <path d="M69.878,157.853 C69.878,157.787 69.878,157.743 69.505,157.37 C66.766,154.609 66.064,150.466 66.064,147.113 C66.064,143.299 66.897,139.486 69.593,136.746 C69.878,136.483 69.878,136.439 69.878,136.373 C69.878,136.22 69.79,136.154 69.659,136.154 C69.44,136.154 67.467,137.644 66.174,140.428 C65.056,142.839 64.793,145.272 64.793,147.113 C64.793,148.822 65.034,151.475 66.24,153.951 C67.555,156.647 69.44,158.072 69.659,158.072 C69.79,158.072 69.878,158.006 69.878,157.853 z" fill="#000000"/>
      <path d="M79.718,144.395 C79.104,144.417 78.666,144.899 78.666,145.381 C78.666,145.688 78.863,146.017 79.345,146.017 C79.828,146.017 80.354,145.644 80.354,144.79 C80.354,143.803 79.411,142.905 77.745,142.905 C74.852,142.905 74.041,145.14 74.041,146.105 C74.041,147.814 75.663,148.143 76.299,148.275 C77.439,148.494 78.578,148.735 78.578,149.94 C78.578,150.51 78.074,152.351 75.444,152.351 C75.137,152.351 73.45,152.351 72.945,151.19 C73.778,151.299 74.326,150.642 74.326,150.028 C74.326,149.524 73.976,149.261 73.515,149.261 C72.945,149.261 72.288,149.721 72.288,150.707 C72.288,151.957 73.537,152.833 75.422,152.833 C78.973,152.833 79.828,150.181 79.828,149.195 C79.828,148.406 79.411,147.858 79.148,147.595 C78.556,146.981 77.921,146.872 76.956,146.675 C76.167,146.499 75.291,146.346 75.291,145.359 C75.291,144.724 75.817,143.387 77.745,143.387 C78.293,143.387 79.389,143.54 79.718,144.395 z" fill="#000000"/>
      <path d="M89.17,153.089 L88.648,153.089 C88.602,153.427 88.449,154.332 88.25,154.485 C88.127,154.577 86.945,154.577 86.731,154.577 L83.908,154.577 C85.519,153.15 86.056,152.721 86.976,152 C88.112,151.094 89.17,150.143 89.17,148.686 C89.17,146.829 87.544,145.694 85.58,145.694 C83.678,145.694 82.389,147.029 82.389,148.44 C82.389,149.223 83.049,149.299 83.202,149.299 C83.57,149.299 84.015,149.039 84.015,148.486 C84.015,148.21 83.908,147.673 83.11,147.673 C83.586,146.584 84.629,146.246 85.35,146.246 C86.884,146.246 87.682,147.443 87.682,148.686 C87.682,150.021 86.731,151.079 86.24,151.631 L82.542,155.283 C82.389,155.421 82.389,155.452 82.389,155.881 L88.71,155.881 z" fill="#000000"/>
      <path d="M95.703,152.57 C95.703,151.124 95.155,150.269 94.301,150.269 C93.577,150.269 93.139,150.817 93.139,151.431 C93.139,152.022 93.577,152.592 94.301,152.592 C94.564,152.592 94.849,152.505 95.068,152.307 C95.133,152.264 95.155,152.242 95.177,152.242 C95.199,152.242 95.221,152.264 95.221,152.57 C95.221,154.192 94.454,155.507 93.731,156.231 C93.49,156.472 93.49,156.516 93.49,156.581 C93.49,156.735 93.599,156.822 93.709,156.822 C93.95,156.822 95.703,155.135 95.703,152.57 z" fill="#000000"/>
      <path d="M109.178,144.307 C108.784,143.496 108.148,142.905 107.162,142.905 C104.598,142.905 101.88,146.127 101.88,149.327 C101.88,151.387 103.085,152.833 104.795,152.833 C105.233,152.833 106.329,152.746 107.644,151.19 C107.819,152.11 108.587,152.833 109.639,152.833 C110.406,152.833 110.91,152.329 111.261,151.628 C111.633,150.839 111.918,149.502 111.918,149.458 C111.918,149.239 111.721,149.239 111.655,149.239 C111.436,149.239 111.414,149.327 111.348,149.633 C110.976,151.058 110.581,152.351 109.682,152.351 C109.091,152.351 109.025,151.781 109.025,151.343 C109.025,150.861 109.069,150.685 109.31,149.721 C109.551,148.801 109.595,148.581 109.792,147.748 L110.581,144.68 C110.734,144.066 110.734,144.022 110.734,143.935 C110.734,143.562 110.471,143.343 110.099,143.343 C109.573,143.343 109.244,143.825 109.178,144.307 z M107.754,149.984 C107.644,150.379 107.644,150.422 107.315,150.795 C106.351,152.001 105.452,152.351 104.839,152.351 C103.743,152.351 103.436,151.146 103.436,150.291 C103.436,149.195 104.137,146.499 104.641,145.491 C105.321,144.198 106.307,143.387 107.184,143.387 C108.608,143.387 108.915,145.184 108.915,145.316 C108.915,145.447 108.871,145.579 108.85,145.688 z" fill="#000000"/>
      <path d="M117.721,146.124 C117.721,145.709 117.69,145.694 117.26,145.694 C116.278,146.661 114.882,146.676 114.253,146.676 L114.253,147.228 C114.621,147.228 115.634,147.228 116.478,146.799 L116.478,154.623 C116.478,155.13 116.478,155.329 114.944,155.329 L114.361,155.329 L114.361,155.881 C114.637,155.866 116.524,155.82 117.091,155.82 C117.567,155.82 119.5,155.866 119.838,155.881 L119.838,155.329 L119.255,155.329 C117.721,155.329 117.721,155.13 117.721,154.623 z" fill="#000000"/>
      <path d="M128.747,147.113 C128.747,145.403 128.506,142.751 127.3,140.275 C125.985,137.579 124.1,136.154 123.881,136.154 C123.75,136.154 123.662,136.242 123.662,136.373 C123.662,136.439 123.662,136.483 124.078,136.877 C126.226,139.047 127.476,142.532 127.476,147.113 C127.476,150.861 126.665,154.718 123.947,157.48 C123.662,157.743 123.662,157.787 123.662,157.853 C123.662,157.984 123.75,158.072 123.881,158.072 C124.1,158.072 126.073,156.581 127.366,153.798 C128.484,151.387 128.747,148.954 128.747,147.113 z" fill="#000000"/>
    </g>
    <text transform="matrix(-0, -1, 1, -0, 77.874, 223.5)">
      <tspan x="-10.5" y="8.5" font-family="TimesNewRomanPSMT" font-size="28" fill="#000000">...</tspan>
    </text>
    <text transform="matrix(-0, -1, 1, -0, 168.142, 223.5)">
      <tspan x="-10.5" y="8.5" font-family="TimesNewRomanPSMT" font-size="28" fill="#000000">...</tspan>
    </text>
    <text transform="matrix(-0, -1, 1, -0, 261.292, 223.5)">
      <tspan x="-10.5" y="8.5" font-family="TimesNewRomanPSMT" font-size="28" fill="#000000">...</tspan>
    </text>
    <text transform="matrix(1, 0, 0, 1, 356.786, 65.081)">
      <tspan x="-10.5" y="8.5" font-family="TimesNewRomanPSMT" font-size="28" fill="#000000">...</tspan>
    </text>
    <text transform="matrix(1, 0, 0, 1, 356.786, 139.691)">
      <tspan x="-10.5" y="8.5" font-family="TimesNewRomanPSMT" font-size="28" fill="#000000">...</tspan>
    </text>
    <path d="M312.5,34.5 L402.5,34.5" fill-opacity="0" stroke="#000000" stroke-width="1"/>
    <path d="M402.5,34.5 L402.5,184.5" fill-opacity="0" stroke="#000000" stroke-width="1"/>
  </g>
</svg>
