<?xml version="1.0" encoding="UTF-8"?>
<!DOCTYPE svg PUBLIC "-//W3C//DTD SVG 1.1//EN" "http://www.w3.org/Graphics/SVG/1.1/DTD/svg11.dtd">
<svg version="1.1" xmlns="http://www.w3.org/2000/svg" xmlns:xlink="http://www.w3.org/1999/xlink" x="0" y="0" width="381" height="432" viewBox="0, 0, 381, 432">
  <defs>
    <clipPath id="Clip_1">
      <path d="M152.514,266.837 L286.831,266.837 L286.831,422.322 L152.514,422.322 z M158.262,271.307 L155.993,273.27 L281.084,417.852 L283.353,415.889 L158.262,271.307 z"/>
    </clipPath>
    <filter id="Shadow_2">
      <feGaussianBlur in="SourceAlpha" stdDeviation="1.239"/>
      <feOffset dx="0" dy="0.991" result="offsetblur"/>
      <feFlood flood-color="#000000"/>
      <feComposite in2="offsetblur" operator="in"/>
    </filter>
    <clipPath id="Clip_3">
      <path d="M100.203,80.075 L160.15,80.075 L160.15,271.9 L100.203,271.9 z M106.574,84.545 L103.681,85.341 L153.779,267.43 L156.671,266.634 L106.574,84.545 z"/>
    </clipPath>
    <filter id="Shadow_4">
      <feGaussianBlur in="SourceAlpha" stdDeviation="1.239"/>
      <feOffset dx="0" dy="0.991" result="offsetblur"/>
      <feFlood flood-color="#000000"/>
      <feComposite in2="offsetblur" operator="in"/>
    </filter>
    <clipPath id="Clip_5">
      <path d="M141.149,253.923 L172.316,253.923 L172.316,286.242 L141.149,286.242 z M156.732,258.393 C150.047,258.393 144.627,263.626 144.627,270.082 C144.627,276.538 150.047,281.772 156.732,281.772 C163.418,281.772 168.837,276.538 168.837,270.082 C168.837,263.626 163.418,258.393 156.732,258.393 z"/>
    </clipPath>
    <filter id="Shadow_6">
      <feGaussianBlur in="SourceAlpha" stdDeviation="1.239"/>
      <feOffset dx="0" dy="0.991" result="offsetblur"/>
      <feFlood flood-color="#000000"/>
      <feComposite in2="offsetblur" operator="in"/>
    </filter>
    <radialGradient id="Gradient_1" gradientUnits="userSpaceOnUse" cx="-156.732" cy="270.082" r="12.105" gradientTransform="matrix(-1, 0, 0, 1, 0, 0)">
      <stop offset="0" stop-color="#FFFFFF"/>
      <stop offset="1" stop-color="#000000"/>
    </radialGradient>
    <clipPath id="Clip_7">
      <path d="M268.149,401.582 L299.322,401.582 L299.322,433.885 L268.149,433.885 z M284.466,406.052 C282.335,406.127 280.594,406.168 278.62,407.128 C272.561,409.856 269.939,416.811 272.764,422.663 C275.59,428.514 282.792,431.045 288.851,428.317 C294.91,425.588 297.531,418.633 294.706,412.782 C292.541,408.833 288.982,406.44 284.466,406.052 z"/>
    </clipPath>
    <filter id="Shadow_8">
      <feGaussianBlur in="SourceAlpha" stdDeviation="1.239"/>
      <feOffset dx="0" dy="0.991" result="offsetblur"/>
      <feFlood flood-color="#000000"/>
      <feComposite in2="offsetblur" operator="in"/>
    </filter>
    <radialGradient id="Gradient_2" gradientUnits="userSpaceOnUse" cx="-80.614" cy="498.497" r="12.032" gradientTransform="matrix(-0.906, 0.423, 0.423, 0.906, 0, 0)">
      <stop offset="0" stop-color="#FFFFFF"/>
      <stop offset="1" stop-color="#000000"/>
    </radialGradient>
    <clipPath id="Clip_9">
      <path d="M38.627,37.03 L170.627,37.03 L170.627,123.03 L38.627,123.03 z M154.627,45.03 L54.627,45.03 C49.104,45.03 44.627,46.771 44.627,48.919 L44.627,111.141 C44.627,113.289 49.104,115.03 54.627,115.03 L154.627,115.03 C160.15,115.03 164.627,113.289 164.627,111.141 L164.627,48.919 C164.627,46.771 160.15,45.03 154.627,45.03 z"/>
    </clipPath>
    <filter id="Shadow_10">
      <feGaussianBlur in="SourceAlpha" stdDeviation="2.5"/>
      <feOffset dx="0" dy="2" result="offsetblur"/>
      <feFlood flood-color="#000000"/>
      <feComposite in2="offsetblur" operator="in"/>
    </filter>
    <linearGradient id="Gradient_3" gradientUnits="userSpaceOnUse" x1="44.627" y1="80.03" x2="164.627" y2="80.03">
      <stop offset="0" stop-color="#555555"/>
      <stop offset="0.153" stop-color="#BFBFBF"/>
      <stop offset="0.851" stop-color="#B4B4B4"/>
      <stop offset="1" stop-color="#6A6A6A"/>
    </linearGradient>
  </defs>
  <g id="Layer_1">
    <path d="M3,44 L378,44 L378,116 L3,116 L3,44 z" fill="#CBCBCB"/>
    <path d="M157.128,272.289 L157.376,361.707" fill-opacity="0" stroke="#000000" stroke-width="1"/>
    <path d="M181.926,82.103 L4.5,82.103" fill-opacity="0" stroke="#000000" stroke-width="1" stroke-dasharray="3,2"/>
    <path d="M377.451,82.103 L198.794,82.103" fill-opacity="0" stroke="#000000" stroke-width="1" stroke-dasharray="3,2"/>
    <g>
      <path d="M158.262,271.307 L283.353,415.889 L281.084,417.852 L155.993,273.27 L158.262,271.307 z" clip-path="url(#Clip_1)" filter="url(#Shadow_2)" fill="rgba(0,0,0,0.75)"/>
      <path d="M157.127,272.289 L282.218,416.871" fill-opacity="0" stroke="#000000" stroke-width="3"/>
    </g>
    <path d="M105.127,84.943 L105.105,174.361" fill-opacity="0" stroke="#000000" stroke-width="1"/>
    <g>
      <path d="M106.574,84.545 L156.671,266.634 L153.779,267.43 L103.681,85.341 L106.574,84.545 z" clip-path="url(#Clip_3)" filter="url(#Shadow_4)" fill="rgba(0,0,0,0.75)"/>
      <path d="M105.127,84.943 L155.225,267.032" fill-opacity="0" stroke="#000000" stroke-width="3"/>
    </g>
    <g>
      <path d="M105.127,81.53 L105.127,9.53 L151.527,9.53" fill-opacity="0" stroke="#000000" stroke-width="3" stroke-linejoin="round"/>
      <path d="M151.527,13.73 L162.727,9.53 L151.527,5.33 z" fill="#000000" fill-opacity="1" stroke="#000000" stroke-width="3" stroke-opacity="1"/>
    </g>
    <g>
      <path d="M156.732,258.393 C163.418,258.393 168.837,263.626 168.837,270.082 C168.837,276.538 163.418,281.772 156.732,281.772 C150.047,281.772 144.627,276.538 144.627,270.082 C144.627,263.626 150.047,258.393 156.732,258.393 z" clip-path="url(#Clip_5)" filter="url(#Shadow_6)" fill="rgba(0,0,0,0.75)"/>
      <path d="M156.732,281.772 C163.418,281.772 168.837,276.538 168.837,270.082 C168.837,263.626 163.418,258.393 156.732,258.393 C150.047,258.393 144.627,263.626 144.627,270.082 C144.627,276.538 150.047,281.772 156.732,281.772 z" fill="url(#Gradient_1)"/>
    </g>
    <g>
      <path d="M284.466,406.052 C288.982,406.44 292.541,408.833 294.706,412.782 C297.531,418.633 294.91,425.588 288.851,428.317 C282.792,431.045 275.59,428.514 272.764,422.663 C269.939,416.811 272.561,409.856 278.62,407.128 C280.594,406.168 282.335,406.127 284.466,406.052 z" clip-path="url(#Clip_7)" filter="url(#Shadow_8)" fill="rgba(0,0,0,0.75)"/>
      <path d="M288.851,428.317 C294.91,425.588 297.531,418.633 294.706,412.782 C291.881,406.931 284.678,404.399 278.62,407.128 C272.561,409.856 269.939,416.811 272.764,422.663 C275.59,428.514 282.792,431.045 288.851,428.317 z" fill="url(#Gradient_2)"/>
    </g>
    <g>
      <path d="M164.026,257.922 L178.582,229.977" fill-opacity="0" stroke="#000000" stroke-width="2"/>
      <path d="M178.582,229.977 L180.247,242.213" fill-opacity="0" stroke="#000000" stroke-width="2"/>
      <path d="M180.247,242.213 L194.803,214.268" fill-opacity="0" stroke="#000000" stroke-width="2"/>
    </g>
    <g>
      <path d="M116.822,161.155 C113.147,161.719 109.433,162.017 105.707,162.045" fill-opacity="0" stroke="#000000" stroke-width="1"/>
      <path d="M117.449,164.089 L124.645,159.483 L116.194,158.222 z" fill="#000000" fill-opacity="1" stroke="#000000" stroke-width="1" stroke-opacity="1"/>
    </g>
    <g>
      <path d="M203.804,340.068 C190.337,349.342 174.348,354.435 157.861,354.582" fill-opacity="0" stroke="#000000" stroke-width="1"/>
      <path d="M205.638,342.442 L210.134,335.177 L201.969,337.694 z" fill="#000000" fill-opacity="1" stroke="#000000" stroke-width="1" stroke-opacity="1"/>
    </g>
    <g id="Layer_1">
      <path d="M188.568,358.967 C188.568,357.126 188.066,353.248 185.221,353.248 C181.343,353.248 177.047,361.115 177.047,367.503 C177.047,370.125 177.856,373.221 180.395,373.221 C184.328,373.221 188.568,365.215 188.568,358.967 z M180.004,362.788 C180.478,361.003 181.036,358.771 182.152,356.791 C182.905,355.424 183.937,353.862 185.193,353.862 C186.559,353.862 186.727,355.647 186.727,357.237 C186.727,358.604 186.504,360.027 185.834,362.788 z M185.583,363.681 C185.276,364.964 184.691,367.335 183.63,369.344 C182.654,371.241 181.594,372.607 180.395,372.607 C179.474,372.607 178.888,371.798 178.888,369.204 C178.888,368.033 179.056,366.415 179.781,363.681 z" fill="#000000"/>
      <path d="M198.832,373.546 L198.168,373.546 C198.11,373.976 197.914,375.128 197.661,375.323 C197.504,375.44 196.001,375.44 195.727,375.44 L192.135,375.44 C194.185,373.625 194.868,373.078 196.04,372.16 C197.485,371.008 198.832,369.797 198.832,367.942 C198.832,365.58 196.762,364.135 194.263,364.135 C191.842,364.135 190.201,365.833 190.201,367.63 C190.201,368.626 191.041,368.723 191.236,368.723 C191.705,368.723 192.271,368.391 192.271,367.688 C192.271,367.337 192.135,366.654 191.119,366.654 C191.724,365.267 193.052,364.838 193.97,364.838 C195.923,364.838 196.938,366.361 196.938,367.942 C196.938,369.641 195.727,370.988 195.103,371.691 L190.397,376.339 C190.201,376.514 190.201,376.553 190.201,377.1 L198.246,377.1 z" fill="#000000"/>
    </g>
    <g id="Layer_1">
      <path d="M118.254,171.645 C118.254,169.803 117.752,165.926 114.907,165.926 C111.029,165.926 106.734,173.792 106.734,180.18 C106.734,182.803 107.543,185.899 110.081,185.899 C114.014,185.899 118.254,177.893 118.254,171.645 z M109.69,175.466 C110.165,173.681 110.723,171.449 111.838,169.469 C112.592,168.102 113.624,166.54 114.879,166.54 C116.246,166.54 116.413,168.325 116.413,169.915 C116.413,171.282 116.19,172.705 115.521,175.466 z M115.27,176.359 C114.963,177.642 114.377,180.013 113.317,182.022 C112.34,183.918 111.28,185.285 110.081,185.285 C109.16,185.285 108.575,184.476 108.575,181.882 C108.575,180.711 108.742,179.093 109.467,176.359 z" fill="#000000"/>
      <path d="M125.199,177.359 C125.199,176.832 125.16,176.812 124.613,176.812 C123.363,178.043 121.587,178.062 120.786,178.062 L120.786,178.765 C121.255,178.765 122.543,178.765 123.617,178.218 L123.617,188.177 C123.617,188.821 123.617,189.075 121.665,189.075 L120.923,189.075 L120.923,189.778 C121.274,189.759 123.676,189.7 124.398,189.7 C125.004,189.7 127.464,189.759 127.894,189.778 L127.894,189.075 L127.152,189.075 C125.199,189.075 125.199,188.821 125.199,188.177 z" fill="#000000"/>
    </g>
    <path d="M177.256,5.905 C177.423,5.18 178.065,2.614 180.017,2.614 C180.157,2.614 180.826,2.614 181.412,2.976 C180.631,3.116 180.073,3.813 180.073,4.483 C180.073,4.929 180.38,5.459 181.133,5.459 C181.747,5.459 182.64,4.957 182.64,3.841 C182.64,2.391 180.994,2 180.045,2 C178.427,2 177.451,3.478 177.116,4.12 C176.419,2.279 174.913,2 174.104,2 C171.203,2 169.613,5.598 169.613,6.296 C169.613,6.575 169.891,6.575 169.947,6.575 C170.17,6.575 170.254,6.519 170.31,6.268 C171.258,3.311 173.099,2.614 174.048,2.614 C174.578,2.614 175.554,2.865 175.554,4.483 C175.554,5.347 175.08,7.216 174.048,11.122 C173.602,12.851 172.625,14.023 171.398,14.023 C171.23,14.023 170.589,14.023 170.003,13.66 C170.7,13.521 171.314,12.935 171.314,12.154 C171.314,11.401 170.7,11.178 170.282,11.178 C169.445,11.178 168.748,11.903 168.748,12.795 C168.748,14.079 170.143,14.637 171.37,14.637 C173.211,14.637 174.215,12.684 174.299,12.517 C174.634,13.549 175.638,14.637 177.312,14.637 C180.185,14.637 181.775,11.038 181.775,10.341 C181.775,10.062 181.524,10.062 181.44,10.062 C181.189,10.062 181.133,10.173 181.077,10.369 C180.157,13.353 178.26,14.023 177.367,14.023 C176.279,14.023 175.833,13.13 175.833,12.182 C175.833,11.568 176.001,10.954 176.307,9.727 z" fill="#000000" id="Layer_1"/>
    <g id="Layer_1">
      <path d="M189.97,211.381 C189.886,211.799 189.719,212.441 189.719,212.58 C189.719,213.083 190.109,213.334 190.528,213.334 C190.862,213.334 191.365,213.11 191.56,212.552 C191.588,212.497 191.923,211.186 192.09,210.488 L192.704,207.978 C192.871,207.364 193.038,206.75 193.178,206.109 C193.289,205.634 193.513,204.826 193.54,204.714 C193.959,203.849 195.437,201.311 198.087,201.311 C199.343,201.311 199.594,202.343 199.594,203.263 C199.594,203.961 199.398,204.742 199.175,205.579 L198.394,208.815 L197.836,210.935 C197.725,211.492 197.474,212.441 197.474,212.58 C197.474,213.083 197.864,213.334 198.283,213.334 C199.147,213.334 199.315,212.636 199.538,211.744 C199.928,210.181 200.961,206.109 201.212,205.021 C201.295,204.658 202.774,201.311 205.814,201.311 C207.014,201.311 207.321,202.259 207.321,203.263 C207.321,204.853 206.149,208.033 205.591,209.512 C205.34,210.181 205.229,210.488 205.229,211.046 C205.229,212.357 206.205,213.334 207.516,213.334 C210.138,213.334 211.17,209.261 211.17,209.038 C211.17,208.759 210.919,208.759 210.835,208.759 C210.557,208.759 210.557,208.842 210.417,209.261 C209.999,210.739 209.106,212.72 207.572,212.72 C207.098,212.72 206.902,212.441 206.902,211.799 C206.902,211.102 207.153,210.432 207.404,209.819 C207.934,208.368 209.106,205.272 209.106,203.682 C209.106,201.869 207.99,200.697 205.898,200.697 C203.806,200.697 202.383,201.924 201.351,203.403 C201.323,203.04 201.24,202.092 200.458,201.422 C199.761,200.836 198.868,200.697 198.171,200.697 C195.66,200.697 194.294,202.482 193.819,203.124 C193.68,201.534 192.508,200.697 191.253,200.697 C189.97,200.697 189.44,201.785 189.189,202.287 C188.687,203.263 188.324,204.909 188.324,204.993 C188.324,205.272 188.603,205.272 188.659,205.272 C188.938,205.272 188.966,205.244 189.133,204.63 C189.607,202.65 190.165,201.311 191.169,201.311 C191.616,201.311 192.034,201.534 192.034,202.594 C192.034,203.18 191.95,203.487 191.588,204.937 z" fill="#000000"/>
      <path d="M218.118,204.247 C218.138,204.208 218.197,203.954 218.197,203.935 C218.197,203.837 218.118,203.661 217.884,203.661 C217.494,203.661 215.873,203.817 215.385,203.856 C215.229,203.876 214.955,203.896 214.955,204.306 C214.955,204.579 215.229,204.579 215.463,204.579 C216.4,204.579 216.4,204.716 216.4,204.872 C216.4,205.009 216.361,205.126 216.322,205.301 L213.569,216.354 C213.471,216.705 213.471,216.744 213.471,216.783 C213.471,217.076 213.705,217.408 214.135,217.408 C214.35,217.408 214.721,217.31 214.936,216.9 C214.994,216.783 215.17,216.08 215.268,215.67 L215.717,213.932 C215.775,213.639 215.971,212.897 216.029,212.604 C216.224,211.862 216.224,211.843 216.615,211.218 C217.24,210.261 218.216,209.148 219.739,209.148 C220.833,209.148 220.891,210.046 220.891,210.515 C220.891,211.687 220.052,213.854 219.739,214.674 C219.524,215.221 219.446,215.397 219.446,215.729 C219.446,216.764 220.305,217.408 221.301,217.408 C223.254,217.408 224.113,214.713 224.113,214.42 C224.113,214.167 223.859,214.167 223.801,214.167 C223.527,214.167 223.508,214.284 223.43,214.499 C222.981,216.061 222.121,216.861 221.36,216.861 C220.95,216.861 220.872,216.588 220.872,216.178 C220.872,215.729 220.969,215.475 221.321,214.596 C221.555,213.991 222.356,211.921 222.356,210.827 C222.356,210.515 222.356,209.695 221.633,209.129 C221.301,208.875 220.735,208.601 219.817,208.601 C218.392,208.601 217.357,209.383 216.634,210.222 z" fill="#000000"/>
    </g>
    <g id="Layer_1">
      <path d="M310.087,355.522 C310.003,355.94 309.836,356.582 309.836,356.721 C309.836,357.223 310.227,357.474 310.645,357.474 C310.98,357.474 311.482,357.251 311.677,356.693 C311.705,356.638 312.04,355.327 312.207,354.629 L312.821,352.119 C312.988,351.505 313.156,350.891 313.295,350.25 C313.407,349.775 313.63,348.966 313.658,348.855 C314.076,347.99 315.555,345.452 318.205,345.452 C319.46,345.452 319.711,346.484 319.711,347.404 C319.711,348.102 319.516,348.883 319.293,349.72 L318.512,352.955 L317.954,355.076 C317.842,355.633 317.591,356.582 317.591,356.721 C317.591,357.223 317.982,357.474 318.4,357.474 C319.265,357.474 319.432,356.777 319.655,355.884 C320.046,354.322 321.078,350.25 321.329,349.162 C321.413,348.799 322.891,345.452 325.932,345.452 C327.131,345.452 327.438,346.4 327.438,347.404 C327.438,348.994 326.266,352.174 325.709,353.653 C325.457,354.322 325.346,354.629 325.346,355.187 C325.346,356.498 326.322,357.474 327.633,357.474 C330.255,357.474 331.288,353.402 331.288,353.179 C331.288,352.9 331.036,352.9 330.953,352.9 C330.674,352.9 330.674,352.983 330.534,353.402 C330.116,354.88 329.223,356.861 327.689,356.861 C327.215,356.861 327.02,356.582 327.02,355.94 C327.02,355.243 327.271,354.573 327.522,353.96 C328.052,352.509 329.223,349.413 329.223,347.823 C329.223,346.01 328.108,344.838 326.015,344.838 C323.923,344.838 322.501,346.065 321.468,347.544 C321.441,347.181 321.357,346.233 320.576,345.563 C319.878,344.977 318.986,344.838 318.288,344.838 C315.778,344.838 314.411,346.623 313.937,347.265 C313.797,345.675 312.626,344.838 311.37,344.838 C310.087,344.838 309.557,345.926 309.306,346.428 C308.804,347.404 308.441,349.05 308.441,349.134 C308.441,349.413 308.72,349.413 308.776,349.413 C309.055,349.413 309.083,349.385 309.25,348.771 C309.725,346.791 310.282,345.452 311.287,345.452 C311.733,345.452 312.151,345.675 312.151,346.735 C312.151,347.321 312.068,347.627 311.705,349.078 z" fill="#000000"/>
      <path d="M333.588,363.736 C333.452,364.283 333.413,364.439 332.632,364.439 C332.378,364.439 332.104,364.439 332.104,364.849 C332.104,365.064 332.28,365.142 332.378,365.142 C332.886,365.142 333.53,365.064 334.057,365.064 C334.721,365.064 335.463,365.142 336.107,365.142 C336.283,365.142 336.498,365.083 336.498,364.712 C336.498,364.439 336.225,364.439 335.99,364.439 C335.561,364.439 335.033,364.439 335.033,364.205 C335.033,364.107 335.17,363.599 335.248,363.306 C335.483,362.271 335.756,361.217 335.971,360.397 C336.205,360.787 336.81,361.549 337.982,361.549 C340.364,361.549 343,358.913 343,356.003 C343,353.719 341.419,352.742 340.071,352.742 C338.861,352.742 337.826,353.562 337.299,354.109 C336.967,352.996 335.873,352.742 335.287,352.742 C334.526,352.742 334.057,353.25 333.745,353.777 C333.354,354.441 333.042,355.613 333.042,355.73 C333.042,355.984 333.315,355.984 333.374,355.984 C333.647,355.984 333.667,355.925 333.803,355.398 C334.096,354.265 334.467,353.289 335.229,353.289 C335.736,353.289 335.873,353.719 335.873,354.246 C335.873,354.461 335.834,354.715 335.815,354.832 z M337.279,355.086 C338.412,353.582 339.388,353.289 340.013,353.289 C340.774,353.289 341.438,353.855 341.438,355.183 C341.438,355.984 341.009,357.976 340.423,359.108 C339.935,360.065 338.978,361.002 337.982,361.002 C336.596,361.002 336.244,359.499 336.244,359.303 C336.244,359.225 336.283,359.089 336.303,359.01 z" fill="#000000"/>
    </g>
    <g>
      <path d="M290.433,405.505 L304.99,377.56" fill-opacity="0" stroke="#000000" stroke-width="2"/>
      <path d="M304.99,377.56 L306.654,389.796" fill-opacity="0" stroke="#000000" stroke-width="2"/>
      <path d="M306.654,389.796 L321.21,361.851" fill-opacity="0" stroke="#000000" stroke-width="2"/>
    </g>
    <g id="Layer_1">
      <path d="M145.111,176.077 C145.111,176.049 145.111,175.77 144.748,175.77 C144.106,175.77 142.07,175.993 141.345,176.049 C141.122,176.077 140.815,176.105 140.815,176.635 C140.815,176.942 141.094,176.942 141.512,176.942 C142.851,176.942 142.879,177.193 142.879,177.416 L142.795,177.974 L139.28,191.921 C139.197,192.228 139.141,192.423 139.141,192.87 C139.141,194.46 140.368,195.436 141.679,195.436 C142.6,195.436 143.297,194.878 143.772,193.874 C144.274,192.814 144.608,191.196 144.608,191.14 C144.608,190.861 144.357,190.861 144.274,190.861 C143.995,190.861 143.967,190.973 143.883,191.363 C143.409,193.177 142.879,194.822 141.763,194.822 C140.926,194.822 140.926,193.93 140.926,193.539 C140.926,192.87 140.954,192.73 141.094,192.2 z" fill="#000000"/>
      <path d="M152.779,186.896 C152.779,186.369 152.74,186.35 152.194,186.35 C150.944,187.58 149.167,187.599 148.366,187.599 L148.366,188.302 C148.835,188.302 150.124,188.302 151.198,187.756 L151.198,197.714 C151.198,198.359 151.198,198.612 149.245,198.612 L148.503,198.612 L148.503,199.315 C148.855,199.296 151.256,199.237 151.979,199.237 C152.584,199.237 155.045,199.296 155.474,199.315 L155.474,198.612 L154.732,198.612 C152.779,198.612 152.779,198.359 152.779,197.714 z" fill="#000000"/>
    </g>
    <g id="Layer_1">
      <path d="M236.362,333.249 C236.362,333.221 236.362,332.942 235.999,332.942 C235.357,332.942 233.321,333.165 232.596,333.221 C232.373,333.249 232.066,333.277 232.066,333.807 C232.066,334.114 232.345,334.114 232.763,334.114 C234.102,334.114 234.13,334.365 234.13,334.588 L234.046,335.146 L230.531,349.093 C230.448,349.4 230.392,349.595 230.392,350.042 C230.392,351.632 231.619,352.608 232.93,352.608 C233.851,352.608 234.548,352.05 235.023,351.046 C235.525,349.986 235.859,348.368 235.859,348.312 C235.859,348.033 235.608,348.033 235.525,348.033 C235.246,348.033 235.218,348.145 235.134,348.535 C234.66,350.349 234.13,351.994 233.014,351.994 C232.177,351.994 232.177,351.102 232.177,350.711 C232.177,350.042 232.205,349.902 232.345,349.372 z" fill="#000000"/>
      <path d="M247.35,352.933 L246.686,352.933 C246.627,353.363 246.432,354.515 246.178,354.71 C246.022,354.828 244.519,354.828 244.245,354.828 L240.652,354.828 C242.703,353.012 243.386,352.465 244.558,351.547 C246.003,350.395 247.35,349.184 247.35,347.329 C247.35,344.967 245.28,343.522 242.781,343.522 C240.359,343.522 238.719,345.22 238.719,347.017 C238.719,348.013 239.559,348.11 239.754,348.11 C240.223,348.11 240.789,347.778 240.789,347.075 C240.789,346.724 240.652,346.041 239.637,346.041 C240.242,344.654 241.57,344.225 242.488,344.225 C244.44,344.225 245.456,345.748 245.456,347.329 C245.456,349.028 244.245,350.375 243.62,351.078 L238.914,355.726 C238.719,355.902 238.719,355.941 238.719,356.487 L246.764,356.487 z" fill="#000000"/>
    </g>
    <path d="M104.605,93.631 C97.92,93.631 92.5,88.211 92.5,81.526 C92.5,74.84 97.92,69.421 104.605,69.421 C111.29,69.421 116.71,74.84 116.71,81.526 C116.71,88.211 111.29,93.631 104.605,93.631 z" fill="#000000"/>
    <g>
      <path d="M119.5,82.103 L165.9,82.103" fill-opacity="0" stroke="#000000" stroke-width="3"/>
      <path d="M165.9,86.303 L177.1,82.103 L165.9,77.903 z" fill="#000000" fill-opacity="1" stroke="#000000" stroke-width="3" stroke-opacity="1"/>
    </g>
    <path d="M191.954,85.768 C192.261,86.911 193.238,87.637 194.437,87.637 C195.413,87.637 196.055,86.995 196.501,86.102 C196.976,85.098 197.338,83.396 197.338,83.341 C197.338,83.062 197.087,83.062 197.003,83.062 C196.724,83.062 196.697,83.173 196.613,83.564 C196.222,85.126 195.692,87.023 194.521,87.023 C193.935,87.023 193.656,86.66 193.656,85.74 C193.656,85.126 193.991,83.815 194.214,82.839 L194.995,79.826 C195.079,79.407 195.358,78.347 195.469,77.929 C195.609,77.287 195.888,76.227 195.888,76.06 C195.888,75.558 195.497,75.307 195.079,75.307 C194.939,75.307 194.214,75.335 193.991,76.283 C193.461,78.32 192.233,83.201 191.899,84.68 C191.871,84.791 190.755,87.023 188.719,87.023 C187.268,87.023 186.989,85.768 186.989,84.735 C186.989,83.173 187.77,80.97 188.495,79.045 C188.83,78.208 188.97,77.817 188.97,77.287 C188.97,76.032 188.077,75 186.682,75 C184.032,75 183,79.045 183,79.296 C183,79.575 183.279,79.575 183.335,79.575 C183.614,79.575 183.642,79.519 183.781,79.073 C184.478,76.646 185.538,75.614 186.598,75.614 C186.85,75.614 187.296,75.642 187.296,76.534 C187.296,77.204 186.989,78.013 186.822,78.431 C185.79,81.193 185.204,82.922 185.204,84.289 C185.204,86.939 187.128,87.637 188.635,87.637 C190.476,87.637 191.48,86.381 191.954,85.768 z" fill="#000000" id="Layer_1"/>
    <path d="M3.5,44.5 L3.5,116.5" fill-opacity="0" stroke="#000000" stroke-width="2"/>
    <path d="M378.5,44.5 L378.5,116.5" fill-opacity="0" stroke="#000000" stroke-width="2"/>
    <path d="M303.5,44.5 L303.5,116.5" fill-opacity="0" stroke="#000000" stroke-width="2"/>
    <path d="M228.5,44.5 L228.5,116.5" fill-opacity="0" stroke="#000000" stroke-width="2"/>
    <path d="M153.5,44.5 L153.5,116.5" fill-opacity="0" stroke="#000000" stroke-width="2"/>
    <path d="M78.5,44.5 L78.5,116.5" fill-opacity="0" stroke="#000000" stroke-width="2"/>
  </g>
  <g id="Layer_2" display="none">
    <g>
      <path d="M154.627,45.03 C160.15,45.03 164.627,46.771 164.627,48.919 L164.627,111.141 C164.627,113.289 160.15,115.03 154.627,115.03 L54.627,115.03 C49.104,115.03 44.627,113.289 44.627,111.141 L44.627,48.919 C44.627,46.771 49.104,45.03 54.627,45.03 L154.627,45.03 z" clip-path="url(#Clip_9)" filter="url(#Shadow_10)" fill="rgba(0,0,0,0.75)"/>
      <path d="M54.627,45.03 L154.627,45.03 C160.15,45.03 164.627,46.771 164.627,48.919 L164.627,111.141 C164.627,113.289 160.15,115.03 154.627,115.03 L54.627,115.03 C49.104,115.03 44.627,113.289 44.627,111.141 L44.627,48.919 C44.627,46.771 49.104,45.03 54.627,45.03 z" fill="url(#Gradient_3)"/>
    </g>
  </g>
</svg>
