<?xml version="1.0" encoding="UTF-8"?>
<!DOCTYPE svg PUBLIC "-//W3C//DTD SVG 1.1//EN" "http://www.w3.org/Graphics/SVG/1.1/DTD/svg11.dtd">
<svg version="1.1" xmlns="http://www.w3.org/2000/svg" xmlns:xlink="http://www.w3.org/1999/xlink" x="0" y="0" width="286" height="310" viewBox="0, 0, 286, 310">
  <g id="Layer_1">
    <g>
      <path d="M110.114,225.771 C112.149,222.348 114.178,218.921 116.216,215.5" fill-opacity="0" stroke="#000000" stroke-width="1"/>
      <path d="M107.538,224.233 L106.013,232.64 L112.69,227.309 z" fill="#000000" fill-opacity="1" stroke="#000000" stroke-width="1" stroke-opacity="1"/>
    </g>
    <path d="M140.643,176.5 C155.543,155.512 174.255,132.095 201.5,149.5" fill-opacity="0" stroke="#000000" stroke-width="1"/>
    <path d="M155.664,123.5 C175.305,133.923 195.853,143.825 212.926,158.346 C218.457,163.05 227.176,170.604 226.221,178.897 C224.475,194.068 187.991,196.566 177.5,197.5" fill-opacity="0" stroke="#000000" stroke-width="1"/>
    <g>
      <path d="M65.631,81.382 C81.715,88.948 98.032,96.018 114.156,103.5" fill-opacity="0" stroke="#000000" stroke-width="1"/>
      <path d="M66.923,78.675 L58.411,77.935 L64.338,84.089 z" fill="#000000" fill-opacity="1" stroke="#000000" stroke-width="1" stroke-opacity="1"/>
    </g>
    <path d="M93.5,173.5 L165.5,173.5 C172.127,173.5 177.5,178.872 177.5,185.5 L177.5,209.5 C177.5,216.127 172.127,221.5 165.5,221.5 L93.5,221.5 C86.873,221.5 81.5,216.127 81.5,209.5 L81.5,185.5 C81.5,178.872 86.873,173.5 93.5,173.5 z" fill-opacity="0" stroke="#000000" stroke-width="2"/>
    <path d="M93.5,89.5 L165.5,89.5 C172.127,89.5 177.5,94.873 177.5,101.5 L177.5,125.5 C177.5,132.127 172.127,137.5 165.5,137.5 L93.5,137.5 C86.873,137.5 81.5,132.127 81.5,125.5 L81.5,101.5 C81.5,94.873 86.873,89.5 93.5,89.5 z" fill-opacity="0" stroke="#000000" stroke-width="2"/>
    <g>
      <path d="M69.5,281.5 L45.5,281.5 L45.5,197.5 L45.5,113.5 L69.7,113.5" fill-opacity="0" stroke="#000000" stroke-width="2" stroke-linejoin="round"/>
      <path d="M69.7,117.1 L79.3,113.5 L69.7,109.9 z" fill="#000000" fill-opacity="1" stroke="#000000" stroke-width="2" stroke-opacity="1"/>
    </g>
    <g>
      <path d="M45.5,197.5 L69.7,197.5" fill-opacity="0" stroke="#000000" stroke-width="2"/>
      <path d="M69.7,201.1 L79.3,197.5 L69.7,193.9 z" fill="#000000" fill-opacity="1" stroke="#000000" stroke-width="2" stroke-opacity="1"/>
    </g>
    <text transform="matrix(1, 0, 0, 1, 127.768, 81.389)">
      <tspan x="-13.661" y="3.611" font-family="TimesNewRomanPSMT" font-size="12" fill="#000000">Actor</tspan>
    </text>
    <text transform="matrix(1, 0, 0, 1, 127.773, 166)">
      <tspan x="-13.664" y="4" font-family="TimesNewRomanPSMT" font-size="12" fill="#000000">Critic</tspan>
    </text>
    <text transform="matrix(1, 0, 0, 1, 23.325, 197)">
      <tspan x="-18.325" y="6" font-family="TimesNewRomanPSMT" font-size="20" fill="#000000">state</tspan>
    </text>
    <text transform="matrix(1, 0, 0, 1, 204.049, 89.406)">
      <tspan x="-24.434" y="6" font-family="TimesNewRomanPSMT" font-size="20" fill="#000000">action</tspan>
    </text>
    <text transform="matrix(1, 0, 0, 1, 162.759, 232)">
      <tspan x="-27.759" y="6" font-family="TimesNewRomanPSMT" font-size="20" fill="#000000">reward</tspan>
    </text>
    <g>
      <path d="M129.5,257.5 L129.5,233.3" fill-opacity="0" stroke="#000000" stroke-width="2"/>
      <path d="M133.1,233.3 L129.5,223.7 L125.9,233.3 z" fill="#000000" fill-opacity="1" stroke="#000000" stroke-width="2" stroke-opacity="1"/>
    </g>
    <g id="Layer_1">
      <path d="M202.914,98.809 C202.52,97.998 201.884,97.406 200.898,97.406 C198.333,97.406 195.616,100.628 195.616,103.828 C195.616,105.888 196.821,107.335 198.531,107.335 C198.969,107.335 200.065,107.247 201.38,105.691 C201.555,106.612 202.322,107.335 203.374,107.335 C204.142,107.335 204.646,106.831 204.996,106.129 C205.369,105.34 205.654,104.003 205.654,103.96 C205.654,103.74 205.457,103.74 205.391,103.74 C205.172,103.74 205.15,103.828 205.084,104.135 C204.711,105.56 204.317,106.853 203.418,106.853 C202.826,106.853 202.761,106.283 202.761,105.844 C202.761,105.362 202.805,105.187 203.046,104.223 C203.287,103.302 203.331,103.083 203.528,102.25 L204.317,99.181 C204.47,98.568 204.47,98.524 204.47,98.436 C204.47,98.064 204.207,97.844 203.835,97.844 C203.309,97.844 202.98,98.327 202.914,98.809 z M201.489,104.486 C201.38,104.88 201.38,104.924 201.051,105.296 C200.087,106.502 199.188,106.853 198.574,106.853 C197.479,106.853 197.172,105.647 197.172,104.792 C197.172,103.696 197.873,101.001 198.377,99.992 C199.057,98.699 200.043,97.888 200.92,97.888 C202.344,97.888 202.651,99.686 202.651,99.817 C202.651,99.949 202.607,100.08 202.585,100.19 z" fill="#000000"/>
      <path d="M210.098,104.323 L211.663,104.323 C211.955,104.323 212.154,104.323 212.154,103.985 C212.154,103.77 211.955,103.77 211.694,103.77 L210.236,103.77 L210.804,101.5 C210.819,101.423 210.85,101.346 210.85,101.285 C210.85,101.009 210.635,100.794 210.328,100.794 C209.945,100.794 209.715,101.055 209.607,101.453 C209.5,101.837 209.699,101.101 209.024,103.77 L207.459,103.77 C207.168,103.77 206.968,103.77 206.968,104.108 C206.968,104.323 207.152,104.323 207.429,104.323 L208.886,104.323 L207.981,107.943 C207.889,108.327 207.751,108.879 207.751,109.079 C207.751,109.984 208.518,110.536 209.392,110.536 C211.095,110.536 212.062,108.388 212.062,108.189 C212.062,107.989 211.863,107.989 211.817,107.989 C211.632,107.989 211.617,108.02 211.494,108.281 C211.065,109.247 210.282,110.107 209.438,110.107 C209.116,110.107 208.902,109.907 208.902,109.355 C208.902,109.201 208.963,108.879 208.994,108.726 z" fill="#000000"/>
    </g>
    <g id="Layer_1">
      <path d="M155.293,249.467 C155.227,249.795 155.096,250.3 155.096,250.409 C155.096,250.804 155.403,251.001 155.731,251.001 C155.994,251.001 156.389,250.826 156.542,250.387 C156.586,250.3 157.331,247.319 157.419,246.924 C157.594,246.201 157.989,244.667 158.12,244.075 C158.208,243.79 158.822,242.76 159.348,242.278 C159.523,242.124 160.159,241.554 161.101,241.554 C161.671,241.554 162,241.817 162.022,241.817 C161.364,241.927 160.882,242.453 160.882,243.023 C160.882,243.374 161.123,243.79 161.715,243.79 C162.307,243.79 162.92,243.286 162.92,242.497 C162.92,241.73 162.219,241.072 161.101,241.072 C159.677,241.072 158.712,242.146 158.296,242.76 C158.12,241.774 157.331,241.072 156.301,241.072 C155.293,241.072 154.877,241.927 154.679,242.321 C154.285,243.067 154,244.382 154,244.447 C154,244.667 154.219,244.667 154.263,244.667 C154.482,244.667 154.504,244.645 154.635,244.163 C155.008,242.606 155.446,241.554 156.235,241.554 C156.608,241.554 156.915,241.73 156.915,242.563 C156.915,243.023 156.849,243.264 156.564,244.404 z" fill="#000000"/>
      <path d="M167.025,247.989 L168.59,247.989 C168.882,247.989 169.081,247.989 169.081,247.651 C169.081,247.436 168.882,247.436 168.621,247.436 L167.163,247.436 L167.731,245.166 C167.746,245.089 167.777,245.012 167.777,244.951 C167.777,244.675 167.562,244.46 167.255,244.46 C166.872,244.46 166.642,244.721 166.534,245.12 C166.427,245.503 166.626,244.767 165.951,247.436 L164.386,247.436 C164.095,247.436 163.895,247.436 163.895,247.774 C163.895,247.989 164.08,247.989 164.356,247.989 L165.813,247.989 L164.908,251.609 C164.816,251.993 164.678,252.545 164.678,252.745 C164.678,253.65 165.445,254.202 166.32,254.202 C168.023,254.202 168.989,252.054 168.989,251.855 C168.989,251.655 168.79,251.655 168.744,251.655 C168.559,251.655 168.544,251.686 168.421,251.947 C167.992,252.913 167.209,253.773 166.366,253.773 C166.043,253.773 165.829,253.573 165.829,253.021 C165.829,252.867 165.89,252.545 165.921,252.392 z" fill="#000000"/>
    </g>
    <g id="Layer_1">
      <path d="M22.77,207.49 C22.156,207.512 21.718,207.994 21.718,208.477 C21.718,208.783 21.915,209.112 22.397,209.112 C22.879,209.112 23.405,208.74 23.405,207.885 C23.405,206.898 22.463,206 20.797,206 C17.904,206 17.093,208.235 17.093,209.2 C17.093,210.909 18.715,211.238 19.35,211.37 C20.49,211.589 21.63,211.83 21.63,213.035 C21.63,213.605 21.126,215.446 18.496,215.446 C18.189,215.446 16.501,215.446 15.997,214.285 C16.83,214.394 17.378,213.737 17.378,213.123 C17.378,212.619 17.027,212.356 16.567,212.356 C15.997,212.356 15.34,212.816 15.34,213.803 C15.34,215.052 16.589,215.929 18.474,215.929 C22.024,215.929 22.879,213.277 22.879,212.29 C22.879,211.501 22.463,210.953 22.2,210.69 C21.608,210.077 20.972,209.967 20.008,209.77 C19.219,209.594 18.342,209.441 18.342,208.455 C18.342,207.819 18.868,206.482 20.797,206.482 C21.345,206.482 22.441,206.635 22.77,207.49 z" fill="#000000"/>
      <path d="M28.248,212.916 L29.813,212.916 C30.104,212.916 30.304,212.916 30.304,212.579 C30.304,212.364 30.104,212.364 29.844,212.364 L28.386,212.364 L28.954,210.093 C28.969,210.017 29,209.94 29,209.878 C29,209.602 28.785,209.387 28.478,209.387 C28.095,209.387 27.864,209.648 27.757,210.047 C27.65,210.431 27.849,209.694 27.174,212.364 L25.609,212.364 C25.318,212.364 25.118,212.364 25.118,212.701 C25.118,212.916 25.302,212.916 25.578,212.916 L27.036,212.916 L26.131,216.537 C26.039,216.921 25.901,217.473 25.901,217.672 C25.901,218.578 26.668,219.13 27.542,219.13 C29.245,219.13 30.212,216.982 30.212,216.782 C30.212,216.583 30.012,216.583 29.966,216.583 C29.782,216.583 29.767,216.614 29.644,216.875 C29.215,217.841 28.432,218.7 27.588,218.7 C27.266,218.7 27.051,218.501 27.051,217.949 C27.051,217.795 27.113,217.473 27.143,217.319 z" fill="#000000"/>
    </g>
    <text transform="matrix(1, 0, 0, 1, 129.557, 113)">
      <tspan x="-25.557" y="6" font-family="TimesNewRomanPSMT" font-size="20" fill="#000000">Policy</tspan>
    </text>
    <text transform="matrix(1, 0, 0, 1, 129.124, 201.478)">
      <tspan x="-22.769" y="-10.478" font-family="TimesNewRomanPSMT" font-size="20" fill="#000000">Value </tspan>
      <tspan x="-35.557" y="12.522" font-family="TimesNewRomanPSMT" font-size="20" fill="#000000">Function</tspan>
    </text>
    <g>
      <path d="M81.5,257.5 L177.5,257.5 C184.127,257.5 189.5,262.872 189.5,269.5 L189.5,293.5 C189.5,300.127 184.127,305.5 177.5,305.5 L81.5,305.5 C74.873,305.5 69.5,300.127 69.5,293.5 L69.5,269.5 C69.5,262.872 74.873,257.5 81.5,257.5 z" fill-opacity="0" stroke="#000000" stroke-width="2"/>
      <text transform="matrix(1, 0, 0, 1, 129.395, 280.148)">
        <tspan x="-52.212" y="6" font-family="TimesNewRomanPSMT" font-size="20" fill="#000000">Environment</tspan>
      </text>
    </g>
    <path d="M93.5,5.5 L165.5,5.5 C172.127,5.5 177.5,10.873 177.5,17.5 L177.5,41.5 C177.5,48.127 172.127,53.5 165.5,53.5 L93.5,53.5 C86.873,53.5 81.5,48.127 81.5,41.5 L81.5,17.5 C81.5,10.873 86.873,5.5 93.5,5.5 z" fill-opacity="0" stroke="#000000" stroke-width="2"/>
    <text transform="matrix(1, 0, 0, 1, 129.557, 29)">
      <tspan x="-13.34" y="6" font-family="TimesNewRomanPSMT" font-size="20" fill="#000000">CC</tspan>
    </text>
    <g>
      <path d="M69.7,29.5 L45.5,29.5 L45.5,113.5" fill-opacity="0" stroke="#000000" stroke-width="2" stroke-linejoin="round"/>
      <path d="M69.7,33.1 L79.3,29.5 L69.7,25.9 z" fill="#000000" fill-opacity="1" stroke="#000000" stroke-width="2" stroke-opacity="1"/>
    </g>
    <g>
      <path d="M177.5,29.5 L237.5,29.5 L237.5,96.7" fill-opacity="0" stroke="#000000" stroke-width="2"/>
      <path d="M233.9,96.7 L237.5,106.3 L241.1,96.7 z" fill="#000000" fill-opacity="1" stroke="#000000" stroke-width="2" stroke-opacity="1"/>
    </g>
    <g>
      <path d="M201.3,281.5 L237.5,281.5 L237.5,118.5" fill-opacity="0" stroke="#000000" stroke-width="2" stroke-linejoin="round"/>
      <path d="M201.3,277.9 L191.7,281.5 L201.3,285.1 z" fill="#000000" fill-opacity="1" stroke="#000000" stroke-width="2" stroke-opacity="1"/>
    </g>
    <path d="M237.5,118.5 C234.738,118.5 232.5,116.261 232.5,113.5 C232.5,110.738 234.738,108.5 237.5,108.5 C240.261,108.5 242.5,110.738 242.5,113.5 C242.5,116.261 240.261,118.5 237.5,118.5 z" fill-opacity="0" stroke="#000000" stroke-width="2"/>
    <g>
      <path d="M177.5,113.5 L220.7,113.5" fill-opacity="0" stroke="#000000" stroke-width="2"/>
      <path d="M220.7,117.1 L230.3,113.5 L220.7,109.9 z" fill="#000000" fill-opacity="1" stroke="#000000" stroke-width="2" stroke-opacity="1"/>
    </g>
    <text transform="matrix(1, 0, 0, 1, 245.44, 101.86)">
      <tspan x="-2.82" y="3.398" font-family="TimesNewRomanPSMT" font-size="10" fill="#000000">+</tspan>
    </text>
    <text transform="matrix(1, 0, 0, 1, 224.592, 121.673)">
      <tspan x="-2.82" y="3.398" font-family="TimesNewRomanPSMT" font-size="10" fill="#000000">+</tspan>
    </text>
    <path d="M206.882,12.964 L208.767,12.964 C209.205,12.964 209.425,12.964 209.425,12.525 C209.425,12.284 209.205,12.284 208.833,12.284 L207.014,12.284 L207.474,9.785 C207.562,9.325 207.868,7.769 208,7.506 C208.197,7.09 208.57,6.761 209.03,6.761 C209.118,6.761 209.688,6.761 210.104,7.155 C209.14,7.243 208.921,8.01 208.921,8.339 C208.921,8.843 209.315,9.106 209.731,9.106 C210.301,9.106 210.937,8.624 210.937,7.791 C210.937,6.783 209.929,6.279 209.03,6.279 C208.285,6.279 206.904,6.673 206.247,8.843 C206.115,9.303 206.049,9.522 205.523,12.284 L204.011,12.284 C203.595,12.284 203.353,12.284 203.353,12.701 C203.353,12.964 203.551,12.964 203.967,12.964 L205.414,12.964 L203.77,21.621 C203.375,23.747 203.003,25.742 201.863,25.742 C201.775,25.742 201.227,25.742 200.811,25.347 C201.819,25.281 202.016,24.492 202.016,24.163 C202.016,23.659 201.622,23.396 201.205,23.396 C200.636,23.396 200,23.879 200,24.711 C200,25.698 200.964,26.224 201.863,26.224 C203.068,26.224 203.945,24.931 204.34,24.098 C205.041,22.717 205.545,20.065 205.567,19.911 z" fill="#000000" id="Layer_1"/>
    <path d="M220.65,277.081 C220.891,277.979 221.659,278.549 222.601,278.549 C223.368,278.549 223.872,278.045 224.223,277.344 C224.596,276.555 224.88,275.218 224.88,275.174 C224.88,274.955 224.683,274.955 224.617,274.955 C224.398,274.955 224.376,275.042 224.311,275.349 C224.004,276.577 223.587,278.067 222.667,278.067 C222.206,278.067 221.987,277.782 221.987,277.059 C221.987,276.577 222.25,275.546 222.426,274.779 L223.039,272.412 C223.105,272.083 223.324,271.25 223.412,270.922 C223.522,270.418 223.741,269.585 223.741,269.453 C223.741,269.059 223.434,268.861 223.105,268.861 C222.996,268.861 222.426,268.883 222.25,269.629 C221.834,271.229 220.869,275.064 220.606,276.226 C220.585,276.313 219.708,278.067 218.108,278.067 C216.968,278.067 216.749,277.081 216.749,276.27 C216.749,275.042 217.363,273.311 217.933,271.798 C218.196,271.141 218.305,270.834 218.305,270.418 C218.305,269.431 217.604,268.62 216.508,268.62 C214.426,268.62 213.615,271.798 213.615,271.996 C213.615,272.215 213.834,272.215 213.878,272.215 C214.097,272.215 214.119,272.171 214.228,271.82 C214.776,269.914 215.609,269.103 216.442,269.103 C216.639,269.103 216.99,269.124 216.99,269.826 C216.99,270.352 216.749,270.987 216.617,271.316 C215.807,273.486 215.346,274.845 215.346,275.919 C215.346,278.001 216.859,278.549 218.042,278.549 C219.489,278.549 220.278,277.563 220.65,277.081 z" fill="#000000" id="Layer_1"/>
  </g>
</svg>
