<?xml version="1.0" encoding="UTF-8"?>
<!DOCTYPE svg PUBLIC "-//W3C//DTD SVG 1.1//EN" "http://www.w3.org/Graphics/SVG/1.1/DTD/svg11.dtd">
<svg version="1.1" xmlns="http://www.w3.org/2000/svg" xmlns:xlink="http://www.w3.org/1999/xlink" x="0" y="0" width="278" height="322" viewBox="0, 0, 278, 322">
  <g id="Layer_1">
    <g>
      <path d="M108.114,237.771 C110.149,234.348 112.178,230.921 114.216,227.5" fill-opacity="0" stroke="#000000" stroke-width="1"/>
      <path d="M105.538,236.233 L104.013,244.64 L110.69,239.309 z" fill="#000000" fill-opacity="1" stroke="#000000" stroke-width="1" stroke-opacity="1"/>
    </g>
    <path d="M138.643,188.5 C153.543,167.512 172.255,144.095 199.5,161.5" fill-opacity="0" stroke="#000000" stroke-width="1"/>
    <path d="M153.664,135.5 C173.305,145.923 193.853,155.825 210.926,170.346 C216.457,175.05 225.176,182.604 224.221,190.897 C222.475,206.068 185.991,208.567 175.5,209.5" fill-opacity="0" stroke="#000000" stroke-width="1"/>
    <g>
      <path d="M63.631,93.382 C79.715,100.948 96.032,108.018 112.156,115.5" fill-opacity="0" stroke="#000000" stroke-width="1"/>
      <path d="M64.923,90.675 L56.411,89.935 L62.338,96.089 z" fill="#000000" fill-opacity="1" stroke="#000000" stroke-width="1" stroke-opacity="1"/>
    </g>
    <path d="M91.5,185.5 L163.5,185.5 C170.127,185.5 175.5,190.872 175.5,197.5 L175.5,221.5 C175.5,228.127 170.127,233.5 163.5,233.5 L91.5,233.5 C84.873,233.5 79.5,228.127 79.5,221.5 L79.5,197.5 C79.5,190.872 84.873,185.5 91.5,185.5 z" fill-opacity="0" stroke="#000000" stroke-width="2"/>
    <path d="M91.5,101.5 L163.5,101.5 C170.127,101.5 175.5,106.873 175.5,113.5 L175.5,137.5 C175.5,144.127 170.127,149.5 163.5,149.5 L91.5,149.5 C84.873,149.5 79.5,144.127 79.5,137.5 L79.5,113.5 C79.5,106.873 84.873,101.5 91.5,101.5 z" fill-opacity="0" stroke="#000000" stroke-width="2"/>
    <g>
      <path d="M67.5,293.5 L43.5,293.5 L43.5,209.5 L43.5,125.5 L67.7,125.5" fill-opacity="0" stroke="#000000" stroke-width="2" stroke-linejoin="round"/>
      <path d="M67.7,129.1 L77.3,125.5 L67.7,121.9 z" fill="#000000" fill-opacity="1" stroke="#000000" stroke-width="2" stroke-opacity="1"/>
    </g>
    <g>
      <path d="M43.5,209.5 L67.7,209.5" fill-opacity="0" stroke="#000000" stroke-width="2"/>
      <path d="M67.7,213.1 L77.3,209.5 L67.7,205.9 z" fill="#000000" fill-opacity="1" stroke="#000000" stroke-width="2" stroke-opacity="1"/>
    </g>
    <text transform="matrix(1, 0, 0, 1, 125.768, 93.389)">
      <tspan x="-13.661" y="3.611" font-family="TimesNewRomanPSMT" font-size="12" fill="#000000">Actor</tspan>
    </text>
    <text transform="matrix(1, 0, 0, 1, 125.773, 178)">
      <tspan x="-13.664" y="4" font-family="TimesNewRomanPSMT" font-size="12" fill="#000000">Critic</tspan>
    </text>
    <text transform="matrix(1, 0, 0, 1, 21.325, 209)">
      <tspan x="-18.325" y="6" font-family="TimesNewRomanPSMT" font-size="20" fill="#000000">state</tspan>
    </text>
    <text transform="matrix(1, 0, 0, 1, 160.759, 244)">
      <tspan x="-27.759" y="6" font-family="TimesNewRomanPSMT" font-size="20" fill="#000000">reward</tspan>
    </text>
    <g>
      <path d="M127.5,269.5 L127.5,245.3" fill-opacity="0" stroke="#000000" stroke-width="2"/>
      <path d="M131.1,245.3 L127.5,235.7 L123.9,245.3 z" fill="#000000" fill-opacity="1" stroke="#000000" stroke-width="2" stroke-opacity="1"/>
    </g>
    <g id="Layer_1">
      <path d="M194.685,79.053 C194.291,78.242 193.655,77.65 192.669,77.65 C190.104,77.65 187.387,80.872 187.387,84.072 C187.387,86.132 188.592,87.579 190.302,87.579 C190.74,87.579 191.836,87.491 193.151,85.935 C193.326,86.856 194.093,87.579 195.146,87.579 C195.913,87.579 196.417,87.075 196.767,86.373 C197.14,85.584 197.425,84.247 197.425,84.203 C197.425,83.984 197.228,83.984 197.162,83.984 C196.943,83.984 196.921,84.072 196.855,84.379 C196.483,85.803 196.088,87.097 195.189,87.097 C194.598,87.097 194.532,86.527 194.532,86.088 C194.532,85.606 194.576,85.431 194.817,84.466 C195.058,83.546 195.102,83.327 195.299,82.494 L196.088,79.425 C196.241,78.812 196.241,78.768 196.241,78.68 C196.241,78.308 195.978,78.088 195.606,78.088 C195.08,78.088 194.751,78.571 194.685,79.053 z M193.261,84.729 C193.151,85.124 193.151,85.168 192.822,85.54 C191.858,86.746 190.959,87.097 190.346,87.097 C189.25,87.097 188.943,85.891 188.943,85.036 C188.943,83.94 189.644,81.245 190.148,80.236 C190.828,78.943 191.814,78.132 192.691,78.132 C194.115,78.132 194.422,79.93 194.422,80.061 C194.422,80.193 194.378,80.324 194.357,80.434 z" fill="#000000"/>
      <path d="M201.869,84.566 L203.434,84.566 C203.726,84.566 203.925,84.566 203.925,84.229 C203.925,84.014 203.726,84.014 203.465,84.014 L202.007,84.014 L202.575,81.743 C202.59,81.667 202.621,81.59 202.621,81.529 C202.621,81.253 202.406,81.038 202.1,81.038 C201.716,81.038 201.486,81.299 201.378,81.697 C201.271,82.081 201.47,81.345 200.795,84.014 L199.23,84.014 C198.939,84.014 198.74,84.014 198.74,84.352 C198.74,84.566 198.924,84.566 199.2,84.566 L200.657,84.566 L199.752,88.187 C199.66,88.571 199.522,89.123 199.522,89.323 C199.522,90.228 200.289,90.78 201.164,90.78 C202.867,90.78 203.833,88.632 203.833,88.433 C203.833,88.233 203.634,88.233 203.588,88.233 C203.404,88.233 203.388,88.264 203.266,88.525 C202.836,89.491 202.053,90.351 201.21,90.351 C200.887,90.351 200.673,90.151 200.673,89.599 C200.673,89.445 200.734,89.123 200.765,88.97 z" fill="#000000"/>
    </g>
    <g id="Layer_1">
      <path d="M153.293,261.467 C153.227,261.795 153.096,262.3 153.096,262.409 C153.096,262.804 153.403,263.001 153.731,263.001 C153.994,263.001 154.389,262.826 154.542,262.387 C154.586,262.3 155.331,259.319 155.419,258.924 C155.594,258.201 155.989,256.667 156.12,256.075 C156.208,255.79 156.822,254.76 157.348,254.278 C157.523,254.124 158.159,253.554 159.101,253.554 C159.671,253.554 160,253.817 160.022,253.817 C159.364,253.927 158.882,254.453 158.882,255.023 C158.882,255.374 159.123,255.79 159.715,255.79 C160.307,255.79 160.92,255.286 160.92,254.497 C160.92,253.73 160.219,253.072 159.101,253.072 C157.677,253.072 156.712,254.146 156.296,254.76 C156.12,253.774 155.331,253.072 154.301,253.072 C153.293,253.072 152.877,253.927 152.679,254.321 C152.285,255.067 152,256.382 152,256.448 C152,256.667 152.219,256.667 152.263,256.667 C152.482,256.667 152.504,256.645 152.635,256.163 C153.008,254.606 153.446,253.554 154.235,253.554 C154.608,253.554 154.915,253.73 154.915,254.563 C154.915,255.023 154.849,255.264 154.564,256.404 z" fill="#000000"/>
      <path d="M165.025,259.989 L166.59,259.989 C166.882,259.989 167.081,259.989 167.081,259.651 C167.081,259.436 166.882,259.436 166.621,259.436 L165.163,259.436 L165.731,257.166 C165.746,257.089 165.777,257.012 165.777,256.951 C165.777,256.675 165.562,256.46 165.255,256.46 C164.872,256.46 164.642,256.721 164.534,257.12 C164.427,257.503 164.626,256.767 163.951,259.436 L162.386,259.436 C162.095,259.436 161.895,259.436 161.895,259.774 C161.895,259.989 162.08,259.989 162.356,259.989 L163.813,259.989 L162.908,263.609 C162.816,263.993 162.678,264.545 162.678,264.745 C162.678,265.65 163.445,266.202 164.32,266.202 C166.023,266.202 166.989,264.054 166.989,263.855 C166.989,263.655 166.79,263.655 166.744,263.655 C166.559,263.655 166.544,263.686 166.421,263.947 C165.992,264.913 165.209,265.773 164.366,265.773 C164.043,265.773 163.829,265.573 163.829,265.021 C163.829,264.867 163.89,264.545 163.921,264.392 z" fill="#000000"/>
    </g>
    <g id="Layer_1">
      <path d="M20.77,219.49 C20.156,219.512 19.718,219.994 19.718,220.477 C19.718,220.783 19.915,221.112 20.397,221.112 C20.879,221.112 21.405,220.74 21.405,219.885 C21.405,218.898 20.463,218 18.797,218 C15.904,218 15.093,220.235 15.093,221.2 C15.093,222.909 16.715,223.238 17.35,223.37 C18.49,223.589 19.63,223.83 19.63,225.035 C19.63,225.605 19.126,227.446 16.496,227.446 C16.189,227.446 14.501,227.446 13.997,226.285 C14.83,226.394 15.378,225.737 15.378,225.123 C15.378,224.619 15.027,224.356 14.567,224.356 C13.997,224.356 13.34,224.816 13.34,225.803 C13.34,227.052 14.589,227.929 16.474,227.929 C20.024,227.929 20.879,225.277 20.879,224.29 C20.879,223.501 20.463,222.953 20.2,222.69 C19.608,222.077 18.972,221.967 18.008,221.77 C17.219,221.594 16.342,221.441 16.342,220.455 C16.342,219.819 16.868,218.482 18.797,218.482 C19.345,218.482 20.441,218.635 20.77,219.49 z" fill="#000000"/>
      <path d="M26.248,224.916 L27.813,224.916 C28.104,224.916 28.304,224.916 28.304,224.579 C28.304,224.364 28.104,224.364 27.844,224.364 L26.386,224.364 L26.954,222.093 C26.969,222.017 27,221.94 27,221.878 C27,221.602 26.785,221.387 26.478,221.387 C26.095,221.387 25.864,221.648 25.757,222.047 C25.65,222.431 25.849,221.694 25.174,224.364 L23.609,224.364 C23.318,224.364 23.118,224.364 23.118,224.701 C23.118,224.916 23.302,224.916 23.578,224.916 L25.036,224.916 L24.131,228.537 C24.039,228.921 23.901,229.473 23.901,229.672 C23.901,230.578 24.668,231.13 25.542,231.13 C27.245,231.13 28.212,228.982 28.212,228.782 C28.212,228.583 28.012,228.583 27.966,228.583 C27.782,228.583 27.767,228.614 27.644,228.875 C27.215,229.841 26.432,230.7 25.588,230.7 C25.266,230.7 25.051,230.501 25.051,229.949 C25.051,229.795 25.113,229.473 25.143,229.319 z" fill="#000000"/>
    </g>
    <text transform="matrix(1, 0, 0, 1, 127.557, 125)">
      <tspan x="-25.557" y="6" font-family="TimesNewRomanPSMT" font-size="20" fill="#000000">Policy</tspan>
    </text>
    <text transform="matrix(1, 0, 0, 1, 127.124, 213.478)">
      <tspan x="-22.769" y="-10.478" font-family="TimesNewRomanPSMT" font-size="20" fill="#000000">Value </tspan>
      <tspan x="-35.557" y="12.522" font-family="TimesNewRomanPSMT" font-size="20" fill="#000000">Function</tspan>
    </text>
    <g>
      <path d="M79.5,269.5 L175.5,269.5 C182.127,269.5 187.5,274.872 187.5,281.5 L187.5,305.5 C187.5,312.127 182.127,317.5 175.5,317.5 L79.5,317.5 C72.873,317.5 67.5,312.127 67.5,305.5 L67.5,281.5 C67.5,274.872 72.873,269.5 79.5,269.5 z" fill-opacity="0" stroke="#000000" stroke-width="2"/>
      <text transform="matrix(1, 0, 0, 1, 127.395, 292.148)">
        <tspan x="-52.212" y="6" font-family="TimesNewRomanPSMT" font-size="20" fill="#000000">Environment</tspan>
      </text>
    </g>
    <path d="M91.5,17.5 L163.5,17.5 C170.127,17.5 175.5,22.873 175.5,29.5 L175.5,53.5 C175.5,60.127 170.127,65.5 163.5,65.5 L91.5,65.5 C84.873,65.5 79.5,60.127 79.5,53.5 L79.5,29.5 C79.5,22.873 84.873,17.5 91.5,17.5 z" fill-opacity="0" stroke="#000000" stroke-width="2"/>
    <text transform="matrix(1, 0, 0, 1, 127.557, 41)">
      <tspan x="-13.34" y="6" font-family="TimesNewRomanPSMT" font-size="20" fill="#000000">CC</tspan>
    </text>
    <g>
      <path d="M67.7,41.5 L43.5,41.5 L43.5,125.5" fill-opacity="0" stroke="#000000" stroke-width="2" stroke-linejoin="round"/>
      <path d="M67.7,45.1 L77.3,41.5 L67.7,37.9 z" fill="#000000" fill-opacity="1" stroke="#000000" stroke-width="2" stroke-opacity="1"/>
    </g>
    <g>
      <path d="M175.5,41.5 L235.5,41.5 L235.5,130.5 L235.5,293.5 L199.3,293.5" fill-opacity="0" stroke="#000000" stroke-width="2"/>
      <path d="M199.3,289.9 L189.7,293.5 L199.3,297.1 z" fill="#000000" fill-opacity="1" stroke="#000000" stroke-width="2" stroke-opacity="1"/>
    </g>
    <path d="M202.158,36.196 C202.399,37.095 203.166,37.665 204.109,37.665 C204.876,37.665 205.38,37.161 205.73,36.459 C206.103,35.67 206.388,34.333 206.388,34.29 C206.388,34.07 206.191,34.07 206.125,34.07 C205.906,34.07 205.884,34.158 205.818,34.465 C205.511,35.692 205.095,37.183 204.174,37.183 C203.714,37.183 203.495,36.898 203.495,36.174 C203.495,35.692 203.758,34.662 203.933,33.895 L204.547,31.528 C204.613,31.199 204.832,30.366 204.92,30.038 C205.029,29.533 205.248,28.701 205.248,28.569 C205.248,28.175 204.941,27.977 204.613,27.977 C204.503,27.977 203.933,27.999 203.758,28.744 C203.341,30.344 202.377,34.18 202.114,35.342 C202.092,35.429 201.215,37.183 199.615,37.183 C198.476,37.183 198.257,36.196 198.257,35.385 C198.257,34.158 198.87,32.427 199.44,30.914 C199.703,30.257 199.813,29.95 199.813,29.533 C199.813,28.547 199.111,27.736 198.015,27.736 C195.933,27.736 195.122,30.914 195.122,31.112 C195.122,31.331 195.341,31.331 195.385,31.331 C195.604,31.331 195.626,31.287 195.736,30.936 C196.284,29.029 197.117,28.218 197.95,28.218 C198.147,28.218 198.498,28.24 198.498,28.942 C198.498,29.468 198.257,30.103 198.125,30.432 C197.314,32.602 196.854,33.961 196.854,35.035 C196.854,37.117 198.366,37.665 199.55,37.665 C200.996,37.665 201.785,36.679 202.158,36.196 z" fill="#000000" id="Layer_1"/>
    <path d="M206.779,82.994 C208.803,84.518 207.393,83.436 210.926,86.346 C216.457,91.05 225.176,98.604 224.221,106.897 C222.476,122.068 185.992,124.567 175.5,125.5" fill-opacity="0" stroke="#000000" stroke-width="1"/>
    <path d="M153.664,51.5 C161.783,55.859 170.073,59.907 178.056,64.515" fill-opacity="0" stroke="#000000" stroke-width="1"/>
    <g>
      <path d="M63.631,9.382 C79.716,16.948 96.032,24.018 112.157,31.5" fill-opacity="0" stroke="#000000" stroke-width="1"/>
      <path d="M64.923,6.675 L56.411,5.935 L62.338,12.089 z" fill="#000000" fill-opacity="1" stroke="#000000" stroke-width="1" stroke-opacity="1"/>
    </g>
    <text transform="matrix(1, 0, 0, 1, 195.82, 69.65)">
      <tspan x="-24.434" y="6" font-family="TimesNewRomanPSMT" font-size="20" fill="#000000">action</tspan>
    </text>
  </g>
</svg>
