<?xml version="1.0" encoding="UTF-8"?>
<!DOCTYPE svg PUBLIC "-//W3C//DTD SVG 1.1//EN" "http://www.w3.org/Graphics/SVG/1.1/DTD/svg11.dtd">
<svg version="1.1" xmlns="http://www.w3.org/2000/svg" xmlns:xlink="http://www.w3.org/1999/xlink" x="0" y="0" width="395" height="72" viewBox="0, 0, 395, 72">
  <g id="Layer_1">
    <g>
      <path d="M25.5,21.5 L58.5,21.5" fill-opacity="0" stroke="#000000" stroke-width="1"/>
      <path d="M58.5,24.5 L66.5,21.5 L58.5,18.5 z" fill="#000000" fill-opacity="1" stroke="#000000" stroke-width="1" stroke-opacity="1"/>
    </g>
    <text transform="matrix(1, 0, 0, 1, 92.381, 21)">
      <tspan x="-17.89" y="9" font-family="TimesNewRomanPSMT" font-size="28" fill="#000000">RL</tspan>
    </text>
    <g>
      <path d="M218.5,21.5 L264.5,21.5" fill-opacity="0" stroke="#000000" stroke-width="1"/>
      <path d="M264.5,24.5 L272.5,21.5 L264.5,18.5 z" fill="#000000" fill-opacity="1" stroke="#000000" stroke-width="1" stroke-opacity="1"/>
    </g>
    <text transform="matrix(1, 0, 0, 1, 308.555, 21)">
      <tspan x="-28.779" y="9" font-family="TimesNewRomanPSMT" font-size="28" fill="#000000">Plant</tspan>
    </text>
    <g>
      <path d="M345.316,21.5 L372.316,21.5" fill-opacity="0" stroke="#000000" stroke-width="1"/>
      <path d="M372.316,24.5 L380.316,21.5 L372.316,18.5 z" fill="#000000" fill-opacity="1" stroke="#000000" stroke-width="1" stroke-opacity="1"/>
    </g>
    <g>
      <path d="M357.5,21.5 L357.5,69.5 L194.5,69.5 L194.5,48.5" fill-opacity="0" stroke="#000000" stroke-width="1" stroke-linejoin="round"/>
      <path d="M197.5,48.5 L194.5,40.5 L191.5,48.5 z" fill="#000000" fill-opacity="1" stroke="#000000" stroke-width="1" stroke-opacity="1"/>
    </g>
    <path d="M79.5,3.5 L103.5,3.5 C110.127,3.5 115.5,8.873 115.5,15.5 L115.5,27.5 C115.5,34.127 110.127,39.5 103.5,39.5 L79.5,39.5 C72.873,39.5 67.5,34.127 67.5,27.5 L67.5,15.5 C67.5,8.873 72.873,3.5 79.5,3.5 z" fill-opacity="0" stroke="#000000" stroke-width="1"/>
    <path d="M285.316,3.5 L333.316,3.5 C339.944,3.5 345.316,8.873 345.316,15.5 L345.316,27.5 C345.316,34.127 339.944,39.5 333.316,39.5 L285.316,39.5 C278.689,39.5 273.316,34.127 273.316,27.5 L273.316,15.5 C273.316,8.873 278.689,3.5 285.316,3.5 z" fill-opacity="0" stroke="#000000" stroke-width="1"/>
    <path d="M390.641,17.271 C389.918,17.556 389.721,18.214 389.721,18.521 C389.721,19.09 390.181,19.419 390.663,19.419 C391.189,19.419 392,18.981 392,17.929 C392,16.767 390.838,16 388.866,16 C388.23,16 387.003,16.044 385.995,16.811 C385.008,17.556 384.658,18.827 384.658,19.375 C384.658,20.033 384.964,20.647 385.447,21.041 C386.06,21.523 386.433,21.589 387.923,21.874 C388.581,21.984 389.896,22.225 389.896,23.211 C389.896,23.299 389.896,25.293 386.63,25.293 C385.556,25.293 384.745,25.074 384.263,24.723 C385.008,24.504 385.469,23.868 385.469,23.211 C385.469,22.422 384.833,22.203 384.395,22.203 C383.649,22.203 382.816,22.816 382.816,23.912 C382.816,25.337 384.351,26.082 386.586,26.082 C391.584,26.082 391.584,22.334 391.584,22.312 C391.584,21.567 391.211,20.975 390.707,20.537 C390.027,19.945 389.195,19.792 388.427,19.66 C387.222,19.441 386.367,19.288 386.367,18.477 C386.367,18.433 386.367,16.789 388.822,16.789 C389.26,16.789 390.049,16.833 390.641,17.271 z" fill="#000000" id="Layer_1"/>
    <text transform="matrix(1, 0, 0, 1, 195.381, 21.5)">
      <tspan x="-18.676" y="8.5" font-family="TimesNewRomanPSMT" font-size="28" fill="#000000">CC</tspan>
    </text>
    <path d="M182.5,3.5 L206.5,3.5 C213.127,3.5 218.5,8.873 218.5,15.5 L218.5,27.5 C218.5,34.127 213.127,39.5 206.5,39.5 L182.5,39.5 C175.873,39.5 170.5,34.127 170.5,27.5 L170.5,15.5 C170.5,8.873 175.873,3.5 182.5,3.5 z" fill-opacity="0" stroke="#000000" stroke-width="1"/>
    <g>
      <path d="M115.5,21.5 L161.5,21.5" fill-opacity="0" stroke="#000000" stroke-width="1"/>
      <path d="M161.5,24.5 L169.5,21.5 L161.5,18.5 z" fill="#000000" fill-opacity="1" stroke="#000000" stroke-width="1" stroke-opacity="1"/>
    </g>
    <g id="Layer_1">
      <path d="M140.675,8.959 C140.806,8.411 141.025,7.534 141.025,7.337 C141.025,6.636 140.455,6.373 139.995,6.373 C139.579,6.373 139.14,6.592 138.877,6.921 C138.549,6.57 137.825,6 136.554,6 C132.74,6 130.373,9.463 130.373,12.466 C130.373,15.162 132.39,16.082 134.209,16.082 C135.765,16.082 136.905,15.227 137.255,14.899 C138.088,16.082 139.535,16.082 139.776,16.082 C140.587,16.082 141.222,15.622 141.683,14.833 C142.231,13.956 142.516,12.773 142.516,12.663 C142.516,12.356 142.187,12.356 141.99,12.356 C141.748,12.356 141.661,12.356 141.551,12.466 C141.507,12.51 141.507,12.553 141.376,13.101 C140.938,14.855 140.433,15.293 139.885,15.293 C139.644,15.293 139.381,15.205 139.381,14.482 C139.381,14.11 139.469,13.759 139.688,12.882 C139.842,12.268 140.061,11.392 140.17,10.91 z M137.036,13.868 C136.401,14.614 135.37,15.293 134.318,15.293 C132.959,15.293 132.85,14.11 132.85,13.627 C132.85,12.488 133.595,9.792 133.946,8.937 C134.625,7.337 135.699,6.789 136.598,6.789 C137.891,6.789 138.417,7.819 138.417,8.06 L138.373,8.367 z" fill="#000000"/>
      <path d="M147.032,13.136 L148.597,13.136 C148.889,13.136 149.088,13.136 149.088,12.798 C149.088,12.583 148.889,12.583 148.628,12.583 L147.17,12.583 L147.738,10.313 C147.753,10.236 147.784,10.159 147.784,10.098 C147.784,9.822 147.569,9.607 147.262,9.607 C146.879,9.607 146.649,9.868 146.541,10.267 C146.434,10.65 146.633,9.914 145.958,12.583 L144.393,12.583 C144.102,12.583 143.902,12.583 143.902,12.921 C143.902,13.136 144.086,13.136 144.363,13.136 L145.82,13.136 L144.915,16.756 C144.823,17.14 144.685,17.692 144.685,17.892 C144.685,18.797 145.452,19.349 146.326,19.349 C148.029,19.349 148.996,17.201 148.996,17.002 C148.996,16.802 148.796,16.802 148.75,16.802 C148.566,16.802 148.551,16.833 148.428,17.094 C147.999,18.06 147.216,18.92 146.372,18.92 C146.05,18.92 145.835,18.72 145.835,18.168 C145.835,18.014 145.897,17.692 145.927,17.539 z" fill="#000000"/>
    </g>
    <g>
      <path d="M194.5,69.5 L91.5,69.5 L91.5,48.5" fill-opacity="0" stroke="#000000" stroke-width="1"/>
      <path d="M94.5,48.5 L91.5,40.5 L88.5,48.5 z" fill="#000000" fill-opacity="1" stroke="#000000" stroke-width="1" stroke-opacity="1"/>
    </g>
    <path d="M243.036,16.46 C243.277,17.359 244.044,17.929 244.986,17.929 C245.753,17.929 246.257,17.425 246.608,16.723 C246.981,15.934 247.266,14.597 247.266,14.553 C247.266,14.334 247.068,14.334 247.003,14.334 C246.784,14.334 246.762,14.422 246.696,14.729 C246.389,15.956 245.973,17.447 245.052,17.447 C244.592,17.447 244.373,17.162 244.373,16.438 C244.373,15.956 244.636,14.926 244.811,14.159 L245.425,11.792 C245.49,11.463 245.71,10.63 245.797,10.301 C245.907,9.797 246.126,8.964 246.126,8.833 C246.126,8.438 245.819,8.241 245.49,8.241 C245.381,8.241 244.811,8.263 244.636,9.008 C244.219,10.608 243.255,14.444 242.992,15.605 C242.97,15.693 242.093,17.447 240.493,17.447 C239.353,17.447 239.134,16.46 239.134,15.649 C239.134,14.422 239.748,12.69 240.318,11.178 C240.581,10.521 240.69,10.214 240.69,9.797 C240.69,8.811 239.989,8 238.893,8 C236.811,8 236,11.178 236,11.375 C236,11.595 236.219,11.595 236.263,11.595 C236.482,11.595 236.504,11.551 236.614,11.2 C237.162,9.293 237.995,8.482 238.827,8.482 C239.025,8.482 239.375,8.504 239.375,9.205 C239.375,9.731 239.134,10.367 239.003,10.696 C238.192,12.866 237.732,14.225 237.732,15.299 C237.732,17.381 239.244,17.929 240.427,17.929 C241.874,17.929 242.663,16.942 243.036,16.46 z" fill="#000000" id="Layer_1"/>
    <g id="Layer_1">
      <path d="M10.825,16.271 C10.101,16.556 9.904,17.214 9.904,17.521 C9.904,18.09 10.364,18.419 10.847,18.419 C11.373,18.419 12.184,17.981 12.184,16.929 C12.184,15.767 11.022,15 9.049,15 C8.414,15 7.186,15.044 6.178,15.811 C5.192,16.556 4.841,17.827 4.841,18.375 C4.841,19.033 5.148,19.647 5.63,20.041 C6.244,20.523 6.616,20.589 8.107,20.874 C8.764,20.984 10.079,21.225 10.079,22.211 C10.079,22.299 10.079,24.293 6.814,24.293 C5.74,24.293 4.929,24.074 4.447,23.723 C5.192,23.504 5.652,22.868 5.652,22.211 C5.652,21.422 5.016,21.203 4.578,21.203 C3.833,21.203 3,21.816 3,22.912 C3,24.337 4.534,25.082 6.77,25.082 C11.767,25.082 11.767,21.334 11.767,21.312 C11.767,20.567 11.394,19.975 10.89,19.537 C10.211,18.945 9.378,18.792 8.611,18.66 C7.405,18.441 6.551,18.288 6.551,17.477 C6.551,17.433 6.551,15.789 9.005,15.789 C9.444,15.789 10.233,15.833 10.825,16.271 z" fill="#000000"/>
      <path d="M22.156,18.008 C22.171,17.978 22.217,17.778 22.217,17.763 C22.217,17.686 22.156,17.548 21.972,17.548 C21.665,17.548 20.391,17.671 20.008,17.702 C19.885,17.717 19.67,17.732 19.67,18.055 C19.67,18.269 19.885,18.269 20.069,18.269 C20.806,18.269 20.806,18.377 20.806,18.499 C20.806,18.607 20.775,18.699 20.744,18.837 L19.87,22.335 C19.548,21.829 19.026,21.43 18.29,21.43 C16.326,21.43 14.331,23.593 14.331,25.802 C14.331,27.291 15.328,28.349 16.648,28.349 C17.476,28.349 18.213,27.874 18.826,27.275 C19.118,28.196 20.008,28.349 20.407,28.349 C20.959,28.349 21.343,28.012 21.619,27.536 C21.956,26.938 22.156,26.063 22.156,26.002 C22.156,25.802 21.956,25.802 21.91,25.802 C21.696,25.802 21.68,25.864 21.573,26.278 C21.389,27.014 21.097,27.92 20.453,27.92 C20.054,27.92 19.946,27.582 19.946,27.168 C19.946,26.876 19.977,26.738 20.023,26.539 z M18.888,26.278 C18.78,26.708 18.443,27.014 18.105,27.306 C17.967,27.429 17.354,27.92 16.694,27.92 C16.126,27.92 15.574,27.521 15.574,26.431 C15.574,25.618 16.019,23.931 16.372,23.317 C17.077,22.09 17.86,21.859 18.29,21.859 C19.363,21.859 19.655,23.025 19.655,23.194 C19.655,23.256 19.624,23.363 19.609,23.409 z" fill="#000000"/>
    </g>
  </g>
</svg>
