<?xml version="1.0" encoding="UTF-8"?>
<!DOCTYPE svg PUBLIC "-//W3C//DTD SVG 1.1//EN" "http://www.w3.org/Graphics/SVG/1.1/DTD/svg11.dtd">
<svg version="1.1" xmlns="http://www.w3.org/2000/svg" xmlns:xlink="http://www.w3.org/1999/xlink" x="0" y="0" width="305" height="68" viewBox="0, 0, 305, 68">
  <g id="Layer_1">
    <g>
      <path d="M23.5,19.5 L56.5,19.5" fill-opacity="0" stroke="#000000" stroke-width="1"/>
      <path d="M56.5,22.5 L64.5,19.5 L56.5,16.5 z" fill="#000000" fill-opacity="1" stroke="#000000" stroke-width="1" stroke-opacity="1"/>
    </g>
    <text transform="matrix(1, 0, 0, 1, 90.381, 19)">
      <tspan x="-17.89" y="9" font-family="TimesNewRomanPSMT" font-size="28" fill="#000000">RL</tspan>
    </text>
    <g>
      <path d="M113.684,19.5 L176.684,19.5" fill-opacity="0" stroke="#000000" stroke-width="1"/>
      <path d="M176.684,22.5 L184.684,19.5 L176.684,16.5 z" fill="#000000" fill-opacity="1" stroke="#000000" stroke-width="1" stroke-opacity="1"/>
    </g>
    <text transform="matrix(1, 0, 0, 1, 220.739, 19)">
      <tspan x="-28.779" y="9" font-family="TimesNewRomanPSMT" font-size="28" fill="#000000">Plant</tspan>
    </text>
    <g>
      <path d="M257.5,19.5 L284.5,19.5" fill-opacity="0" stroke="#000000" stroke-width="1"/>
      <path d="M284.5,22.5 L292.5,19.5 L284.5,16.5 z" fill="#000000" fill-opacity="1" stroke="#000000" stroke-width="1" stroke-opacity="1"/>
    </g>
    <g>
      <path d="M269.5,19.5 L269.5,67.5 L89.5,67.5 L89.5,46.5" fill-opacity="0" stroke="#000000" stroke-width="1" stroke-linejoin="round"/>
      <path d="M92.5,46.5 L89.5,38.5 L86.5,46.5 z" fill="#000000" fill-opacity="1" stroke="#000000" stroke-width="1" stroke-opacity="1"/>
    </g>
    <path d="M77.5,1.5 L101.5,1.5 C108.127,1.5 113.5,6.873 113.5,13.5 L113.5,25.5 C113.5,32.127 108.127,37.5 101.5,37.5 L77.5,37.5 C70.873,37.5 65.5,32.127 65.5,25.5 L65.5,13.5 C65.5,6.873 70.873,1.5 77.5,1.5 z" fill-opacity="0" stroke="#000000" stroke-width="1"/>
    <path d="M197.5,1.5 L245.5,1.5 C252.127,1.5 257.5,6.873 257.5,13.5 L257.5,25.5 C257.5,32.127 252.127,37.5 245.5,37.5 L197.5,37.5 C190.873,37.5 185.5,32.127 185.5,25.5 L185.5,13.5 C185.5,6.873 190.873,1.5 197.5,1.5 z" fill-opacity="0" stroke="#000000" stroke-width="1"/>
    <path d="M302.825,15.271 C302.101,15.556 301.904,16.214 301.904,16.521 C301.904,17.09 302.364,17.419 302.847,17.419 C303.373,17.419 304.184,16.981 304.184,15.929 C304.184,14.767 303.022,14 301.049,14 C300.414,14 299.186,14.044 298.178,14.811 C297.192,15.556 296.841,16.827 296.841,17.375 C296.841,18.033 297.148,18.647 297.63,19.041 C298.244,19.523 298.616,19.589 300.107,19.874 C300.764,19.984 302.079,20.225 302.079,21.211 C302.079,21.299 302.079,23.293 298.814,23.293 C297.74,23.293 296.929,23.074 296.447,22.723 C297.192,22.504 297.652,21.868 297.652,21.211 C297.652,20.422 297.016,20.203 296.578,20.203 C295.833,20.203 295,20.816 295,21.912 C295,23.337 296.534,24.082 298.77,24.082 C303.767,24.082 303.767,20.334 303.767,20.312 C303.767,19.567 303.395,18.975 302.89,18.537 C302.211,17.945 301.378,17.792 300.611,17.66 C299.405,17.441 298.551,17.288 298.551,16.477 C298.551,16.433 298.551,14.789 301.005,14.789 C301.444,14.789 302.233,14.833 302.825,15.271 z" fill="#000000" id="Layer_1"/>
    <path d="M148.036,15.46 C148.277,16.359 149.044,16.929 149.986,16.929 C150.753,16.929 151.257,16.425 151.608,15.723 C151.981,14.934 152.266,13.597 152.266,13.553 C152.266,13.334 152.068,13.334 152.003,13.334 C151.784,13.334 151.762,13.422 151.696,13.729 C151.389,14.956 150.973,16.447 150.052,16.447 C149.592,16.447 149.373,16.162 149.373,15.438 C149.373,14.956 149.636,13.926 149.811,13.159 L150.425,10.792 C150.49,10.463 150.71,9.63 150.797,9.301 C150.907,8.797 151.126,7.964 151.126,7.833 C151.126,7.438 150.819,7.241 150.49,7.241 C150.381,7.241 149.811,7.263 149.636,8.008 C149.219,9.608 148.255,13.444 147.992,14.605 C147.97,14.693 147.093,16.447 145.493,16.447 C144.353,16.447 144.134,15.46 144.134,14.649 C144.134,13.422 144.748,11.69 145.318,10.178 C145.581,9.521 145.69,9.214 145.69,8.797 C145.69,7.811 144.989,7 143.893,7 C141.811,7 141,10.178 141,10.375 C141,10.595 141.219,10.595 141.263,10.595 C141.482,10.595 141.504,10.551 141.614,10.2 C142.162,8.293 142.995,7.482 143.827,7.482 C144.025,7.482 144.375,7.504 144.375,8.205 C144.375,8.731 144.134,9.367 144.003,9.696 C143.192,11.866 142.732,13.225 142.732,14.299 C142.732,16.381 144.244,16.929 145.427,16.929 C146.874,16.929 147.663,15.942 148.036,15.46 z" fill="#000000" id="Layer_1"/>
    <g id="Layer_1">
      <path d="M8.825,14.271 C8.101,14.556 7.904,15.214 7.904,15.521 C7.904,16.09 8.364,16.419 8.847,16.419 C9.373,16.419 10.184,15.981 10.184,14.929 C10.184,13.767 9.022,13 7.049,13 C6.414,13 5.186,13.044 4.178,13.811 C3.192,14.556 2.841,15.827 2.841,16.375 C2.841,17.033 3.148,17.647 3.63,18.041 C4.244,18.523 4.616,18.589 6.107,18.874 C6.764,18.984 8.079,19.225 8.079,20.211 C8.079,20.299 8.079,22.293 4.814,22.293 C3.74,22.293 2.929,22.074 2.447,21.723 C3.192,21.504 3.652,20.868 3.652,20.211 C3.652,19.422 3.016,19.203 2.578,19.203 C1.833,19.203 1,19.816 1,20.912 C1,22.337 2.534,23.082 4.77,23.082 C9.767,23.082 9.767,19.334 9.767,19.312 C9.767,18.567 9.394,17.975 8.89,17.537 C8.211,16.945 7.378,16.792 6.611,16.66 C5.405,16.441 4.551,16.288 4.551,15.477 C4.551,15.433 4.551,13.789 7.005,13.789 C7.444,13.789 8.233,13.833 8.825,14.271 z" fill="#000000"/>
      <path d="M20.156,16.008 C20.171,15.978 20.217,15.778 20.217,15.763 C20.217,15.686 20.156,15.548 19.972,15.548 C19.665,15.548 18.391,15.671 18.008,15.702 C17.885,15.717 17.67,15.732 17.67,16.055 C17.67,16.269 17.885,16.269 18.069,16.269 C18.806,16.269 18.806,16.377 18.806,16.499 C18.806,16.607 18.775,16.699 18.744,16.837 L17.87,20.335 C17.548,19.829 17.026,19.43 16.29,19.43 C14.326,19.43 12.331,21.593 12.331,23.802 C12.331,25.291 13.328,26.349 14.648,26.349 C15.476,26.349 16.213,25.874 16.826,25.275 C17.118,26.196 18.008,26.349 18.407,26.349 C18.959,26.349 19.343,26.012 19.619,25.536 C19.956,24.938 20.156,24.063 20.156,24.002 C20.156,23.802 19.956,23.802 19.91,23.802 C19.696,23.802 19.68,23.864 19.573,24.278 C19.389,25.014 19.097,25.92 18.453,25.92 C18.054,25.92 17.946,25.582 17.946,25.168 C17.946,24.876 17.977,24.738 18.023,24.539 z M16.888,24.278 C16.78,24.708 16.443,25.014 16.105,25.306 C15.967,25.429 15.354,25.92 14.694,25.92 C14.126,25.92 13.574,25.521 13.574,24.431 C13.574,23.618 14.019,21.931 14.372,21.317 C15.077,20.09 15.86,19.859 16.29,19.859 C17.363,19.859 17.655,21.025 17.655,21.194 C17.655,21.256 17.624,21.363 17.609,21.409 z" fill="#000000"/>
    </g>
  </g>
</svg>
