<?xml version="1.0" encoding="UTF-8"?>
<!DOCTYPE svg PUBLIC "-//W3C//DTD SVG 1.1//EN" "http://www.w3.org/Graphics/SVG/1.1/DTD/svg11.dtd">
<svg version="1.1" xmlns="http://www.w3.org/2000/svg" xmlns:xlink="http://www.w3.org/1999/xlink" x="0" y="0" width="305" height="140" viewBox="0, 0, 305, 140">
  <g id="Layer_1">
    <g>
      <path d="M24.5,101.5 L56.5,101.5" fill-opacity="0" stroke="#000000" stroke-width="1"/>
      <path d="M56.5,104.5 L64.5,101.5 L56.5,98.5 z" fill="#000000" fill-opacity="1" stroke="#000000" stroke-width="1" stroke-opacity="1"/>
    </g>
    <text transform="matrix(1, 0, 0, 1, 90.381, 101)">
      <tspan x="-17.89" y="9" font-family="TimesNewRomanPSMT" font-size="28" fill="#000000">RL</tspan>
    </text>
    <g>
      <path d="M113.5,101.5 L128.5,101.5" fill-opacity="0" stroke="#000000" stroke-width="1"/>
      <path d="M128.5,104.5 L136.5,101.5 L128.5,98.5 z" fill="#000000" fill-opacity="1" stroke="#000000" stroke-width="1" stroke-opacity="1"/>
    </g>
    <path d="M143.5,107.5 C140.186,107.5 137.5,104.814 137.5,101.5 C137.5,98.186 140.186,95.5 143.5,95.5 C146.814,95.5 149.5,98.186 149.5,101.5 C149.5,104.814 146.814,107.5 143.5,107.5 z" fill-opacity="0" stroke="#000000" stroke-width="1"/>
    <text transform="matrix(1, 0, 0, 1, 132.948, 109)">
      <tspan x="-3.948" y="4" font-family="TimesNewRomanPSMT" font-size="14" fill="#000000">+</tspan>
    </text>
    <g>
      <path d="M149.5,101.5 L176.5,101.5" fill-opacity="0" stroke="#000000" stroke-width="1"/>
      <path d="M176.5,104.5 L184.5,101.5 L176.5,98.5 z" fill="#000000" fill-opacity="1" stroke="#000000" stroke-width="1" stroke-opacity="1"/>
    </g>
    <text transform="matrix(1, 0, 0, 1, 220.739, 101)">
      <tspan x="-28.779" y="9" font-family="TimesNewRomanPSMT" font-size="28" fill="#000000">Plant</tspan>
    </text>
    <g>
      <path d="M257.5,101.5 L281.5,101.5" fill-opacity="0" stroke="#000000" stroke-width="1"/>
      <path d="M281.5,104.5 L289.5,101.5 L281.5,98.5 z" fill="#000000" fill-opacity="1" stroke="#000000" stroke-width="1" stroke-opacity="1"/>
    </g>
    <g>
      <path d="M89.5,127.75 L89.5,137.5 L269.5,137.5 L269.5,107.5 L269.5,101.5" fill-opacity="0" stroke="#000000" stroke-width="1" stroke-linejoin="round"/>
      <path d="M92.5,127.75 L89.5,119.75 L86.5,127.75 z" fill="#000000" fill-opacity="1" stroke="#000000" stroke-width="1" stroke-opacity="1"/>
    </g>
    <path d="M77.5,83.5 L101.5,83.5 C108.127,83.5 113.5,88.873 113.5,95.5 L113.5,107.5 C113.5,114.127 108.127,119.5 101.5,119.5 L77.5,119.5 C70.873,119.5 65.5,114.127 65.5,107.5 L65.5,95.5 C65.5,88.873 70.873,83.5 77.5,83.5 z" fill-opacity="0" stroke="#000000" stroke-width="1"/>
    <path d="M197.5,83.5 L245.5,83.5 C252.127,83.5 257.5,88.873 257.5,95.5 L257.5,107.5 C257.5,114.127 252.127,119.5 245.5,119.5 L197.5,119.5 C190.873,119.5 185.5,114.127 185.5,107.5 L185.5,95.5 C185.5,88.873 190.873,83.5 197.5,83.5 z" fill-opacity="0" stroke="#000000" stroke-width="1"/>
    <text transform="matrix(1, 0, 0, 1, 150.948, 91)">
      <tspan x="-3.948" y="4" font-family="TimesNewRomanPSMT" font-size="14" fill="#000000">+</tspan>
    </text>
    <text transform="matrix(1, 0, 0, 1, 89, 52)">
      <tspan x="-18.676" y="9" font-family="TimesNewRomanPSMT" font-size="28" fill="#000000">CC</tspan>
    </text>
    <path d="M77.5,34.5 L101.5,34.5 C108.127,34.5 113.5,39.873 113.5,46.5 L113.5,58.5 C113.5,65.127 108.127,70.5 101.5,70.5 L77.5,70.5 C70.873,70.5 65.5,65.127 65.5,58.5 L65.5,46.5 C65.5,39.873 70.873,34.5 77.5,34.5 z" fill-opacity="0" stroke="#000000" stroke-width="1"/>
    <g>
      <path d="M41.5,101.5 L41.5,52.5 L56.5,52.5" fill-opacity="0" stroke="#000000" stroke-width="1" stroke-linejoin="round"/>
      <path d="M56.5,55.5 L64.5,52.5 L56.5,49.5 z" fill="#000000" fill-opacity="1" stroke="#000000" stroke-width="1" stroke-opacity="1"/>
    </g>
    <g>
      <path d="M113.5,52.5 L143.5,52.5 L143.5,86.5" fill-opacity="0" stroke="#000000" stroke-width="1" stroke-linejoin="round"/>
      <path d="M140.5,86.5 L143.5,94.5 L146.5,86.5 z" fill="#000000" fill-opacity="1" stroke="#000000" stroke-width="1" stroke-opacity="1"/>
    </g>
    <g>
      <path d="M89.5,25.5 L89.5,21.5 L269.5,21.5 L269.5,86.5 L269.5,101.5" fill-opacity="0" stroke="#000000" stroke-width="1" stroke-linejoin="round"/>
      <path d="M86.5,25.5 L89.5,33.5 L92.5,25.5 z" fill="#000000" fill-opacity="1" stroke="#000000" stroke-width="1" stroke-opacity="1"/>
    </g>
    <path d="M168.406,98.46 C168.647,99.359 169.414,99.929 170.356,99.929 C171.123,99.929 171.627,99.425 171.978,98.723 C172.351,97.934 172.636,96.597 172.636,96.553 C172.636,96.334 172.438,96.334 172.373,96.334 C172.154,96.334 172.132,96.422 172.066,96.729 C171.759,97.956 171.343,99.447 170.422,99.447 C169.962,99.447 169.743,99.162 169.743,98.438 C169.743,97.956 170.006,96.926 170.181,96.159 L170.795,93.792 C170.86,93.463 171.08,92.63 171.167,92.301 C171.277,91.797 171.496,90.964 171.496,90.833 C171.496,90.438 171.189,90.241 170.86,90.241 C170.751,90.241 170.181,90.263 170.006,91.008 C169.589,92.608 168.625,96.444 168.362,97.605 C168.34,97.693 167.463,99.447 165.863,99.447 C164.723,99.447 164.504,98.46 164.504,97.649 C164.504,96.422 165.118,94.69 165.688,93.178 C165.951,92.521 166.06,92.214 166.06,91.797 C166.06,90.811 165.359,90 164.263,90 C162.181,90 161.37,93.178 161.37,93.375 C161.37,93.595 161.589,93.595 161.633,93.595 C161.852,93.595 161.874,93.551 161.984,93.2 C162.532,91.293 163.365,90.482 164.197,90.482 C164.395,90.482 164.745,90.504 164.745,91.205 C164.745,91.731 164.504,92.367 164.373,92.696 C163.562,94.866 163.102,96.225 163.102,97.299 C163.102,99.381 164.614,99.929 165.797,99.929 C167.244,99.929 168.033,98.942 168.406,98.46 z" fill="#000000" id="Layer_1"/>
    <g id="Layer_1">
      <path d="M164.476,-16.744 C164.613,-17.34 165.14,-19.448 166.744,-19.448 C166.859,-19.448 167.409,-19.448 167.89,-19.15 C167.249,-19.035 166.79,-18.462 166.79,-17.912 C166.79,-17.546 167.042,-17.11 167.661,-17.11 C168.165,-17.11 168.898,-17.523 168.898,-18.439 C168.898,-19.631 167.546,-19.952 166.767,-19.952 C165.438,-19.952 164.636,-18.737 164.361,-18.21 C163.789,-19.723 162.551,-19.952 161.887,-19.952 C159.504,-19.952 158.198,-16.996 158.198,-16.423 C158.198,-16.194 158.427,-16.194 158.473,-16.194 C158.656,-16.194 158.725,-16.24 158.77,-16.446 C159.549,-18.875 161.062,-19.448 161.841,-19.448 C162.276,-19.448 163.078,-19.241 163.078,-17.912 C163.078,-17.202 162.689,-15.667 161.841,-12.459 C161.474,-11.038 160.672,-10.076 159.664,-10.076 C159.527,-10.076 159,-10.076 158.518,-10.374 C159.091,-10.488 159.595,-10.969 159.595,-11.611 C159.595,-12.23 159.091,-12.413 158.747,-12.413 C158.06,-12.413 157.487,-11.817 157.487,-11.084 C157.487,-10.03 158.633,-9.572 159.641,-9.572 C161.153,-9.572 161.978,-11.176 162.047,-11.313 C162.322,-10.465 163.147,-9.572 164.522,-9.572 C166.882,-9.572 168.188,-12.528 168.188,-13.1 C168.188,-13.33 167.982,-13.33 167.913,-13.33 C167.707,-13.33 167.661,-13.238 167.615,-13.078 C166.859,-10.626 165.301,-10.076 164.568,-10.076 C163.674,-10.076 163.307,-10.809 163.307,-11.588 C163.307,-12.092 163.445,-12.596 163.697,-13.605 z" fill="#000000"/>
      <path d="M174.57,-9.847 C174.57,-11.359 173.997,-12.253 173.103,-12.253 C172.347,-12.253 171.889,-11.68 171.889,-11.038 C171.889,-10.419 172.347,-9.824 173.103,-9.824 C173.378,-9.824 173.676,-9.915 173.905,-10.122 C173.974,-10.167 173.997,-10.19 174.02,-10.19 C174.043,-10.19 174.065,-10.167 174.065,-9.847 C174.065,-8.151 173.263,-6.776 172.507,-6.02 C172.255,-5.768 172.255,-5.722 172.255,-5.653 C172.255,-5.493 172.37,-5.401 172.484,-5.401 C172.736,-5.401 174.57,-7.166 174.57,-9.847 z" fill="#000000"/>
      <path d="M188.505,-23.939 C188.505,-24.557 187.978,-25.153 187.29,-25.153 C186.511,-25.153 186.053,-24.512 186.053,-23.939 C186.053,-23.32 186.58,-22.724 187.267,-22.724 C188.047,-22.724 188.505,-23.366 188.505,-23.939 z" fill="#000000"/>
      <path d="M187.757,-16.744 C187.894,-17.34 188.421,-19.448 190.025,-19.448 C190.14,-19.448 190.69,-19.448 191.171,-19.15 C190.529,-19.035 190.071,-18.462 190.071,-17.912 C190.071,-17.546 190.323,-17.11 190.942,-17.11 C191.446,-17.11 192.179,-17.523 192.179,-18.439 C192.179,-19.631 190.827,-19.952 190.048,-19.952 C188.719,-19.952 187.917,-18.737 187.642,-18.21 C187.069,-19.723 185.832,-19.952 185.167,-19.952 C182.784,-19.952 181.478,-16.996 181.478,-16.423 C181.478,-16.194 181.707,-16.194 181.753,-16.194 C181.936,-16.194 182.005,-16.24 182.051,-16.446 C182.83,-18.875 184.342,-19.448 185.121,-19.448 C185.557,-19.448 186.359,-19.241 186.359,-17.912 C186.359,-17.202 185.969,-15.667 185.121,-12.459 C184.755,-11.038 183.953,-10.076 182.945,-10.076 C182.807,-10.076 182.28,-10.076 181.799,-10.374 C182.372,-10.488 182.876,-10.969 182.876,-11.611 C182.876,-12.23 182.372,-12.413 182.028,-12.413 C181.341,-12.413 180.768,-11.817 180.768,-11.084 C180.768,-10.03 181.913,-9.572 182.922,-9.572 C184.434,-9.572 185.259,-11.176 185.328,-11.313 C185.603,-10.465 186.428,-9.572 187.802,-9.572 C190.163,-9.572 191.469,-12.528 191.469,-13.1 C191.469,-13.33 191.262,-13.33 191.194,-13.33 C190.987,-13.33 190.942,-13.238 190.896,-13.078 C190.14,-10.626 188.581,-10.076 187.848,-10.076 C186.955,-10.076 186.588,-10.809 186.588,-11.588 C186.588,-12.092 186.725,-12.596 186.977,-13.605 z" fill="#000000"/>
    </g>
    <g id="Layer_1">
      <path d="M8.825,96.271 C8.101,96.556 7.904,97.214 7.904,97.521 C7.904,98.09 8.364,98.419 8.847,98.419 C9.373,98.419 10.184,97.981 10.184,96.929 C10.184,95.767 9.022,95 7.049,95 C6.414,95 5.186,95.044 4.178,95.811 C3.192,96.556 2.841,97.827 2.841,98.375 C2.841,99.033 3.148,99.647 3.63,100.041 C4.244,100.523 4.616,100.589 6.107,100.874 C6.764,100.984 8.079,101.225 8.079,102.211 C8.079,102.299 8.079,104.293 4.814,104.293 C3.74,104.293 2.929,104.074 2.447,103.723 C3.192,103.504 3.652,102.868 3.652,102.211 C3.652,101.422 3.016,101.203 2.578,101.203 C1.833,101.203 1,101.816 1,102.912 C1,104.337 2.534,105.082 4.77,105.082 C9.767,105.082 9.767,101.334 9.767,101.312 C9.767,100.567 9.394,99.975 8.89,99.537 C8.211,98.945 7.378,98.792 6.611,98.66 C5.405,98.441 4.551,98.288 4.551,97.477 C4.551,97.433 4.551,95.789 7.005,95.789 C7.444,95.789 8.233,95.833 8.825,96.271 z" fill="#000000"/>
      <path d="M20.156,98.008 C20.171,97.978 20.217,97.778 20.217,97.763 C20.217,97.686 20.156,97.548 19.972,97.548 C19.665,97.548 18.391,97.671 18.008,97.702 C17.885,97.717 17.67,97.732 17.67,98.055 C17.67,98.269 17.885,98.269 18.069,98.269 C18.806,98.269 18.806,98.377 18.806,98.499 C18.806,98.607 18.775,98.699 18.744,98.837 L17.87,102.335 C17.548,101.829 17.026,101.43 16.29,101.43 C14.326,101.43 12.331,103.593 12.331,105.802 C12.331,107.291 13.328,108.349 14.648,108.349 C15.476,108.349 16.213,107.874 16.826,107.275 C17.118,108.196 18.008,108.349 18.407,108.349 C18.959,108.349 19.343,108.012 19.619,107.536 C19.956,106.938 20.156,106.063 20.156,106.002 C20.156,105.802 19.956,105.802 19.91,105.802 C19.696,105.802 19.68,105.864 19.573,106.278 C19.389,107.014 19.097,107.92 18.453,107.92 C18.054,107.92 17.946,107.582 17.946,107.168 C17.946,106.876 17.977,106.738 18.023,106.539 z M16.888,106.278 C16.78,106.708 16.443,107.014 16.105,107.306 C15.967,107.429 15.354,107.92 14.694,107.92 C14.126,107.92 13.574,107.521 13.574,106.431 C13.574,105.618 14.019,103.931 14.372,103.317 C15.077,102.09 15.86,101.859 16.29,101.859 C17.363,101.859 17.655,103.025 17.655,103.194 C17.655,103.256 17.624,103.363 17.609,103.409 z" fill="#000000"/>
    </g>
    <path d="M299.825,97.271 C299.101,97.556 298.904,98.214 298.904,98.521 C298.904,99.09 299.364,99.419 299.847,99.419 C300.373,99.419 301.184,98.981 301.184,97.929 C301.184,96.767 300.022,96 298.049,96 C297.414,96 296.186,96.044 295.178,96.811 C294.192,97.556 293.841,98.827 293.841,99.375 C293.841,100.033 294.148,100.647 294.63,101.041 C295.244,101.523 295.616,101.589 297.107,101.874 C297.764,101.984 299.079,102.225 299.079,103.211 C299.079,103.299 299.079,105.293 295.814,105.293 C294.74,105.293 293.929,105.074 293.447,104.723 C294.192,104.504 294.652,103.868 294.652,103.211 C294.652,102.422 294.016,102.203 293.578,102.203 C292.833,102.203 292,102.816 292,103.912 C292,105.337 293.534,106.082 295.77,106.082 C300.767,106.082 300.767,102.334 300.767,102.312 C300.767,101.567 300.395,100.975 299.89,100.537 C299.211,99.945 298.378,99.792 297.611,99.66 C296.405,99.441 295.551,99.288 295.551,98.477 C295.551,98.433 295.551,96.789 298.005,96.789 C298.444,96.789 299.233,96.833 299.825,97.271 z" fill="#000000" id="Layer_1"/>
    <g id="Layer_1">
      <path d="M122.372,84.552 C121.978,83.741 121.342,83.15 120.356,83.15 C117.791,83.15 115.074,86.372 115.074,89.572 C115.074,91.632 116.279,93.078 117.989,93.078 C118.427,93.078 119.523,92.991 120.838,91.435 C121.013,92.355 121.78,93.078 122.832,93.078 C123.6,93.078 124.104,92.574 124.454,91.873 C124.827,91.084 125.112,89.747 125.112,89.703 C125.112,89.484 124.915,89.484 124.849,89.484 C124.63,89.484 124.608,89.572 124.542,89.878 C124.169,91.303 123.775,92.596 122.876,92.596 C122.285,92.596 122.219,92.026 122.219,91.588 C122.219,91.106 122.263,90.93 122.504,89.966 C122.745,89.046 122.789,88.826 122.986,87.993 L123.775,84.925 C123.928,84.311 123.928,84.267 123.928,84.18 C123.928,83.807 123.665,83.588 123.293,83.588 C122.767,83.588 122.438,84.07 122.372,84.552 z M120.948,90.229 C120.838,90.624 120.838,90.667 120.509,91.04 C119.545,92.246 118.646,92.596 118.033,92.596 C116.937,92.596 116.63,91.391 116.63,90.536 C116.63,89.44 117.331,86.744 117.835,85.736 C118.515,84.443 119.501,83.632 120.378,83.632 C121.802,83.632 122.109,85.429 122.109,85.561 C122.109,85.692 122.065,85.824 122.043,85.933 z" fill="#000000"/>
      <path d="M129.556,90.066 L131.121,90.066 C131.413,90.066 131.612,90.066 131.612,89.729 C131.612,89.514 131.413,89.514 131.152,89.514 L129.694,89.514 L130.262,87.243 C130.277,87.166 130.308,87.09 130.308,87.028 C130.308,86.752 130.093,86.537 129.786,86.537 C129.403,86.537 129.173,86.798 129.065,87.197 C128.958,87.581 129.157,86.844 128.482,89.514 L126.917,89.514 C126.626,89.514 126.426,89.514 126.426,89.851 C126.426,90.066 126.611,90.066 126.887,90.066 L128.344,90.066 L127.439,93.687 C127.347,94.07 127.209,94.623 127.209,94.822 C127.209,95.727 127.976,96.28 128.851,96.28 C130.554,96.28 131.52,94.132 131.52,93.932 C131.52,93.733 131.321,93.733 131.275,93.733 C131.091,93.733 131.075,93.764 130.952,94.024 C130.523,94.991 129.74,95.85 128.897,95.85 C128.574,95.85 128.36,95.651 128.36,95.098 C128.36,94.945 128.421,94.623 128.452,94.469 z" fill="#000000"/>
    </g>
    <path d="M151.207,64.141 L153.092,64.141 C153.53,64.141 153.749,64.141 153.749,63.703 C153.749,63.462 153.53,63.462 153.157,63.462 L151.338,63.462 L151.799,60.963 C151.886,60.503 152.193,58.946 152.325,58.683 C152.522,58.267 152.894,57.938 153.355,57.938 C153.442,57.938 154.012,57.938 154.429,58.333 C153.464,58.42 153.245,59.188 153.245,59.516 C153.245,60.02 153.64,60.283 154.056,60.283 C154.626,60.283 155.262,59.801 155.262,58.968 C155.262,57.96 154.253,57.456 153.355,57.456 C152.61,57.456 151.229,57.851 150.571,60.02 C150.44,60.481 150.374,60.7 149.848,63.462 L148.336,63.462 C147.919,63.462 147.678,63.462 147.678,63.878 C147.678,64.141 147.875,64.141 148.292,64.141 L149.738,64.141 L148.094,72.798 C147.7,74.924 147.327,76.919 146.188,76.919 C146.1,76.919 145.552,76.919 145.136,76.524 C146.144,76.459 146.341,75.67 146.341,75.341 C146.341,74.837 145.947,74.574 145.53,74.574 C144.96,74.574 144.325,75.056 144.325,75.889 C144.325,76.875 145.289,77.401 146.188,77.401 C147.393,77.401 148.27,76.108 148.664,75.275 C149.366,73.894 149.87,71.242 149.892,71.089 z" fill="#000000" id="Layer_1"/>
  </g>
</svg>
