<?xml version="1.0" encoding="UTF-8"?>
<!DOCTYPE svg PUBLIC "-//W3C//DTD SVG 1.1//EN" "http://www.w3.org/Graphics/SVG/1.1/DTD/svg11.dtd">
<svg version="1.1" xmlns="http://www.w3.org/2000/svg" xmlns:xlink="http://www.w3.org/1999/xlink" x="0" y="0" width="375" height="430" viewBox="0, 0, 375, 430">
  <defs>
    <clipPath id="Clip_1">
      <path d="M149.514,264.837 L283.831,264.837 L283.831,420.322 L149.514,420.322 z M155.262,269.307 L152.993,271.27 L278.084,415.852 L280.353,413.889 L155.262,269.307 z"/>
    </clipPath>
    <filter id="Shadow_2">
      <feGaussianBlur in="SourceAlpha" stdDeviation="1.239"/>
      <feOffset dx="0" dy="0.991" result="offsetblur"/>
      <feFlood flood-color="#000000"/>
      <feComposite in2="offsetblur" operator="in"/>
    </filter>
    <clipPath id="Clip_3">
      <path d="M97.203,78.075 L157.15,78.075 L157.15,269.9 L97.203,269.9 z M103.574,82.545 L100.681,83.341 L150.779,265.43 L153.671,264.634 L103.574,82.545 z"/>
    </clipPath>
    <filter id="Shadow_4">
      <feGaussianBlur in="SourceAlpha" stdDeviation="1.239"/>
      <feOffset dx="0" dy="0.991" result="offsetblur"/>
      <feFlood flood-color="#000000"/>
      <feComposite in2="offsetblur" operator="in"/>
    </filter>
    <clipPath id="Clip_5">
      <path d="M138.149,251.923 L169.316,251.923 L169.316,284.242 L138.149,284.242 z M153.732,256.393 C147.047,256.393 141.627,261.626 141.627,268.082 C141.627,274.538 147.047,279.772 153.732,279.772 C160.418,279.772 165.837,274.538 165.837,268.082 C165.837,261.626 160.418,256.393 153.732,256.393 z"/>
    </clipPath>
    <filter id="Shadow_6">
      <feGaussianBlur in="SourceAlpha" stdDeviation="1.239"/>
      <feOffset dx="0" dy="0.991" result="offsetblur"/>
      <feFlood flood-color="#000000"/>
      <feComposite in2="offsetblur" operator="in"/>
    </filter>
    <radialGradient id="Gradient_1" gradientUnits="userSpaceOnUse" cx="-153.732" cy="268.082" r="12.105" gradientTransform="matrix(-1, 0, 0, 1, 0, 0)">
      <stop offset="0" stop-color="#FFFFFF"/>
      <stop offset="1" stop-color="#000000"/>
    </radialGradient>
    <clipPath id="Clip_7">
      <path d="M265.149,399.582 L296.322,399.582 L296.322,431.885 L265.149,431.885 z M281.466,404.052 C279.335,404.127 277.594,404.168 275.62,405.128 C269.561,407.856 266.939,414.811 269.764,420.663 C272.59,426.514 279.792,429.045 285.851,426.317 C291.91,423.588 294.531,416.633 291.706,410.782 C289.541,406.833 285.982,404.44 281.466,404.052 z"/>
    </clipPath>
    <filter id="Shadow_8">
      <feGaussianBlur in="SourceAlpha" stdDeviation="1.239"/>
      <feOffset dx="0" dy="0.991" result="offsetblur"/>
      <feFlood flood-color="#000000"/>
      <feComposite in2="offsetblur" operator="in"/>
    </filter>
    <radialGradient id="Gradient_2" gradientUnits="userSpaceOnUse" cx="-78.741" cy="495.416" r="12.032" gradientTransform="matrix(-0.906, 0.423, 0.423, 0.906, 0, 0)">
      <stop offset="0" stop-color="#FFFFFF"/>
      <stop offset="1" stop-color="#000000"/>
    </radialGradient>
    <clipPath id="Clip_9">
      <path d="M35.627,36.03 L167.627,36.03 L167.627,122.03 L35.627,122.03 z M151.627,44.03 L51.627,44.03 C46.104,44.03 41.627,45.771 41.627,47.919 L41.627,110.141 C41.627,112.289 46.104,114.03 51.627,114.03 L151.627,114.03 C157.15,114.03 161.627,112.289 161.627,110.141 L161.627,47.919 C161.627,45.771 157.15,44.03 151.627,44.03 z"/>
    </clipPath>
    <filter id="Shadow_10">
      <feGaussianBlur in="SourceAlpha" stdDeviation="2.5"/>
      <feOffset dx="0" dy="2" result="offsetblur"/>
      <feFlood flood-color="#000000"/>
      <feComposite in2="offsetblur" operator="in"/>
    </filter>
    <linearGradient id="Gradient_3" gradientUnits="userSpaceOnUse" x1="41.627" y1="79.03" x2="161.627" y2="79.03">
      <stop offset="0" stop-color="#555555"/>
      <stop offset="0.153" stop-color="#BFBFBF"/>
      <stop offset="0.851" stop-color="#B4B4B4"/>
      <stop offset="1" stop-color="#6A6A6A"/>
    </linearGradient>
  </defs>
  <g id="Layer_1">
    <path d="M154.128,270.289 L154.376,359.707" fill-opacity="0" stroke="#000000" stroke-width="1"/>
    <path d="M178.926,80.103 L1.5,80.103" fill-opacity="0" stroke="#000000" stroke-width="1" stroke-dasharray="3,2"/>
    <path d="M374.451,80.103 L195.794,80.103" fill-opacity="0" stroke="#000000" stroke-width="1" stroke-dasharray="3,2"/>
    <g>
      <path d="M155.262,269.307 L280.353,413.889 L278.084,415.852 L152.993,271.27 L155.262,269.307 z" clip-path="url(#Clip_1)" filter="url(#Shadow_2)" fill="rgba(0,0,0,0.75)"/>
      <path d="M154.127,270.289 L279.218,414.871" fill-opacity="0" stroke="#000000" stroke-width="3"/>
    </g>
    <path d="M102.127,82.943 L102.105,172.361" fill-opacity="0" stroke="#000000" stroke-width="1"/>
    <g>
      <path d="M103.574,82.545 L153.671,264.634 L150.779,265.43 L100.681,83.341 L103.574,82.545 z" clip-path="url(#Clip_3)" filter="url(#Shadow_4)" fill="rgba(0,0,0,0.75)"/>
      <path d="M102.127,82.943 L152.225,265.032" fill-opacity="0" stroke="#000000" stroke-width="3"/>
    </g>
    <g>
      <path d="M102.127,79.53 L102.127,7.53 L148.527,7.53" fill-opacity="0" stroke="#000000" stroke-width="3" stroke-linejoin="round"/>
      <path d="M148.527,11.73 L159.727,7.53 L148.527,3.33 z" fill="#000000" fill-opacity="1" stroke="#000000" stroke-width="3" stroke-opacity="1"/>
    </g>
    <g>
      <path d="M153.732,256.393 C160.418,256.393 165.837,261.626 165.837,268.082 C165.837,274.538 160.418,279.772 153.732,279.772 C147.047,279.772 141.627,274.538 141.627,268.082 C141.627,261.626 147.047,256.393 153.732,256.393 z" clip-path="url(#Clip_5)" filter="url(#Shadow_6)" fill="rgba(0,0,0,0.75)"/>
      <path d="M153.732,279.772 C160.418,279.772 165.837,274.538 165.837,268.082 C165.837,261.626 160.418,256.393 153.732,256.393 C147.047,256.393 141.627,261.626 141.627,268.082 C141.627,274.538 147.047,279.772 153.732,279.772 z" fill="url(#Gradient_1)"/>
    </g>
    <g>
      <path d="M281.466,404.052 C285.982,404.44 289.541,406.833 291.706,410.782 C294.531,416.633 291.91,423.588 285.851,426.317 C279.792,429.045 272.59,426.514 269.764,420.663 C266.939,414.811 269.561,407.856 275.62,405.128 C277.594,404.168 279.335,404.127 281.466,404.052 z" clip-path="url(#Clip_7)" filter="url(#Shadow_8)" fill="rgba(0,0,0,0.75)"/>
      <path d="M285.851,426.317 C291.91,423.588 294.531,416.633 291.706,410.782 C288.881,404.931 281.678,402.399 275.62,405.128 C269.561,407.856 266.939,414.811 269.764,420.663 C272.59,426.514 279.792,429.045 285.851,426.317 z" fill="url(#Gradient_2)"/>
    </g>
    <g>
      <path d="M161.026,255.922 L175.582,227.977" fill-opacity="0" stroke="#000000" stroke-width="2"/>
      <path d="M175.582,227.977 L177.247,240.213" fill-opacity="0" stroke="#000000" stroke-width="2"/>
      <path d="M177.247,240.213 L191.803,212.268" fill-opacity="0" stroke="#000000" stroke-width="2"/>
    </g>
    <g>
      <path d="M113.822,159.155 C110.147,159.719 106.433,160.017 102.707,160.045" fill-opacity="0" stroke="#000000" stroke-width="1"/>
      <path d="M114.449,162.089 L121.645,157.483 L113.194,156.222 z" fill="#000000" fill-opacity="1" stroke="#000000" stroke-width="1" stroke-opacity="1"/>
    </g>
    <g>
      <path d="M200.804,338.068 C187.337,347.342 171.348,352.435 154.861,352.582" fill-opacity="0" stroke="#000000" stroke-width="1"/>
      <path d="M202.638,340.442 L207.134,333.177 L198.969,335.694 z" fill="#000000" fill-opacity="1" stroke="#000000" stroke-width="1" stroke-opacity="1"/>
    </g>
    <g id="Layer_1">
      <path d="M185.568,356.967 C185.568,355.126 185.066,351.248 182.221,351.248 C178.343,351.248 174.047,359.115 174.047,365.503 C174.047,368.125 174.856,371.221 177.395,371.221 C181.328,371.221 185.568,363.215 185.568,356.967 z M177.004,360.788 C177.478,359.003 178.036,356.771 179.152,354.791 C179.905,353.424 180.937,351.862 182.193,351.862 C183.559,351.862 183.727,353.647 183.727,355.237 C183.727,356.604 183.504,358.027 182.834,360.788 z M182.583,361.681 C182.276,362.964 181.691,365.335 180.63,367.344 C179.654,369.241 178.594,370.607 177.395,370.607 C176.474,370.607 175.888,369.798 175.888,367.204 C175.888,366.033 176.056,364.415 176.781,361.681 z" fill="#000000"/>
      <path d="M195.832,371.546 L195.168,371.546 C195.11,371.976 194.914,373.128 194.661,373.323 C194.504,373.44 193.001,373.44 192.727,373.44 L189.135,373.44 C191.185,371.625 191.868,371.078 193.04,370.16 C194.485,369.008 195.832,367.797 195.832,365.942 C195.832,363.58 193.762,362.135 191.263,362.135 C188.842,362.135 187.201,363.833 187.201,365.63 C187.201,366.626 188.041,366.723 188.236,366.723 C188.705,366.723 189.271,366.391 189.271,365.688 C189.271,365.337 189.135,364.654 188.119,364.654 C188.724,363.267 190.052,362.838 190.97,362.838 C192.923,362.838 193.938,364.361 193.938,365.942 C193.938,367.641 192.727,368.988 192.103,369.691 L187.397,374.339 C187.201,374.514 187.201,374.553 187.201,375.1 L195.246,375.1 z" fill="#000000"/>
    </g>
    <g id="Layer_1">
      <path d="M115.254,169.645 C115.254,167.803 114.752,163.926 111.907,163.926 C108.029,163.926 103.734,171.792 103.734,178.18 C103.734,180.803 104.543,183.899 107.081,183.899 C111.014,183.899 115.254,175.893 115.254,169.645 z M106.69,173.466 C107.165,171.681 107.723,169.449 108.838,167.469 C109.592,166.102 110.624,164.54 111.879,164.54 C113.246,164.54 113.413,166.325 113.413,167.915 C113.413,169.282 113.19,170.705 112.521,173.466 z M112.27,174.359 C111.963,175.642 111.377,178.013 110.317,180.022 C109.34,181.918 108.28,183.285 107.081,183.285 C106.16,183.285 105.575,182.476 105.575,179.882 C105.575,178.711 105.742,177.093 106.467,174.359 z" fill="#000000"/>
      <path d="M122.199,175.359 C122.199,174.832 122.16,174.812 121.613,174.812 C120.363,176.043 118.587,176.062 117.786,176.062 L117.786,176.765 C118.255,176.765 119.543,176.765 120.617,176.218 L120.617,186.177 C120.617,186.821 120.617,187.075 118.665,187.075 L117.923,187.075 L117.923,187.778 C118.274,187.759 120.676,187.7 121.398,187.7 C122.004,187.7 124.464,187.759 124.894,187.778 L124.894,187.075 L124.152,187.075 C122.199,187.075 122.199,186.821 122.199,186.177 z" fill="#000000"/>
    </g>
    <path d="M174.256,3.905 C174.423,3.18 175.065,0.614 177.017,0.614 C177.157,0.614 177.826,0.614 178.412,0.976 C177.631,1.116 177.073,1.813 177.073,2.483 C177.073,2.929 177.38,3.459 178.133,3.459 C178.747,3.459 179.64,2.957 179.64,1.841 C179.64,0.391 177.994,-0 177.045,-0 C175.427,-0 174.451,1.478 174.116,2.12 C173.419,0.279 171.913,-0 171.104,-0 C168.203,-0 166.613,3.598 166.613,4.296 C166.613,4.575 166.891,4.575 166.947,4.575 C167.17,4.575 167.254,4.519 167.31,4.268 C168.258,1.311 170.099,0.614 171.048,0.614 C171.578,0.614 172.554,0.865 172.554,2.483 C172.554,3.347 172.08,5.216 171.048,9.122 C170.602,10.851 169.625,12.023 168.398,12.023 C168.23,12.023 167.589,12.023 167.003,11.66 C167.7,11.521 168.314,10.935 168.314,10.154 C168.314,9.401 167.7,9.178 167.282,9.178 C166.445,9.178 165.748,9.903 165.748,10.795 C165.748,12.079 167.143,12.637 168.37,12.637 C170.211,12.637 171.215,10.684 171.299,10.517 C171.634,11.549 172.638,12.637 174.312,12.637 C177.185,12.637 178.775,9.038 178.775,8.341 C178.775,8.062 178.524,8.062 178.44,8.062 C178.189,8.062 178.133,8.173 178.077,8.369 C177.157,11.353 175.26,12.023 174.367,12.023 C173.279,12.023 172.833,11.13 172.833,10.182 C172.833,9.568 173.001,8.954 173.307,7.727 z" fill="#000000" id="Layer_1"/>
    <g id="Layer_1">
      <path d="M186.97,209.381 C186.886,209.799 186.719,210.441 186.719,210.58 C186.719,211.083 187.109,211.334 187.528,211.334 C187.862,211.334 188.365,211.11 188.56,210.552 C188.588,210.497 188.923,209.186 189.09,208.488 L189.704,205.978 C189.871,205.364 190.038,204.75 190.178,204.109 C190.289,203.634 190.513,202.826 190.54,202.714 C190.959,201.849 192.437,199.311 195.087,199.311 C196.343,199.311 196.594,200.343 196.594,201.263 C196.594,201.961 196.398,202.742 196.175,203.579 L195.394,206.815 L194.836,208.935 C194.725,209.492 194.474,210.441 194.474,210.58 C194.474,211.083 194.864,211.334 195.283,211.334 C196.147,211.334 196.315,210.636 196.538,209.744 C196.928,208.181 197.961,204.109 198.212,203.021 C198.295,202.658 199.774,199.311 202.814,199.311 C204.014,199.311 204.321,200.259 204.321,201.263 C204.321,202.853 203.149,206.033 202.591,207.512 C202.34,208.181 202.229,208.488 202.229,209.046 C202.229,210.357 203.205,211.334 204.516,211.334 C207.138,211.334 208.17,207.261 208.17,207.038 C208.17,206.759 207.919,206.759 207.835,206.759 C207.557,206.759 207.557,206.842 207.417,207.261 C206.999,208.739 206.106,210.72 204.572,210.72 C204.098,210.72 203.902,210.441 203.902,209.799 C203.902,209.102 204.153,208.432 204.404,207.819 C204.934,206.368 206.106,203.272 206.106,201.682 C206.106,199.869 204.99,198.697 202.898,198.697 C200.806,198.697 199.383,199.924 198.351,201.403 C198.323,201.04 198.24,200.092 197.458,199.422 C196.761,198.836 195.868,198.697 195.171,198.697 C192.66,198.697 191.294,200.482 190.819,201.124 C190.68,199.534 189.508,198.697 188.253,198.697 C186.97,198.697 186.44,199.785 186.189,200.287 C185.687,201.263 185.324,202.909 185.324,202.993 C185.324,203.272 185.603,203.272 185.659,203.272 C185.938,203.272 185.966,203.244 186.133,202.63 C186.607,200.65 187.165,199.311 188.169,199.311 C188.616,199.311 189.034,199.534 189.034,200.594 C189.034,201.18 188.95,201.487 188.588,202.937 z" fill="#000000"/>
      <path d="M215.118,202.247 C215.138,202.208 215.197,201.954 215.197,201.935 C215.197,201.837 215.118,201.661 214.884,201.661 C214.494,201.661 212.873,201.817 212.385,201.856 C212.229,201.876 211.955,201.896 211.955,202.306 C211.955,202.579 212.229,202.579 212.463,202.579 C213.4,202.579 213.4,202.716 213.4,202.872 C213.4,203.009 213.361,203.126 213.322,203.301 L210.569,214.354 C210.471,214.705 210.471,214.744 210.471,214.783 C210.471,215.076 210.705,215.408 211.135,215.408 C211.35,215.408 211.721,215.31 211.936,214.9 C211.994,214.783 212.17,214.08 212.268,213.67 L212.717,211.932 C212.775,211.639 212.971,210.897 213.029,210.604 C213.224,209.862 213.224,209.843 213.615,209.218 C214.24,208.261 215.216,207.148 216.739,207.148 C217.833,207.148 217.891,208.046 217.891,208.515 C217.891,209.687 217.052,211.854 216.739,212.674 C216.524,213.221 216.446,213.397 216.446,213.729 C216.446,214.764 217.305,215.408 218.301,215.408 C220.254,215.408 221.113,212.713 221.113,212.42 C221.113,212.167 220.859,212.167 220.801,212.167 C220.527,212.167 220.508,212.284 220.43,212.499 C219.981,214.061 219.121,214.861 218.36,214.861 C217.95,214.861 217.872,214.588 217.872,214.178 C217.872,213.729 217.969,213.475 218.321,212.596 C218.555,211.991 219.356,209.921 219.356,208.827 C219.356,208.515 219.356,207.695 218.633,207.129 C218.301,206.875 217.735,206.601 216.817,206.601 C215.392,206.601 214.357,207.383 213.634,208.222 z" fill="#000000"/>
    </g>
    <g id="Layer_1">
      <path d="M307.087,353.522 C307.003,353.94 306.836,354.582 306.836,354.721 C306.836,355.223 307.227,355.474 307.645,355.474 C307.98,355.474 308.482,355.251 308.677,354.693 C308.705,354.638 309.04,353.327 309.207,352.629 L309.821,350.119 C309.988,349.505 310.156,348.891 310.295,348.25 C310.407,347.775 310.63,346.966 310.658,346.855 C311.076,345.99 312.555,343.452 315.205,343.452 C316.46,343.452 316.711,344.484 316.711,345.404 C316.711,346.102 316.516,346.883 316.293,347.72 L315.512,350.955 L314.954,353.076 C314.842,353.633 314.591,354.582 314.591,354.721 C314.591,355.223 314.982,355.474 315.4,355.474 C316.265,355.474 316.432,354.777 316.655,353.884 C317.046,352.322 318.078,348.25 318.329,347.162 C318.413,346.799 319.891,343.452 322.932,343.452 C324.131,343.452 324.438,344.4 324.438,345.404 C324.438,346.994 323.266,350.174 322.709,351.653 C322.457,352.322 322.346,352.629 322.346,353.187 C322.346,354.498 323.322,355.474 324.633,355.474 C327.255,355.474 328.288,351.402 328.288,351.179 C328.288,350.9 328.036,350.9 327.953,350.9 C327.674,350.9 327.674,350.983 327.534,351.402 C327.116,352.88 326.223,354.861 324.689,354.861 C324.215,354.861 324.02,354.582 324.02,353.94 C324.02,353.243 324.271,352.573 324.522,351.96 C325.052,350.509 326.223,347.413 326.223,345.823 C326.223,344.01 325.108,342.838 323.015,342.838 C320.923,342.838 319.501,344.065 318.468,345.544 C318.441,345.181 318.357,344.233 317.576,343.563 C316.878,342.977 315.986,342.838 315.288,342.838 C312.778,342.838 311.411,344.623 310.937,345.265 C310.797,343.675 309.626,342.838 308.37,342.838 C307.087,342.838 306.557,343.926 306.306,344.428 C305.804,345.404 305.441,347.05 305.441,347.134 C305.441,347.413 305.72,347.413 305.776,347.413 C306.055,347.413 306.083,347.385 306.25,346.771 C306.725,344.791 307.282,343.452 308.287,343.452 C308.733,343.452 309.151,343.675 309.151,344.735 C309.151,345.321 309.068,345.627 308.705,347.078 z" fill="#000000"/>
      <path d="M330.588,361.736 C330.452,362.283 330.413,362.439 329.632,362.439 C329.378,362.439 329.104,362.439 329.104,362.849 C329.104,363.064 329.28,363.142 329.378,363.142 C329.886,363.142 330.53,363.064 331.057,363.064 C331.721,363.064 332.463,363.142 333.107,363.142 C333.283,363.142 333.498,363.083 333.498,362.712 C333.498,362.439 333.225,362.439 332.99,362.439 C332.561,362.439 332.033,362.439 332.033,362.205 C332.033,362.107 332.17,361.599 332.248,361.306 C332.483,360.271 332.756,359.217 332.971,358.397 C333.205,358.787 333.81,359.549 334.982,359.549 C337.364,359.549 340,356.913 340,354.003 C340,351.719 338.419,350.742 337.071,350.742 C335.861,350.742 334.826,351.562 334.299,352.109 C333.967,350.996 332.873,350.742 332.287,350.742 C331.526,350.742 331.057,351.25 330.745,351.777 C330.354,352.441 330.042,353.613 330.042,353.73 C330.042,353.984 330.315,353.984 330.374,353.984 C330.647,353.984 330.667,353.925 330.803,353.398 C331.096,352.265 331.467,351.289 332.229,351.289 C332.736,351.289 332.873,351.719 332.873,352.246 C332.873,352.461 332.834,352.715 332.815,352.832 z M334.279,353.086 C335.412,351.582 336.388,351.289 337.013,351.289 C337.774,351.289 338.438,351.855 338.438,353.183 C338.438,353.984 338.009,355.976 337.423,357.108 C336.935,358.065 335.978,359.002 334.982,359.002 C333.596,359.002 333.244,357.499 333.244,357.303 C333.244,357.225 333.283,357.089 333.303,357.01 z" fill="#000000"/>
    </g>
    <g>
      <path d="M287.433,403.505 L301.99,375.56" fill-opacity="0" stroke="#000000" stroke-width="2"/>
      <path d="M301.99,375.56 L303.654,387.796" fill-opacity="0" stroke="#000000" stroke-width="2"/>
      <path d="M303.654,387.796 L318.21,359.851" fill-opacity="0" stroke="#000000" stroke-width="2"/>
    </g>
    <g id="Layer_1">
      <path d="M142.111,174.077 C142.111,174.049 142.111,173.77 141.748,173.77 C141.106,173.77 139.07,173.993 138.345,174.049 C138.122,174.077 137.815,174.105 137.815,174.635 C137.815,174.942 138.094,174.942 138.512,174.942 C139.851,174.942 139.879,175.193 139.879,175.416 L139.795,175.974 L136.28,189.921 C136.197,190.228 136.141,190.423 136.141,190.87 C136.141,192.46 137.368,193.436 138.679,193.436 C139.6,193.436 140.297,192.878 140.772,191.874 C141.274,190.814 141.608,189.196 141.608,189.14 C141.608,188.861 141.357,188.861 141.274,188.861 C140.995,188.861 140.967,188.973 140.883,189.363 C140.409,191.177 139.879,192.822 138.763,192.822 C137.926,192.822 137.926,191.93 137.926,191.539 C137.926,190.87 137.954,190.73 138.094,190.2 z" fill="#000000"/>
      <path d="M149.779,184.896 C149.779,184.369 149.74,184.35 149.194,184.35 C147.944,185.58 146.167,185.599 145.366,185.599 L145.366,186.302 C145.835,186.302 147.124,186.302 148.198,185.756 L148.198,195.714 C148.198,196.359 148.198,196.612 146.245,196.612 L145.503,196.612 L145.503,197.315 C145.855,197.296 148.256,197.237 148.979,197.237 C149.584,197.237 152.045,197.296 152.474,197.315 L152.474,196.612 L151.732,196.612 C149.779,196.612 149.779,196.359 149.779,195.714 z" fill="#000000"/>
    </g>
    <g id="Layer_1">
      <path d="M233.362,331.249 C233.362,331.221 233.362,330.942 232.999,330.942 C232.357,330.942 230.321,331.165 229.596,331.221 C229.373,331.249 229.066,331.277 229.066,331.807 C229.066,332.114 229.345,332.114 229.763,332.114 C231.102,332.114 231.13,332.365 231.13,332.588 L231.046,333.146 L227.531,347.093 C227.448,347.4 227.392,347.595 227.392,348.042 C227.392,349.632 228.619,350.608 229.93,350.608 C230.851,350.608 231.548,350.05 232.023,349.046 C232.525,347.986 232.859,346.368 232.859,346.312 C232.859,346.033 232.608,346.033 232.525,346.033 C232.246,346.033 232.218,346.145 232.134,346.535 C231.66,348.349 231.13,349.994 230.014,349.994 C229.177,349.994 229.177,349.102 229.177,348.711 C229.177,348.042 229.205,347.902 229.345,347.372 z" fill="#000000"/>
      <path d="M244.35,350.933 L243.686,350.933 C243.627,351.363 243.432,352.515 243.178,352.71 C243.022,352.828 241.519,352.828 241.245,352.828 L237.652,352.828 C239.703,351.012 240.386,350.465 241.558,349.547 C243.003,348.395 244.35,347.184 244.35,345.329 C244.35,342.967 242.28,341.522 239.781,341.522 C237.359,341.522 235.719,343.22 235.719,345.017 C235.719,346.013 236.559,346.11 236.754,346.11 C237.223,346.11 237.789,345.778 237.789,345.075 C237.789,344.724 237.652,344.041 236.637,344.041 C237.242,342.654 238.57,342.225 239.488,342.225 C241.44,342.225 242.456,343.748 242.456,345.329 C242.456,347.028 241.245,348.375 240.62,349.078 L235.914,353.726 C235.719,353.902 235.719,353.941 235.719,354.487 L243.764,354.487 z" fill="#000000"/>
    </g>
    <path d="M101.605,91.631 C94.92,91.631 89.5,86.211 89.5,79.526 C89.5,72.84 94.92,67.421 101.605,67.421 C108.29,67.421 113.71,72.84 113.71,79.526 C113.71,86.211 108.29,91.631 101.605,91.631 z" fill="#000000"/>
    <g>
      <path d="M116.5,80.103 L162.9,80.103" fill-opacity="0" stroke="#000000" stroke-width="3"/>
      <path d="M162.9,84.303 L174.1,80.103 L162.9,75.903 z" fill="#000000" fill-opacity="1" stroke="#000000" stroke-width="3" stroke-opacity="1"/>
    </g>
    <path d="M188.954,83.768 C189.261,84.911 190.238,85.637 191.437,85.637 C192.413,85.637 193.055,84.995 193.501,84.102 C193.976,83.098 194.338,81.396 194.338,81.341 C194.338,81.062 194.087,81.062 194.003,81.062 C193.724,81.062 193.697,81.173 193.613,81.564 C193.222,83.126 192.692,85.023 191.521,85.023 C190.935,85.023 190.656,84.66 190.656,83.74 C190.656,83.126 190.991,81.815 191.214,80.839 L191.995,77.826 C192.079,77.407 192.358,76.347 192.469,75.929 C192.609,75.287 192.888,74.227 192.888,74.06 C192.888,73.558 192.497,73.307 192.079,73.307 C191.939,73.307 191.214,73.335 190.991,74.283 C190.461,76.32 189.233,81.201 188.899,82.68 C188.871,82.791 187.755,85.023 185.719,85.023 C184.268,85.023 183.989,83.768 183.989,82.735 C183.989,81.173 184.77,78.97 185.495,77.045 C185.83,76.208 185.97,75.817 185.97,75.287 C185.97,74.032 185.077,73 183.682,73 C181.032,73 180,77.045 180,77.296 C180,77.575 180.279,77.575 180.335,77.575 C180.614,77.575 180.642,77.519 180.781,77.073 C181.478,74.646 182.538,73.614 183.598,73.614 C183.85,73.614 184.296,73.642 184.296,74.534 C184.296,75.204 183.989,76.013 183.822,76.431 C182.79,79.193 182.204,80.922 182.204,82.289 C182.204,84.939 184.128,85.637 185.635,85.637 C187.476,85.637 188.48,84.381 188.954,83.768 z" fill="#000000" id="Layer_1"/>
  </g>
  <g id="Layer_2" display="none">
    <g>
      <path d="M151.627,44.03 C157.15,44.03 161.627,45.771 161.627,47.919 L161.627,110.141 C161.627,112.289 157.15,114.03 151.627,114.03 L51.627,114.03 C46.104,114.03 41.627,112.289 41.627,110.141 L41.627,47.919 C41.627,45.771 46.104,44.03 51.627,44.03 L151.627,44.03 z" clip-path="url(#Clip_9)" filter="url(#Shadow_10)" fill="rgba(0,0,0,0.75)"/>
      <path d="M51.627,44.03 L151.627,44.03 C157.15,44.03 161.627,45.771 161.627,47.919 L161.627,110.141 C161.627,112.289 157.15,114.03 151.627,114.03 L51.627,114.03 C46.104,114.03 41.627,112.289 41.627,110.141 L41.627,47.919 C41.627,45.771 46.104,44.03 51.627,44.03 z" fill="url(#Gradient_3)"/>
    </g>
  </g>
</svg>
