<?xml version="1.0" encoding="UTF-8"?>
<!DOCTYPE svg PUBLIC "-//W3C//DTD SVG 1.1//EN" "http://www.w3.org/Graphics/SVG/1.1/DTD/svg11.dtd">
<svg version="1.1" xmlns="http://www.w3.org/2000/svg" xmlns:xlink="http://www.w3.org/1999/xlink" x="0" y="0" width="500" height="288" viewBox="0, 0, 500, 288">
  <defs>
    <clipPath id="Clip_1">
      <path d="M21.471,75 L254.764,75 L254.764,142 L21.471,142 z M183.554,83.023 C182.647,83.122 182.15,83.158 181.826,84.137 L171.296,126.308 L160.766,84.137 C160.388,82.621 158.234,82.621 157.855,84.137 L147.325,126.308 L136.795,84.137 C136.417,82.621 134.263,82.621 133.885,84.137 L123.354,126.308 L112.824,84.137 C112.446,82.621 110.292,82.621 109.914,84.137 L99.384,126.308 L88.853,84.137 C88.516,82.785 86.679,82.583 86.056,83.83 L74.485,107 L27.471,107 L27.471,110 L75.413,110 C75.981,110 76.501,109.679 76.755,109.17 L86.926,88.802 L97.928,132.863 C98.307,134.379 100.461,134.379 100.839,132.863 L111.369,90.692 L121.899,132.863 C122.278,134.379 124.431,134.379 124.81,132.863 L135.34,90.692 L145.87,132.863 C146.249,134.379 148.402,134.379 148.781,132.863 L159.311,90.692 L169.841,132.863 C170.219,134.379 172.373,134.379 172.752,132.863 L183.753,88.802 L193.925,109.17 C194.179,109.679 194.699,110 195.267,110 L248.764,110 L248.764,107 L196.195,107 L184.624,83.83 C184.168,83.19 184.484,83.505 183.554,83.023 z"/>
    </clipPath>
    <filter id="Shadow_2">
      <feGaussianBlur in="SourceAlpha" stdDeviation="2.5"/>
      <feOffset dx="0" dy="2" result="offsetblur"/>
      <feFlood flood-color="#000000"/>
      <feComposite in2="offsetblur" operator="in"/>
    </filter>
    <clipPath id="Clip_3">
      <path d="M21.471,171 L129.355,171 L129.355,190 L21.471,190 z M123.355,179 L27.471,179 L27.471,182 L123.355,182 L123.355,179 z"/>
    </clipPath>
    <filter id="Shadow_4">
      <feGaussianBlur in="SourceAlpha" stdDeviation="2.5"/>
      <feOffset dx="0" dy="2" result="offsetblur"/>
      <feFlood flood-color="#000000"/>
      <feComposite in2="offsetblur" operator="in"/>
    </filter>
    <clipPath id="Clip_5">
      <path d="M105.369,147 L154.826,147 L154.826,214 L105.369,214 z M147.326,155 L111.369,155 L111.369,158 L145.826,158 L145.826,203 L111.369,203 L111.369,206 L147.326,206 C148.154,206 148.826,205.328 148.826,204.5 L148.826,156.5 C148.826,155.672 148.154,155 147.326,155 z"/>
    </clipPath>
    <filter id="Shadow_6">
      <feGaussianBlur in="SourceAlpha" stdDeviation="2.5"/>
      <feOffset dx="0" dy="2" result="offsetblur"/>
      <feFlood flood-color="#000000"/>
      <feComposite in2="offsetblur" operator="in"/>
    </filter>
    <clipPath id="Clip_7">
      <path d="M115.855,148.5 L130.855,148.5 L130.855,212.5 L115.855,212.5 z M124.855,156.5 L121.855,156.5 L121.855,204.5 L124.855,204.5 L124.855,156.5 z"/>
    </clipPath>
    <filter id="Shadow_8">
      <feGaussianBlur in="SourceAlpha" stdDeviation="2.5"/>
      <feOffset dx="0" dy="2" result="offsetblur"/>
      <feFlood flood-color="#000000"/>
      <feComposite in2="offsetblur" operator="in"/>
    </filter>
    <clipPath id="Clip_9">
      <path d="M141.326,171 L254.704,171 L254.704,190 L141.326,190 z M248.704,179 L147.326,179 L147.326,182 L248.704,182 L248.704,179 z"/>
    </clipPath>
    <filter id="Shadow_10">
      <feGaussianBlur in="SourceAlpha" stdDeviation="2.5"/>
      <feOffset dx="0" dy="2" result="offsetblur"/>
      <feFlood flood-color="#000000"/>
      <feComposite in2="offsetblur" operator="in"/>
    </filter>
    <clipPath id="Clip_11">
      <path d="M241.703,64 L397.528,64 L397.528,224 L241.703,224 z M379.543,72 L259.688,72 C253.069,72 247.703,75.582 247.703,80 L247.703,208 C247.703,212.418 253.069,216 259.688,216 L379.543,216 C386.162,216 391.528,212.418 391.528,208 L391.528,80 C391.528,75.582 386.162,72 379.543,72 z"/>
    </clipPath>
    <filter id="Shadow_12">
      <feGaussianBlur in="SourceAlpha" stdDeviation="2.5"/>
      <feOffset dx="0" dy="2" result="offsetblur"/>
      <feFlood flood-color="#000000"/>
      <feComposite in2="offsetblur" operator="in"/>
    </filter>
    <linearGradient id="Gradient_1" gradientUnits="userSpaceOnUse" x1="247.703" y1="144" x2="391.528" y2="144">
      <stop offset="0" stop-color="#555555"/>
      <stop offset="0.153" stop-color="#BFBFBF"/>
      <stop offset="0.851" stop-color="#B4B4B4"/>
      <stop offset="1" stop-color="#6A6A6A"/>
    </linearGradient>
  </defs>
  <g id="Layer_1">
    <g>
      <path d="M320.116,79.5 L320.116,24.5 L371.437,24.5" fill-opacity="0" stroke="#000000" stroke-width="3" stroke-linecap="round" stroke-linejoin="round"/>
      <path d="M371.437,28.7 L382.637,24.5 L371.437,20.3 z" fill="#000000" fill-opacity="1" stroke="#000000" stroke-width="3" stroke-opacity="1"/>
    </g>
    <g>
      <path d="M27.471,18.5 L27.471,270.5" fill-opacity="0" stroke="#000000" stroke-width="5" stroke-linecap="square" stroke-miterlimit="7"/>
      <path d="M27.471,30.5 L3.5,54.5" fill-opacity="0" stroke="#000000" stroke-width="5"/>
      <path d="M27.471,66.5 L3.5,90.5" fill-opacity="0" stroke="#000000" stroke-width="5"/>
      <path d="M27.471,102.5 L3.5,126.5" fill-opacity="0" stroke="#000000" stroke-width="5"/>
      <path d="M27.471,138.5 L3.5,162.5" fill-opacity="0" stroke="#000000" stroke-width="5"/>
      <path d="M27.471,174.5 L3.5,198.5" fill-opacity="0" stroke="#000000" stroke-width="5"/>
      <path d="M27.471,210.5 L3.5,234.5" fill-opacity="0" stroke="#000000" stroke-width="5"/>
      <path d="M27.471,246.5 L3.5,270.5" fill-opacity="0" stroke="#000000" stroke-width="5"/>
    </g>
    <g>
      <g>
        <path d="M183.554,83.023 C184.484,83.505 184.168,83.19 184.624,83.83 L196.195,107 L248.764,107 L248.764,110 L195.267,110 C194.699,110 194.179,109.679 193.925,109.17 L183.753,88.802 L172.752,132.863 C172.373,134.379 170.219,134.379 169.841,132.863 L159.311,90.692 L148.781,132.863 C148.402,134.379 146.249,134.379 145.87,132.863 L135.34,90.692 L124.81,132.863 C124.431,134.379 122.278,134.379 121.899,132.863 L111.369,90.692 L100.839,132.863 C100.461,134.379 98.307,134.379 97.928,132.863 L86.926,88.802 L76.755,109.17 C76.501,109.679 75.981,110 75.413,110 L27.471,110 L27.471,107 L74.485,107 L86.056,83.83 C86.679,82.583 88.516,82.785 88.853,84.137 L99.384,126.308 L109.914,84.137 C110.292,82.621 112.446,82.621 112.824,84.137 L123.354,126.308 L133.885,84.137 C134.263,82.621 136.417,82.621 136.795,84.137 L147.325,126.308 L157.855,84.137 C158.234,82.621 160.388,82.621 160.766,84.137 L171.296,126.308 L181.826,84.137 C182.15,83.158 182.647,83.122 183.554,83.023 z" clip-path="url(#Clip_1)" filter="url(#Shadow_2)" fill="rgba(0,0,0,0.75)"/>
        <path d="M27.471,108.5 L75.413,108.5 L87.398,84.5 L99.384,132.5 L111.369,84.5 L123.355,132.5 L135.34,84.5 L147.325,132.5 L159.311,84.5 L171.296,132.5 L183.282,84.5 L195.267,108.5 L248.764,108.5" fill-opacity="0" stroke="#000000" stroke-width="3" stroke-linejoin="round"/>
      </g>
      <g>
        <g>
          <g>
            <path d="M123.355,179 L123.355,182 L27.471,182 L27.471,179 L123.355,179 z" clip-path="url(#Clip_3)" filter="url(#Shadow_4)" fill="rgba(0,0,0,0.75)"/>
            <path d="M27.471,180.5 L123.355,180.5" fill-opacity="0" stroke="#000000" stroke-width="3" stroke-linejoin="round"/>
          </g>
          <g>
            <g>
              <path d="M147.326,155 C148.154,155 148.826,155.672 148.826,156.5 L148.826,204.5 C148.826,205.328 148.154,206 147.326,206 L111.369,206 L111.369,203 L145.826,203 L145.826,158 L111.369,158 L111.369,155 L147.326,155 z" clip-path="url(#Clip_5)" filter="url(#Shadow_6)" fill="rgba(0,0,0,0.75)"/>
              <path d="M111.369,156.5 L147.326,156.5 L147.326,204.5 L111.369,204.5" fill-opacity="0" stroke="#000000" stroke-width="3" stroke-linejoin="round"/>
            </g>
            <g>
              <path d="M124.855,156.5 L124.855,204.5 L121.855,204.5 L121.855,156.5 L124.855,156.5 z" clip-path="url(#Clip_7)" filter="url(#Shadow_8)" fill="rgba(0,0,0,0.75)"/>
              <path d="M123.355,156.5 L123.355,204.5" fill-opacity="0" stroke="#000000" stroke-width="3" stroke-linejoin="round"/>
            </g>
          </g>
          <g>
            <path d="M248.704,179 L248.704,182 L147.326,182 L147.326,179 L248.704,179 z" clip-path="url(#Clip_9)" filter="url(#Shadow_10)" fill="rgba(0,0,0,0.75)"/>
            <path d="M147.326,180.5 L248.705,180.5" fill-opacity="0" stroke="#000000" stroke-width="3" stroke-linejoin="round"/>
          </g>
        </g>
      </g>
    </g>
    <g>
      <path d="M379.543,72 C386.162,72 391.528,75.582 391.528,80 L391.528,208 C391.528,212.418 386.162,216 379.543,216 L259.688,216 C253.069,216 247.703,212.418 247.703,208 L247.703,80 C247.703,75.582 253.069,72 259.688,72 L379.543,72 z" clip-path="url(#Clip_11)" filter="url(#Shadow_12)" fill="rgba(0,0,0,0.75)"/>
      <path d="M259.688,72 L379.543,72 C386.162,72 391.528,75.582 391.528,80 L391.528,208 C391.528,212.418 386.162,216 379.543,216 L259.688,216 C253.069,216 247.703,212.418 247.703,208 L247.703,80 C247.703,75.582 253.069,72 259.688,72 z" fill="url(#Gradient_1)"/>
    </g>
    <path d="M298.69,153.355 C298.511,154.252 298.152,155.627 298.152,155.925 C298.152,157.001 298.988,157.539 299.884,157.539 C300.6,157.539 301.675,157.061 302.093,155.866 C302.153,155.746 302.869,152.937 303.227,151.442 L304.541,146.062 C304.899,144.747 305.257,143.432 305.556,142.057 C305.794,141.041 306.272,139.308 306.332,139.069 C307.227,137.216 310.392,131.776 316.063,131.776 C318.75,131.776 319.287,133.988 319.287,135.96 C319.287,137.455 318.869,139.128 318.392,140.922 L316.72,147.856 L315.526,152.399 C315.287,153.594 314.75,155.627 314.75,155.925 C314.75,157.001 315.586,157.539 316.481,157.539 C318.332,157.539 318.69,156.045 319.168,154.132 C320.004,150.785 322.213,142.057 322.75,139.726 C322.929,138.949 326.093,131.776 332.601,131.776 C335.168,131.776 335.825,133.808 335.825,135.96 C335.825,139.368 333.317,146.182 332.123,149.35 C331.586,150.785 331.347,151.442 331.347,152.638 C331.347,155.447 333.437,157.539 336.243,157.539 C341.855,157.539 344.064,148.812 344.064,148.334 C344.064,147.736 343.527,147.736 343.348,147.736 C342.75,147.736 342.75,147.915 342.452,148.812 C341.556,151.98 339.646,156.224 336.362,156.224 C335.347,156.224 334.929,155.627 334.929,154.252 C334.929,152.757 335.467,151.323 336.004,150.008 C337.138,146.899 339.646,140.264 339.646,136.857 C339.646,132.972 337.258,130.461 332.78,130.461 C328.302,130.461 325.258,133.091 323.049,136.259 C322.989,135.482 322.81,133.45 321.138,132.015 C319.645,130.76 317.735,130.461 316.242,130.461 C310.869,130.461 307.944,134.287 306.929,135.661 C306.63,132.254 304.123,130.461 301.436,130.461 C298.69,130.461 297.555,132.792 297.018,133.868 C295.943,135.96 295.167,139.487 295.167,139.666 C295.167,140.264 295.764,140.264 295.884,140.264 C296.481,140.264 296.54,140.204 296.899,138.889 C297.914,134.645 299.108,131.776 301.257,131.776 C302.212,131.776 303.108,132.254 303.108,134.526 C303.108,135.781 302.929,136.439 302.153,139.547 z" fill="#000000" id="Layer_1"/>
    <path d="M142.299,221.628 C141.343,221.628 140.507,221.628 139.672,222.465 C138.716,223.361 138.597,224.377 138.597,224.796 C138.597,226.23 139.672,226.888 140.806,226.888 C142.537,226.888 144.149,225.453 144.149,223.062 C144.149,220.133 141.343,217.922 137.104,217.922 C129.044,217.922 121.104,226.47 121.104,234.898 C121.104,240.278 124.567,245 130.776,245 C139.313,245 144.328,238.664 144.328,237.946 C144.328,237.588 143.97,237.169 143.612,237.169 C143.313,237.169 143.194,237.289 142.836,237.767 C138.119,243.685 131.612,243.685 130.895,243.685 C127.134,243.685 125.522,240.756 125.522,237.169 C125.522,234.719 126.716,228.92 128.746,225.214 C130.597,221.807 133.88,219.237 137.164,219.237 C139.194,219.237 141.463,220.014 142.299,221.628 z" fill="#000000" id="Layer_1"/>
    <path d="M409.209,19.369 C409.568,17.814 410.941,12.315 415.12,12.315 C415.419,12.315 416.851,12.315 418.105,13.092 C416.434,13.391 415.239,14.885 415.239,16.32 C415.239,17.276 415.896,18.412 417.508,18.412 C418.822,18.412 420.732,17.336 420.732,14.945 C420.732,11.837 417.21,11 415.18,11 C411.717,11 409.627,14.168 408.911,15.543 C407.418,11.598 404.194,11 402.463,11 C396.254,11 392.851,18.711 392.851,20.205 C392.851,20.803 393.448,20.803 393.567,20.803 C394.045,20.803 394.224,20.684 394.343,20.146 C396.373,13.809 400.314,12.315 402.344,12.315 C403.478,12.315 405.568,12.853 405.568,16.32 C405.568,18.173 404.553,22.178 402.344,30.547 C401.388,34.253 399.299,36.763 396.672,36.763 C396.314,36.763 394.94,36.763 393.687,35.986 C395.179,35.687 396.493,34.432 396.493,32.758 C396.493,31.144 395.179,30.666 394.284,30.666 C392.493,30.666 391,32.22 391,34.133 C391,36.883 393.985,38.078 396.612,38.078 C400.552,38.078 402.702,33.894 402.881,33.535 C403.597,35.747 405.747,38.078 409.329,38.078 C415.478,38.078 418.881,30.367 418.881,28.873 C418.881,28.275 418.344,28.275 418.165,28.275 C417.628,28.275 417.508,28.514 417.389,28.933 C415.419,35.329 411.359,36.763 409.448,36.763 C407.12,36.763 406.165,34.85 406.165,32.818 C406.165,31.503 406.523,30.188 407.18,27.558 z" fill="#000000" id="Layer_1"/>
    <g>
      <path d="M393.139,144.5 L434.867,144.5" fill-opacity="0" stroke="#000000" stroke-width="5"/>
      <path d="M434.867,149.9 L449.267,144.5 L434.867,139.1 z" fill="#000000" fill-opacity="1" stroke="#000000" stroke-width="5" stroke-opacity="1"/>
    </g>
    <path d="M478.188,153.073 C478.845,155.524 480.938,157.078 483.508,157.078 C485.6,157.078 486.975,155.704 487.931,153.791 C488.948,151.639 489.725,147.992 489.725,147.873 C489.725,147.275 489.187,147.275 489.007,147.275 C488.41,147.275 488.35,147.514 488.171,148.351 C487.334,151.699 486.198,155.763 483.687,155.763 C482.432,155.763 481.834,154.986 481.834,153.014 C481.834,151.699 482.552,148.889 483.03,146.797 L484.704,140.341 C484.883,139.445 485.481,137.173 485.72,136.276 C486.019,134.902 486.616,132.63 486.616,132.271 C486.616,131.196 485.779,130.658 484.883,130.658 C484.584,130.658 483.03,130.717 482.552,132.75 C481.416,137.113 478.786,147.574 478.068,150.742 C478.009,150.981 475.618,155.763 471.254,155.763 C468.146,155.763 467.548,153.073 467.548,150.862 C467.548,147.514 469.222,142.792 470.776,138.667 C471.493,136.874 471.792,136.037 471.792,134.902 C471.792,132.212 469.879,130 466.89,130 C461.212,130 459,138.667 459,139.205 C459,139.803 459.598,139.803 459.717,139.803 C460.315,139.803 460.375,139.684 460.674,138.727 C462.168,133.527 464.44,131.315 466.711,131.315 C467.249,131.315 468.205,131.375 468.205,133.288 C468.205,134.722 467.548,136.456 467.189,137.352 C464.978,143.27 463.722,146.976 463.722,149.905 C463.722,155.584 467.847,157.078 471.075,157.078 C475.02,157.078 477.172,154.388 478.188,153.073 z" fill="#000000" id="Layer_1"/>
  </g>
  <g id="Layer_3" display="none">
    <path d="M135.868,36.658 C135.868,36.598 135.868,36 135.091,36 C133.716,36 129.352,36.478 127.798,36.598 C127.32,36.658 126.662,36.717 126.662,37.793 C126.662,38.511 127.2,38.511 128.097,38.511 C130.966,38.511 131.086,38.929 131.086,39.527 L130.907,40.722 L122.239,75.153 C122,75.99 122,76.109 122,76.468 C122,77.843 123.196,78.142 123.733,78.142 C124.511,78.142 125.407,77.604 125.766,76.887 C126.065,76.349 128.755,65.29 129.113,63.796 C131.146,63.975 136.047,64.931 136.047,68.877 C136.047,69.295 136.047,69.534 135.868,70.132 C135.748,70.849 135.629,71.566 135.629,72.224 C135.629,75.751 138.02,78.142 141.128,78.142 C142.921,78.142 144.535,77.185 145.85,74.974 C147.345,72.344 148.002,69.056 148.002,68.936 C148.002,68.339 147.464,68.339 147.285,68.339 C146.687,68.339 146.628,68.578 146.448,69.415 C145.253,73.778 143.878,76.827 141.248,76.827 C140.112,76.827 139.335,76.169 139.335,74.017 C139.335,73.001 139.574,71.626 139.813,70.67 C140.052,69.654 140.052,69.415 140.052,68.817 C140.052,64.931 136.286,63.198 131.205,62.54 C133.058,61.464 134.971,59.552 136.346,58.117 C139.215,54.949 141.965,52.379 144.894,52.379 C145.253,52.379 145.312,52.379 145.432,52.438 C146.149,52.558 146.209,52.558 146.687,52.916 C146.807,52.976 146.807,53.036 146.926,53.156 C144.057,53.335 143.519,55.666 143.519,56.383 C143.519,57.34 144.177,58.476 145.791,58.476 C147.345,58.476 149.078,57.161 149.078,54.829 C149.078,53.036 147.704,51.063 145.014,51.063 C143.34,51.063 140.59,51.542 136.286,56.324 C134.254,58.595 131.923,60.986 129.651,61.883 z" fill="#000000" id="Layer_1"/>
  </g>
  <g id="Layer_2">
    <g id="Layer_1">
      <path d="M101.846,20.229 C101.846,20.169 101.846,19.571 101.07,19.571 C99.697,19.571 95.338,20.05 93.786,20.169 C93.309,20.229 92.652,20.289 92.652,21.365 C92.652,22.082 93.189,22.082 94.085,22.082 C96.95,22.082 97.07,22.5 97.07,23.098 L96.891,24.294 L88.234,58.724 C87.995,59.561 87.995,59.681 87.995,60.04 C87.995,61.414 89.189,61.713 89.726,61.713 C90.503,61.713 91.398,61.175 91.756,60.458 C92.055,59.92 94.741,48.861 95.1,47.367 C97.13,47.546 102.025,48.503 102.025,52.448 C102.025,52.866 102.025,53.106 101.846,53.703 C101.727,54.421 101.607,55.138 101.607,55.795 C101.607,59.322 103.995,61.713 107.1,61.713 C108.891,61.713 110.503,60.757 111.817,58.545 C113.309,55.915 113.966,52.627 113.966,52.508 C113.966,51.91 113.429,51.91 113.249,51.91 C112.652,51.91 112.593,52.149 112.414,52.986 C111.22,57.35 109.846,60.398 107.219,60.398 C106.085,60.398 105.309,59.741 105.309,57.589 C105.309,56.573 105.548,55.198 105.787,54.241 C106.025,53.225 106.025,52.986 106.025,52.388 C106.025,48.503 102.264,46.769 97.189,46.112 C99.04,45.036 100.951,43.123 102.324,41.688 C105.19,38.52 107.936,35.95 110.861,35.95 C111.22,35.95 111.279,35.95 111.399,36.01 C112.115,36.129 112.175,36.129 112.652,36.488 C112.772,36.548 112.772,36.607 112.891,36.727 C110.025,36.906 109.488,39.238 109.488,39.955 C109.488,40.911 110.145,42.047 111.757,42.047 C113.309,42.047 115.041,40.732 115.041,38.401 C115.041,36.607 113.667,34.635 110.981,34.635 C109.309,34.635 106.563,35.113 102.264,39.895 C100.234,42.167 97.906,44.558 95.637,45.454 z" fill="#000000"/>
      <path d="M137.439,75.402 C137.439,75.223 137.439,75.103 136.424,74.087 C128.961,66.555 127.051,55.257 127.051,46.112 C127.051,35.711 129.319,25.31 136.663,17.838 C137.439,17.121 137.439,17.001 137.439,16.822 C137.439,16.403 137.2,16.224 136.842,16.224 C136.245,16.224 130.872,20.289 127.349,27.88 C124.304,34.456 123.588,41.091 123.588,46.112 C123.588,50.774 124.245,58.007 127.528,64.762 C131.111,72.114 136.245,76 136.842,76 C137.2,76 137.439,75.82 137.439,75.402 z" fill="#000000"/>
      <path d="M160.834,43.003 C161.192,41.449 162.565,35.95 166.745,35.95 C167.043,35.95 168.476,35.95 169.73,36.727 C168.058,37.026 166.864,38.52 166.864,39.955 C166.864,40.911 167.521,42.047 169.133,42.047 C170.446,42.047 172.357,40.971 172.357,38.58 C172.357,35.472 168.834,34.635 166.804,34.635 C163.342,34.635 161.252,37.803 160.535,39.178 C159.043,35.233 155.819,34.635 154.088,34.635 C147.878,34.635 144.475,42.346 144.475,43.84 C144.475,44.438 145.072,44.438 145.192,44.438 C145.669,44.438 145.848,44.319 145.968,43.781 C147.998,37.444 151.938,35.95 153.968,35.95 C155.102,35.95 157.192,36.488 157.192,39.955 C157.192,41.808 156.177,45.813 153.968,54.182 C153.013,57.888 150.923,60.398 148.296,60.398 C147.938,60.398 146.565,60.398 145.311,59.621 C146.804,59.322 148.117,58.067 148.117,56.393 C148.117,54.779 146.804,54.301 145.908,54.301 C144.117,54.301 142.625,55.855 142.625,57.768 C142.625,60.518 145.61,61.713 148.237,61.713 C152.177,61.713 154.326,57.529 154.505,57.17 C155.222,59.382 157.371,61.713 160.953,61.713 C167.103,61.713 170.506,54.002 170.506,52.508 C170.506,51.91 169.969,51.91 169.789,51.91 C169.252,51.91 169.133,52.149 169.013,52.568 C167.043,58.964 162.983,60.398 161.073,60.398 C158.744,60.398 157.789,58.485 157.789,56.453 C157.789,55.138 158.147,53.823 158.804,51.193 z" fill="#000000"/>
      <path d="M192.27,46.112 C192.27,41.449 191.613,34.216 188.33,27.462 C184.747,20.109 179.613,16.224 179.016,16.224 C178.658,16.224 178.419,16.463 178.419,16.822 C178.419,17.001 178.419,17.121 179.553,18.197 C185.404,24.114 188.807,33.619 188.807,46.112 C188.807,56.333 186.598,66.854 179.195,74.386 C178.419,75.103 178.419,75.223 178.419,75.402 C178.419,75.76 178.658,76 179.016,76 C179.613,76 184.986,71.935 188.509,64.343 C191.553,57.768 192.27,51.133 192.27,46.112 z" fill="#000000"/>
    </g>
  </g>
</svg>
