<?xml version="1.0" encoding="UTF-8"?>
<!DOCTYPE svg PUBLIC "-//W3C//DTD SVG 1.1//EN" "http://www.w3.org/Graphics/SVG/1.1/DTD/svg11.dtd">
<svg version="1.1" xmlns="http://www.w3.org/2000/svg" xmlns:xlink="http://www.w3.org/1999/xlink" x="0" y="0" width="330" height="241" viewBox="0, 0, 330, 241">
  <defs>
    <clipPath id="Clip_1">
      <path d="M154,157 L188,157 L188,206 L154,206 z M171,165 C164.925,165 160,169.925 160,176 L160,198 L182,198 L182,176 C182,169.925 177.075,165 171,165 z"/>
    </clipPath>
    <filter id="Shadow_2">
      <feGaussianBlur in="SourceAlpha" stdDeviation="2.5"/>
      <feOffset dx="0" dy="2" result="offsetblur"/>
      <feFlood flood-color="#000000"/>
      <feComposite in2="offsetblur" operator="in"/>
    </filter>
    <linearGradient id="Gradient_1" gradientUnits="userSpaceOnUse" x1="-182" y1="-181.5" x2="-160" y2="-181.5" gradientTransform="matrix(-1, 0, -0, -1, 0, 0)">
      <stop offset="0.012" stop-color="#6A6A6A"/>
      <stop offset="0.248" stop-color="#BFBFBF"/>
      <stop offset="0.751" stop-color="#D4D4D4"/>
      <stop offset="1" stop-color="#808080"/>
    </linearGradient>
    <clipPath id="Clip_3">
      <path d="M105.921,193.464 L154.921,193.464 L154.921,246.464 L105.921,246.464 z M130.421,201.464 C120.204,201.464 111.921,209.746 111.921,219.964 C111.921,230.181 120.204,238.464 130.421,238.464 C140.639,238.464 148.921,230.181 148.921,219.964 C148.921,209.746 140.639,201.464 130.421,201.464 z"/>
    </clipPath>
    <filter id="Shadow_4">
      <feGaussianBlur in="SourceAlpha" stdDeviation="2.5"/>
      <feOffset dx="0" dy="2" result="offsetblur"/>
      <feFlood flood-color="#000000"/>
      <feComposite in2="offsetblur" operator="in"/>
    </filter>
    <clipPath id="Clip_5">
      <path d="M189.921,193.464 L238.921,193.464 L238.921,246.464 L189.921,246.464 z M214.421,201.464 C204.204,201.464 195.921,209.746 195.921,219.964 C195.921,230.181 204.204,238.464 214.421,238.464 C224.639,238.464 232.921,230.181 232.921,219.964 C232.921,209.746 224.639,201.464 214.421,201.464 z"/>
    </clipPath>
    <filter id="Shadow_6">
      <feGaussianBlur in="SourceAlpha" stdDeviation="2.5"/>
      <feOffset dx="0" dy="2" result="offsetblur"/>
      <feFlood flood-color="#000000"/>
      <feComposite in2="offsetblur" operator="in"/>
    </filter>
    <clipPath id="Clip_7">
      <path d="M93.921,172 L249.921,172 L249.921,230.464 L93.921,230.464 z M231.921,180 L111.921,180 C105.294,180 99.921,181.056 99.921,182.359 L99.921,220.104 C99.921,221.407 105.294,222.464 111.921,222.464 L231.921,222.464 C238.549,222.464 243.921,221.407 243.921,220.104 L243.921,182.359 C243.921,181.056 238.549,180 231.921,180 z"/>
    </clipPath>
    <filter id="Shadow_8">
      <feGaussianBlur in="SourceAlpha" stdDeviation="2.5"/>
      <feOffset dx="0" dy="2" result="offsetblur"/>
      <feFlood flood-color="#000000"/>
      <feComposite in2="offsetblur" operator="in"/>
    </filter>
    <linearGradient id="Gradient_2" gradientUnits="userSpaceOnUse" x1="99.921" y1="201.232" x2="243.921" y2="201.232">
      <stop offset="0" stop-color="#404040"/>
      <stop offset="0.153" stop-color="#BFBFBF"/>
      <stop offset="0.851" stop-color="#B4B4B4"/>
      <stop offset="1" stop-color="#404040"/>
    </linearGradient>
    <clipPath id="Clip_9">
      <path d="M92.852,12.773 L180.746,12.773 L180.746,183.214 L92.852,183.214 z M104.296,20.773 L98.852,23.298 L169.303,175.214 L174.746,172.689 L104.296,20.773 z"/>
    </clipPath>
    <filter id="Shadow_10">
      <feGaussianBlur in="SourceAlpha" stdDeviation="2.5"/>
      <feOffset dx="0" dy="2" result="offsetblur"/>
      <feFlood flood-color="#000000"/>
      <feComposite in2="offsetblur" operator="in"/>
    </filter>
    <clipPath id="Clip_11">
      <path d="M78,-3.964 L124,-3.964 L124,46 L78,46 z M99.775,4.046 L98.048,4.261 C88.804,5.891 82.631,14.707 84.261,23.951 C85.891,33.196 94.707,39.369 103.951,37.739 C113.196,36.109 119.369,27.293 117.739,18.048 C115.752,9.367 108.733,3.775 99.775,4.046 z"/>
    </clipPath>
    <filter id="Shadow_12">
      <feGaussianBlur in="SourceAlpha" stdDeviation="2.5"/>
      <feOffset dx="0" dy="2" result="offsetblur"/>
      <feFlood flood-color="#000000"/>
      <feComposite in2="offsetblur" operator="in"/>
    </filter>
    <radialGradient id="Gradient_3" gradientUnits="userSpaceOnUse" cx="95.819" cy="-38.219" r="16.997" gradientTransform="matrix(0.985, -0.174, -0.174, -0.985, 0, 0)">
      <stop offset="0" stop-color="#FFFFFF"/>
      <stop offset="1" stop-color="#383838"/>
    </radialGradient>
  </defs>
  <g id="Layer_1">
    <g>
      <g>
        <path d="M171,165 C177.075,165 182,169.925 182,176 L182,198 L160,198 L160,176 C160,169.925 164.925,165 171,165 z" clip-path="url(#Clip_1)" filter="url(#Shadow_2)" fill="rgba(0,0,0,0.75)"/>
        <path d="M171,165 C177.075,165 182,169.925 182,176 L182,198 L160,198 L160,176 C160,169.925 164.925,165 171,165 z" fill="url(#Gradient_1)"/>
      </g>
      <g>
        <path d="M171.5,168.777 C174.538,168.777 177,171.239 177,174.277 C177,177.314 174.538,179.777 171.5,179.777 C168.462,179.777 166,177.314 166,174.277 C166,171.239 168.462,168.777 171.5,168.777 z" fill="#000000"/>
        <path d="M171.5,168.777 C174.538,168.777 177,171.239 177,174.277 C177,177.314 174.538,179.777 171.5,179.777 C168.462,179.777 166,177.314 166,174.277 C166,171.239 168.462,168.777 171.5,168.777 z" fill-opacity="0" stroke="#000000" stroke-width="1"/>
      </g>
    </g>
    <g>
      <path d="M130.421,201.464 C140.639,201.464 148.921,209.746 148.921,219.964 C148.921,230.181 140.639,238.464 130.421,238.464 C120.204,238.464 111.921,230.181 111.921,219.964 C111.921,209.746 120.204,201.464 130.421,201.464 z" clip-path="url(#Clip_3)" filter="url(#Shadow_4)" fill="rgba(0,0,0,0.75)"/>
      <path d="M130.421,237.964 C120.48,237.964 112.421,229.905 112.421,219.964 C112.421,210.022 120.48,201.964 130.421,201.964 C140.362,201.964 148.421,210.022 148.421,219.964 C148.421,229.905 140.362,237.964 130.421,237.964 z" fill="#000000"/>
      <path d="M130.421,237.964 C120.48,237.964 112.421,229.905 112.421,219.964 C112.421,210.022 120.48,201.964 130.421,201.964 C140.362,201.964 148.421,210.022 148.421,219.964 C148.421,229.905 140.362,237.964 130.421,237.964 z" fill-opacity="0" stroke="#000000" stroke-width="1"/>
    </g>
    <g>
      <path d="M214.421,201.464 C224.639,201.464 232.921,209.746 232.921,219.964 C232.921,230.181 224.639,238.464 214.421,238.464 C204.204,238.464 195.921,230.181 195.921,219.964 C195.921,209.746 204.204,201.464 214.421,201.464 z" clip-path="url(#Clip_5)" filter="url(#Shadow_6)" fill="rgba(0,0,0,0.75)"/>
      <path d="M214.421,237.964 C204.48,237.964 196.421,229.905 196.421,219.964 C196.421,210.022 204.48,201.964 214.421,201.964 C224.362,201.964 232.421,210.022 232.421,219.964 C232.421,229.905 224.362,237.964 214.421,237.964 z" fill="#000000"/>
      <path d="M214.421,237.964 C204.48,237.964 196.421,229.905 196.421,219.964 C196.421,210.022 204.48,201.964 214.421,201.964 C224.362,201.964 232.421,210.022 232.421,219.964 C232.421,229.905 224.362,237.964 214.421,237.964 z" fill-opacity="0" stroke="#000000" stroke-width="1"/>
    </g>
    <g>
      <path d="M231.921,180 C238.549,180 243.921,181.056 243.921,182.359 L243.921,220.104 C243.921,221.407 238.549,222.464 231.921,222.464 L111.921,222.464 C105.294,222.464 99.921,221.407 99.921,220.104 L99.921,182.359 C99.921,181.056 105.294,180 111.921,180 L231.921,180 z" clip-path="url(#Clip_7)" filter="url(#Shadow_8)" fill="rgba(0,0,0,0.75)"/>
      <path d="M111.921,180 L231.921,180 C238.549,180 243.921,181.056 243.921,182.359 L243.921,220.104 C243.921,221.407 238.549,222.464 231.921,222.464 L111.921,222.464 C105.294,222.464 99.921,221.407 99.921,220.104 L99.921,182.359 C99.921,181.056 105.294,180 111.921,180 z" fill="url(#Gradient_2)"/>
    </g>
    <path d="M171.5,174.5 L171.5,16.5" fill-opacity="0" stroke="#000000" stroke-width="2" stroke-dasharray="6,4"/>
    <g>
      <path d="M135.221,66.485 C146.599,62.663 158.533,60.655 170.585,60.558" fill-opacity="0" stroke="#000000" stroke-width="2"/>
      <path d="M133.899,63.136 L126.291,70.008 L136.542,69.833 z" fill="#000000" fill-opacity="1" stroke="#000000" stroke-width="2" stroke-opacity="1"/>
    </g>
    <path d="M158.936,44.459 C158.936,42.486 158.398,38.332 155.349,38.332 C151.195,38.332 146.592,46.76 146.592,53.605 C146.592,56.414 147.459,59.732 150.179,59.732 C154.393,59.732 158.936,51.154 158.936,44.459 z M149.76,48.554 C150.269,46.641 150.866,44.25 152.062,42.128 C152.869,40.663 153.975,38.989 155.32,38.989 C156.784,38.989 156.963,40.902 156.963,42.606 C156.963,44.07 156.724,45.595 156.007,48.554 z M155.738,49.51 C155.409,50.885 154.782,53.425 153.646,55.577 C152.6,57.61 151.464,59.074 150.179,59.074 C149.193,59.074 148.565,58.207 148.565,55.428 C148.565,54.172 148.744,52.439 149.521,49.51 z" fill="#000000" id="Layer_1"/>
    <g>
      <path d="M247.5,202.5 L291.1,202.5" fill-opacity="0" stroke="#000000" stroke-width="4"/>
      <path d="M291.1,207.3 L303.9,202.5 L291.1,197.7 z" fill="#000000" fill-opacity="1" stroke="#000000" stroke-width="4" stroke-opacity="1"/>
    </g>
    <path d="M320.594,206.537 C320.923,207.762 321.969,208.539 323.254,208.539 C324.3,208.539 324.987,207.852 325.466,206.895 C325.974,205.819 326.362,203.996 326.362,203.936 C326.362,203.638 326.093,203.638 326.004,203.638 C325.705,203.638 325.675,203.757 325.585,204.176 C325.167,205.849 324.599,207.882 323.344,207.882 C322.716,207.882 322.417,207.493 322.417,206.507 C322.417,205.849 322.776,204.445 323.015,203.398 L323.852,200.171 C323.941,199.722 324.24,198.587 324.36,198.138 C324.509,197.451 324.808,196.315 324.808,196.136 C324.808,195.598 324.39,195.329 323.941,195.329 C323.792,195.329 323.015,195.359 322.776,196.375 C322.208,198.557 320.893,203.787 320.534,205.371 C320.504,205.491 319.309,207.882 317.127,207.882 C315.573,207.882 315.274,206.537 315.274,205.431 C315.274,203.757 316.111,201.396 316.888,199.334 C317.247,198.437 317.396,198.019 317.396,197.451 C317.396,196.106 316.44,195 314.945,195 C312.106,195 311,199.334 311,199.603 C311,199.902 311.299,199.902 311.359,199.902 C311.658,199.902 311.687,199.842 311.837,199.364 C312.584,196.763 313.72,195.658 314.855,195.658 C315.125,195.658 315.603,195.687 315.603,196.644 C315.603,197.361 315.274,198.228 315.095,198.676 C313.989,201.635 313.361,203.488 313.361,204.953 C313.361,207.792 315.423,208.539 317.037,208.539 C319.01,208.539 320.086,207.194 320.594,206.537 z" fill="#000000" id="Layer_1"/>
    <g>
      <path d="M104.296,20.773 L174.746,172.689 L169.303,175.214 L98.852,23.298 L104.296,20.773 z" clip-path="url(#Clip_9)" filter="url(#Shadow_10)" fill="rgba(0,0,0,0.75)"/>
      <path d="M172.024,173.952 L101.574,22.035" fill-opacity="0" stroke="#000000" stroke-width="6"/>
    </g>
    <g>
      <path d="M99.775,4.046 C108.733,3.775 115.752,9.367 117.739,18.048 C119.369,27.293 113.196,36.109 103.951,37.739 C94.707,39.369 85.891,33.196 84.261,23.951 C82.631,14.707 88.804,5.891 98.048,4.261 L99.775,4.046 z" clip-path="url(#Clip_11)" filter="url(#Shadow_12)" fill="rgba(0,0,0,0.75)"/>
      <path d="M98.048,4.261 C88.804,5.891 82.631,14.707 84.261,23.952 C85.891,33.196 94.707,39.369 103.952,37.739 C113.196,36.109 119.369,27.293 117.739,18.048 C116.109,8.804 107.293,2.631 98.048,4.261 z" fill="url(#Gradient_3)"/>
    </g>
    <path d="M90.763,24.447 C90.674,24.895 90.494,25.583 90.494,25.732 C90.494,26.27 90.913,26.539 91.361,26.539 C91.72,26.539 92.258,26.3 92.467,25.702 C92.497,25.643 92.856,24.238 93.035,23.491 L93.692,20.801 C93.872,20.143 94.051,19.486 94.2,18.798 C94.32,18.29 94.559,17.423 94.589,17.304 C95.037,16.377 96.621,13.658 99.461,13.658 C100.806,13.658 101.075,14.763 101.075,15.75 C101.075,16.497 100.865,17.334 100.626,18.23 L99.789,21.697 L99.192,23.969 C99.072,24.567 98.803,25.583 98.803,25.732 C98.803,26.27 99.222,26.539 99.67,26.539 C100.596,26.539 100.776,25.792 101.015,24.836 C101.433,23.162 102.539,18.798 102.808,17.633 C102.898,17.244 104.482,13.658 107.74,13.658 C109.025,13.658 109.354,14.674 109.354,15.75 C109.354,17.453 108.098,20.86 107.501,22.445 C107.232,23.162 107.112,23.491 107.112,24.088 C107.112,25.493 108.158,26.539 109.563,26.539 C112.372,26.539 113.478,22.176 113.478,21.936 C113.478,21.638 113.209,21.638 113.119,21.638 C112.821,21.638 112.821,21.727 112.671,22.176 C112.223,23.76 111.266,25.882 109.623,25.882 C109.114,25.882 108.905,25.583 108.905,24.895 C108.905,24.148 109.174,23.431 109.443,22.773 C110.011,21.219 111.266,17.902 111.266,16.198 C111.266,14.255 110.071,13 107.829,13 C105.588,13 104.063,14.315 102.958,15.899 C102.928,15.511 102.838,14.494 102.001,13.777 C101.254,13.149 100.298,13 99.55,13 C96.86,13 95.396,14.913 94.888,15.6 C94.738,13.897 93.483,13 92.138,13 C90.763,13 90.196,14.166 89.927,14.704 C89.389,15.75 89,17.513 89,17.603 C89,17.902 89.299,17.902 89.359,17.902 C89.658,17.902 89.687,17.872 89.867,17.214 C90.375,15.092 90.973,13.658 92.049,13.658 C92.527,13.658 92.975,13.897 92.975,15.032 C92.975,15.66 92.885,15.989 92.497,17.543 z" fill="#000000" id="Layer_1"/>
    <path d="M126.396,96.329 C126.396,96.299 126.396,96 126.007,96 C125.32,96 123.138,96.239 122.361,96.299 C122.122,96.329 121.793,96.359 121.793,96.927 C121.793,97.255 122.092,97.255 122.54,97.255 C123.975,97.255 124.005,97.524 124.005,97.763 L123.915,98.361 L120.149,113.305 C120.06,113.634 120,113.843 120,114.321 C120,116.025 121.315,117.071 122.72,117.071 C123.706,117.071 124.453,116.473 124.961,115.397 C125.499,114.261 125.858,112.528 125.858,112.468 C125.858,112.169 125.589,112.169 125.499,112.169 C125.2,112.169 125.171,112.289 125.081,112.707 C124.573,114.65 124.005,116.413 122.809,116.413 C121.913,116.413 121.913,115.457 121.913,115.039 C121.913,114.321 121.943,114.172 122.092,113.604 z" fill="#000000" id="Layer_1"/>
  </g>
</svg>
